<svg width="42" height="42" viewBox="0 0 42 42" fill="none" xmlns="http://www.w3.org/2000/svg">
<g filter="url(#filter0_d_2600_28219)">
<rect x="5.10352" y="0.769531" width="32" height="32" rx="4.5" stroke="black" shape-rendering="crispEdges"/>
<path d="M24.6407 16.5552C25.0983 16.2358 25.4845 15.7982 25.7684 15.2773C26.0524 14.7565 26.2263 14.1668 26.2762 13.5552C26.2849 13.0023 26.1984 12.4527 26.0218 11.9381C25.8452 11.4234 25.5819 10.9536 25.2469 10.5557C24.9119 10.1577 24.5118 9.83925 24.0695 9.61858C23.6271 9.3979 23.1512 9.27929 22.6688 9.26953H16.6035V24.2695H23.1454C23.6045 24.2639 24.058 24.1547 24.4802 23.9482C24.9024 23.7416 25.285 23.4417 25.6061 23.0656C25.9272 22.6895 26.1805 22.2446 26.3516 21.7563C26.5227 21.268 26.6082 20.7458 26.6033 20.2195V20.091C26.6036 19.3486 26.4191 18.6215 26.0715 17.9952C25.7238 17.3689 25.2275 16.8693 24.6407 16.5552ZM18.4726 11.4124H22.3978C22.7961 11.3983 23.1886 11.5241 23.5227 11.7731C23.8568 12.0221 24.1165 12.3822 24.2669 12.8052C24.4191 13.3707 24.3699 13.9823 24.13 14.5063C23.8901 15.0303 23.479 15.4241 22.9866 15.6017C22.7953 15.6659 22.5971 15.6984 22.3978 15.6981H18.4726V11.4124ZM22.7716 22.1267H18.4726V17.841H22.7716C23.1699 17.8268 23.5624 17.9527 23.8965 18.2017C24.2306 18.4506 24.4903 18.8108 24.6407 19.2338C24.793 19.7993 24.7437 20.4109 24.5038 20.9349C24.2639 21.4589 23.8528 21.8527 23.3604 22.0302C23.1692 22.0945 22.9709 22.127 22.7716 22.1267Z" fill="black"/>
</g>
<defs>
<filter id="filter0_d_2600_28219" x="0.603516" y="0.269531" width="41" height="41" filterUnits="userSpaceOnUse" color-interpolation-filters="sRGB">
<feFlood flood-opacity="0" result="BackgroundImageFix"/>
<feColorMatrix in="SourceAlpha" type="matrix" values="0 0 0 0 0 0 0 0 0 0 0 0 0 0 0 0 0 0 127 0" result="hardAlpha"/>
<feOffset dy="4"/>
<feGaussianBlur stdDeviation="2"/>
<feComposite in2="hardAlpha" operator="out"/>
<feColorMatrix type="matrix" values="0 0 0 0 0 0 0 0 0 0 0 0 0 0 0 0 0 0 0.25 0"/>
<feBlend mode="normal" in2="BackgroundImageFix" result="effect1_dropShadow_2600_28219"/>
<feBlend mode="normal" in="SourceGraphic" in2="effect1_dropShadow_2600_28219" result="shape"/>
</filter>
</defs>
</svg>
