<svg width="230" height="136" viewBox="0 0 230 136" fill="none" xmlns="http://www.w3.org/2000/svg">
<g clip-path="url(#clip0_2857_33739)">
<g clip-path="url(#clip1_2857_33739)">
<path d="M98.4295 85.9791C93.9492 85.9791 89.9637 83.1104 88.5165 78.8396L88.4187 78.5178C88.0774 77.3869 87.9344 76.4358 87.9344 75.4841V56.4023L81.1449 79.0662C80.2717 82.3997 82.2616 85.8557 85.6002 86.7765L128.876 98.3662C129.417 98.506 129.957 98.5732 130.489 98.5732C133.276 98.5732 135.823 96.7233 136.537 93.997L139.058 85.9791H98.4295Z" fill="#DCE5F1"/>
<path d="M106.126 56.5895C109.213 56.5895 111.723 54.0791 111.723 50.9921C111.723 47.9051 109.213 45.3945 106.126 45.3945C103.039 45.3945 100.528 47.9051 100.528 50.9921C100.528 54.0791 103.039 56.5895 106.126 56.5895Z" fill="#DCE5F1"/>
<path d="M141.11 37H99.1293C95.2731 37 92.1328 40.1403 92.1328 43.997V74.7821C92.1328 78.6389 95.2731 81.7792 99.1293 81.7792H141.11C144.966 81.7792 148.107 78.6389 148.107 74.7821V43.997C148.107 40.1403 144.966 37 141.11 37ZM99.1293 42.5974H141.11C141.882 42.5974 142.509 43.2242 142.509 43.997V63.8648L133.668 53.5486C132.73 52.4489 131.373 51.8611 129.915 51.8278C128.465 51.836 127.105 52.4796 126.176 53.5937L115.782 66.0699L112.395 62.6919C110.481 60.7778 107.366 60.7778 105.455 62.6919L97.7303 70.4135V43.997C97.7303 43.2242 98.3571 42.5974 99.1293 42.5974Z" fill="#DCE5F1"/>
</g>
</g>
<rect x="0.560547" y="0.5" width="228" height="135" stroke="#DCE5F1"/>
<defs>
<clipPath id="clip0_2857_33739">
<rect x="0.0605469" width="229" height="136" fill="white"/>
</clipPath>
<clipPath id="clip1_2857_33739">
<rect x="0.0605469" width="229" height="136" rx="5" fill="white"/>
</clipPath>
</defs>
</svg>
