<svg width="139" height="129" viewBox="0 0 139 129" fill="none" xmlns="http://www.w3.org/2000/svg">
<g filter="url(#filter0_d_0_1)">
<rect x="5.5" y="5.59766" width="127.672" height="117.72" rx="6.84941" fill="white" shape-rendering="crispEdges"/>
<rect x="6" y="6.09766" width="126.672" height="116.72" rx="6.34941" stroke="#CBD5E1" stroke-opacity="0.5" shape-rendering="crispEdges"/>
<g clip-path="url(#clip0_0_1)">
<path d="M58.6551 49.5538L59.1691 50.4506C59.623 51.2436 60.3668 51.8288 61.2473 52.0803L64.4137 52.9827C65.3543 53.2506 65.9996 54.1092 65.9996 55.0881V57.2702C65.9996 57.8717 66.3387 58.4186 66.8746 58.6866C67.4105 58.9545 67.7496 59.5014 67.7496 60.103V62.2358C67.7496 63.0889 68.5644 63.7069 69.3848 63.4717C70.2652 63.2202 70.9488 62.5147 71.173 61.6233L71.3262 61.0108C71.5558 60.0866 72.1574 59.2936 72.9832 58.8233L73.4262 58.5717C74.2465 58.1069 74.7496 57.2319 74.7496 56.2913V55.8374C74.7496 55.1428 74.4707 54.4756 73.9785 53.9834L73.7652 53.7702C73.273 53.278 72.6058 52.9991 71.9113 52.9991H69.5543C68.9473 52.9991 68.3457 52.8405 67.8152 52.5397L65.9285 51.4624C65.6933 51.3256 65.5129 51.1069 65.4254 50.8499C65.2504 50.3249 65.4855 49.7561 65.9832 49.51L66.3058 49.3459C66.6668 49.1655 67.0879 49.1327 67.4707 49.2639L68.7394 49.685C69.1879 49.8327 69.6801 49.6631 69.9371 49.2749C70.1941 48.892 70.1668 48.3834 69.8715 48.028L69.1277 47.1366C68.5808 46.4803 68.5863 45.5233 69.1441 44.878L70.0027 43.8772C70.484 43.3139 70.5605 42.51 70.1941 41.8702L70.0629 41.6405C69.8715 41.6295 69.6855 41.6241 69.4941 41.6241C64.4191 41.6241 60.1152 44.9545 58.6551 49.5538ZM80.8746 52.9991C80.8746 50.9866 80.3496 49.0944 79.4308 47.4483L78.0308 48.0116C77.1723 48.3561 76.7293 49.3131 77.0191 50.1881L77.9433 52.9608C78.1348 53.5295 78.5996 53.9616 79.1793 54.1038L80.7707 54.503C80.8363 54.0108 80.8691 53.5077 80.8691 52.9991H80.8746ZM55.4996 52.9991C55.4996 49.286 56.9746 45.7251 59.6001 43.0996C62.2256 40.4741 65.7866 38.9991 69.4996 38.9991C73.2126 38.9991 76.7736 40.4741 79.3991 43.0996C82.0246 45.7251 83.4996 49.286 83.4996 52.9991C83.4996 56.7121 82.0246 60.2731 79.3991 62.8986C76.7736 65.5241 73.2126 66.9991 69.4996 66.9991C65.7866 66.9991 62.2256 65.5241 59.6001 62.8986C56.9746 60.2731 55.4996 56.7121 55.4996 52.9991Z" fill="#424242"/>
</g>
<path d="M46.0567 89.0057V80.4661H47.3451V87.8965H51.2146V89.0057H46.0567ZM55.2821 89.1349C54.6817 89.1349 54.1577 88.9973 53.7101 88.7221C53.2626 88.4469 52.9151 88.0619 52.6677 87.5671C52.4203 87.0723 52.2966 86.4941 52.2966 85.8325C52.2966 85.1682 52.4203 84.5872 52.6677 84.0896C52.9151 83.592 53.2626 83.2056 53.7101 82.9304C54.1577 82.6552 54.6817 82.5176 55.2821 82.5176C55.8826 82.5176 56.4065 82.6552 56.8541 82.9304C57.3016 83.2056 57.6491 83.592 57.8965 84.0896C58.1439 84.5872 58.2676 85.1682 58.2676 85.8325C58.2676 86.4941 58.1439 87.0723 57.8965 87.5671C57.6491 88.0619 57.3016 88.4469 56.8541 88.7221C56.4065 88.9973 55.8826 89.1349 55.2821 89.1349ZM55.2863 88.0883C55.6755 88.0883 55.9979 87.9855 56.2537 87.7798C56.5094 87.5741 56.6984 87.3003 56.8207 86.9584C56.9458 86.6164 57.0084 86.2398 57.0084 85.8284C57.0084 85.4197 56.9458 85.0445 56.8207 84.7026C56.6984 84.3579 56.5094 84.0813 56.2537 83.8728C55.9979 83.6643 55.6755 83.5601 55.2863 83.5601C54.8943 83.5601 54.5691 83.6643 54.3106 83.8728C54.0548 84.0813 53.8644 84.3579 53.7393 84.7026C53.617 85.0445 53.5559 85.4197 53.5559 85.8284C53.5559 86.2398 53.617 86.6164 53.7393 86.9584C53.8644 87.3003 54.0548 87.5741 54.3106 87.7798C54.5691 87.9855 54.8943 88.0883 55.2863 88.0883ZM62.357 89.1349C61.7371 89.1349 61.2034 88.9945 60.7559 88.7138C60.3111 88.4303 59.9692 88.0397 59.7301 87.5421C59.4911 87.0445 59.3715 86.4747 59.3715 85.8325C59.3715 85.1821 59.4939 84.608 59.7385 84.1105C59.9831 83.6101 60.3278 83.2195 60.7726 82.9388C61.2173 82.658 61.7413 82.5176 62.3445 82.5176C62.831 82.5176 63.2646 82.608 63.6455 82.7887C64.0263 82.9666 64.3335 83.2168 64.567 83.5392C64.8033 83.8617 64.9436 84.2383 64.9881 84.6692H63.7747C63.708 84.369 63.5551 84.1105 63.3161 83.8936C63.0798 83.6768 62.7629 83.5684 62.3654 83.5684C62.0179 83.5684 61.7135 83.6601 61.4522 83.8436C61.1937 84.0243 60.9922 84.2828 60.8476 84.6192C60.7031 84.9527 60.6308 85.3475 60.6308 85.8033C60.6308 86.2704 60.7017 86.6734 60.8434 87.0126C60.9852 87.3517 61.1854 87.6144 61.4439 87.8006C61.7052 87.9869 62.0123 88.08 62.3654 88.08C62.6017 88.08 62.8157 88.0369 63.0075 87.9507C63.2021 87.8618 63.3647 87.7353 63.4954 87.5713C63.6288 87.4073 63.7219 87.2099 63.7747 86.9792H64.9881C64.9436 87.3934 64.8088 87.7631 64.5836 88.0883C64.3585 88.4136 64.0569 88.6693 63.6788 88.8556C63.3036 89.0418 62.863 89.1349 62.357 89.1349ZM68.1852 89.1474C67.7794 89.1474 67.4124 89.0724 67.0844 88.9223C66.7564 88.7694 66.4965 88.5484 66.3047 88.2593C66.1157 87.9702 66.0211 87.6158 66.0211 87.196C66.0211 86.8347 66.0906 86.5372 66.2296 86.3037C66.3686 86.0702 66.5563 85.8854 66.7925 85.7491C67.0288 85.6129 67.2929 85.5101 67.5848 85.4406C67.8767 85.3711 68.1741 85.3183 68.4771 85.2821C68.8607 85.2377 69.172 85.2015 69.4111 85.1737C69.6502 85.1431 69.8239 85.0945 69.9323 85.0278C70.0407 84.9611 70.0949 84.8527 70.0949 84.7026V84.6734C70.0949 84.3092 69.9921 84.0271 69.7864 83.8269C69.5835 83.6268 69.2805 83.5267 68.8774 83.5267C68.4576 83.5267 68.1268 83.6198 67.885 83.8061C67.6459 83.9895 67.4805 84.1938 67.3888 84.419L66.2171 84.1522C66.3561 83.763 66.559 83.4489 66.8259 83.2098C67.0955 82.968 67.4055 82.7928 67.7557 82.6844C68.106 82.5732 68.4743 82.5176 68.8607 82.5176C69.1164 82.5176 69.3875 82.5482 69.6738 82.6094C69.9629 82.6677 70.2325 82.7762 70.4827 82.9346C70.7357 83.0931 70.9428 83.3196 71.104 83.6143C71.2652 83.9061 71.3458 84.2856 71.3458 84.7526V89.0057H70.1283V88.13H70.0783C69.9976 88.2913 69.8767 88.4497 69.7155 88.6054C69.5543 88.761 69.3472 88.8903 69.0942 88.9932C68.8412 89.096 68.5383 89.1474 68.1852 89.1474ZM68.4562 88.1467C68.8009 88.1467 69.0956 88.0786 69.3402 87.9424C69.5876 87.8062 69.7753 87.6283 69.9031 87.4087C70.0338 87.1863 70.0991 86.9486 70.0991 86.6957V85.8701C70.0546 85.9145 69.9685 85.9562 69.8406 85.9952C69.7155 86.0313 69.5723 86.0633 69.4111 86.0911C69.2499 86.1161 69.0928 86.1397 68.9399 86.1619C68.787 86.1814 68.6592 86.1981 68.5563 86.212C68.3145 86.2426 68.0935 86.294 67.8933 86.3663C67.696 86.4385 67.5375 86.5428 67.418 86.679C67.3012 86.8124 67.2429 86.9903 67.2429 87.2127C67.2429 87.5213 67.3568 87.7548 67.5848 87.9132C67.8127 88.0689 68.1032 88.1467 68.4562 88.1467ZM75.9961 82.601V83.6018H72.4977V82.601H75.9961ZM73.4359 81.0666H74.6826V87.1251C74.6826 87.367 74.7188 87.5491 74.791 87.6714C74.8633 87.7909 74.9564 87.8729 75.0704 87.9174C75.1872 87.9591 75.3136 87.9799 75.4499 87.9799C75.5499 87.9799 75.6375 87.973 75.7125 87.9591C75.7876 87.9452 75.846 87.9341 75.8877 87.9257L76.1128 88.9556C76.0406 88.9834 75.9377 89.0112 75.8043 89.039C75.6708 89.0696 75.5041 89.0863 75.3039 89.0891C74.9759 89.0946 74.6701 89.0362 74.3866 88.9139C74.103 88.7916 73.8737 88.6026 73.6986 88.3469C73.5235 88.0911 73.4359 87.7701 73.4359 87.3837V81.0666ZM77.3752 89.0057V82.601H78.6219V89.0057H77.3752ZM78.0048 81.6128C77.788 81.6128 77.6018 81.5405 77.4461 81.396C77.2932 81.2487 77.2168 81.0735 77.2168 80.8706C77.2168 80.6649 77.2932 80.4898 77.4461 80.3452C77.6018 80.1979 77.788 80.1242 78.0048 80.1242C78.2217 80.1242 78.4065 80.1979 78.5594 80.3452C78.7151 80.4898 78.7929 80.6649 78.7929 80.8706C78.7929 81.0735 78.7151 81.2487 78.5594 81.396C78.4065 81.5405 78.2217 81.6128 78.0048 81.6128ZM82.997 89.1349C82.3966 89.1349 81.8726 88.9973 81.425 88.7221C80.9775 88.4469 80.63 88.0619 80.3826 87.5671C80.1352 87.0723 80.0115 86.4941 80.0115 85.8325C80.0115 85.1682 80.1352 84.5872 80.3826 84.0896C80.63 83.592 80.9775 83.2056 81.425 82.9304C81.8726 82.6552 82.3966 82.5176 82.997 82.5176C83.5974 82.5176 84.1214 82.6552 84.569 82.9304C85.0165 83.2056 85.364 83.592 85.6114 84.0896C85.8588 84.5872 85.9825 85.1682 85.9825 85.8325C85.9825 86.4941 85.8588 87.0723 85.6114 87.5671C85.364 88.0619 85.0165 88.4469 84.569 88.7221C84.1214 88.9973 83.5974 89.1349 82.997 89.1349ZM83.0012 88.0883C83.3903 88.0883 83.7128 87.9855 83.9685 87.7798C84.2243 87.5741 84.4133 87.3003 84.5356 86.9584C84.6607 86.6164 84.7232 86.2398 84.7232 85.8284C84.7232 85.4197 84.6607 85.0445 84.5356 84.7026C84.4133 84.3579 84.2243 84.0813 83.9685 83.8728C83.7128 83.6643 83.3903 83.5601 83.0012 83.5601C82.6092 83.5601 82.284 83.6643 82.0255 83.8728C81.7697 84.0813 81.5793 84.3579 81.4542 84.7026C81.3319 85.0445 81.2707 85.4197 81.2707 85.8284C81.2707 86.2398 81.3319 86.6164 81.4542 86.9584C81.5793 87.3003 81.7697 87.5741 82.0255 87.7798C82.284 87.9855 82.6092 88.0883 83.0012 88.0883ZM88.6209 85.2029V89.0057H87.3741V82.601H88.5708V83.6435H88.65C88.7974 83.3043 89.0281 83.0319 89.3422 82.8262C89.6591 82.6205 90.058 82.5176 90.5389 82.5176C90.9753 82.5176 91.3576 82.6094 91.6856 82.7928C92.0136 82.9735 92.2679 83.2432 92.4486 83.6018C92.6293 83.9603 92.7197 84.4037 92.7197 84.9319V89.0057H91.4729V85.082C91.4729 84.6178 91.352 84.255 91.1102 83.9937C90.8683 83.7296 90.5361 83.5976 90.1136 83.5976C89.8245 83.5976 89.5674 83.6601 89.3422 83.7852C89.1198 83.9103 88.9433 84.0938 88.8127 84.3356C88.6848 84.5747 88.6209 84.8638 88.6209 85.2029Z" fill="#424242"/>
</g>
<defs>
<filter id="filter0_d_0_1" x="0.5" y="0.597656" width="137.672" height="127.72" filterUnits="userSpaceOnUse" color-interpolation-filters="sRGB">
<feFlood flood-opacity="0" result="BackgroundImageFix"/>
<feColorMatrix in="SourceAlpha" type="matrix" values="0 0 0 0 0 0 0 0 0 0 0 0 0 0 0 0 0 0 127 0" result="hardAlpha"/>
<feOffset/>
<feGaussianBlur stdDeviation="2.5"/>
<feComposite in2="hardAlpha" operator="out"/>
<feColorMatrix type="matrix" values="0 0 0 0 0 0 0 0 0 0 0 0 0 0 0 0 0 0 0.18 0"/>
<feBlend mode="normal" in2="BackgroundImageFix" result="effect1_dropShadow_0_1"/>
<feBlend mode="normal" in="SourceGraphic" in2="effect1_dropShadow_0_1" result="shape"/>
</filter>
<clipPath id="clip0_0_1">
<rect width="28" height="28" fill="white" transform="translate(55.4996 38.9991)"/>
</clipPath>
</defs>
</svg>
