<svg width="16" height="16" viewBox="0 0 16 16" fill="none" xmlns="http://www.w3.org/2000/svg">
<g id="envelope-light 1">
<path id="Vector" d="M2 3C1.44687 3 1 3.44687 1 4V5.24687L7.1125 9.72812C7.64062 10.1156 8.35938 10.1156 8.8875 9.72812L15 5.24687V4C15 3.44687 14.5531 3 14 3H2ZM1 6.4875V12C1 12.5531 1.44687 13 2 13H14C14.5531 13 15 12.5531 15 12V6.4875L9.47812 10.5344C8.59687 11.1781 7.4 11.1781 6.52187 10.5344L1 6.4875ZM0 4C0 2.89688 0.896875 2 2 2H14C15.1031 2 16 2.89688 16 4V12C16 13.1031 15.1031 14 14 14H2C0.896875 14 0 13.1031 0 12V4Z" fill="white"/>
</g>
</svg>
