<svg width="137" height="129" viewBox="0 0 137 129" fill="none" xmlns="http://www.w3.org/2000/svg">
<g filter="url(#filter0_d_4438_45455)">
<rect x="3.5" y="5.71875" width="127.672" height="117.72" rx="6.84941" fill="white" shape-rendering="crispEdges"/>
<rect x="4" y="6.21875" width="126.672" height="116.72" rx="6.34941" stroke="#CBD5E1" stroke-opacity="0.5" shape-rendering="crispEdges"/>
<path d="M54.6378 42C53.4564 42 52.5 43.0018 52.5 44.2393V61.7607C52.5 62.9982 53.4564 64 54.6378 64C54.8769 64 55.1067 63.9607 55.327 63.8821C55.9974 63.6464 60.8263 62.0357 67.5023 62.0357C74.1784 62.0357 79.0072 63.6464 79.673 63.8821C79.8933 63.9607 80.1277 64 80.3621 64C81.5436 64 82.5 62.9982 82.5 61.7607V44.2393C82.5047 43.0018 81.5483 42 80.3668 42C80.1324 42 79.898 42.0393 79.6777 42.1179C79.0073 42.3536 74.1784 43.9643 67.5023 43.9643C60.8263 43.9643 55.9974 42.3536 55.3317 42.1179C55.1067 42.0393 54.8769 42 54.6378 42ZM57.0007 48.2857C57.0007 47.8689 57.1588 47.4692 57.4401 47.1745C57.7215 46.8798 58.103 46.7143 58.5009 46.7143C58.8988 46.7143 59.2804 46.8798 59.5618 47.1745C59.8431 47.4692 60.0012 47.8689 60.0012 48.2857C60.0012 48.7025 59.8431 49.1022 59.5618 49.3969C59.2804 49.6916 58.8988 49.8571 58.5009 49.8571C58.103 49.8571 57.7215 49.6916 57.4401 49.3969C57.1588 49.1022 57.0007 48.7025 57.0007 48.2857ZM69.7527 48.2857C70.1231 48.2857 70.4747 48.4772 70.681 48.8013L76.5178 57.7634C76.771 58.1562 76.7803 58.667 76.5366 59.0647C76.2928 59.4625 75.8474 59.6688 75.402 59.5902C73.2548 59.2071 70.5591 58.8929 67.5023 58.8929C64.4269 58.8929 61.7171 59.2121 59.5652 59.6C59.1057 59.6835 58.6416 59.4576 58.4072 59.0353C58.1728 58.6129 58.2056 58.0826 58.4962 57.6996L61.7499 53.442C61.9655 53.1621 62.2843 53 62.6266 53C62.9688 53 63.2923 53.1621 63.5033 53.442L64.741 55.0674L68.8197 48.8013C69.0307 48.4772 69.3776 48.2857 69.748 48.2857H69.7527Z" fill="#424242"/>
<path d="M51.7622 88.8164V80.2769H54.806C55.4704 80.2769 56.0208 80.3978 56.4572 80.6396C56.8937 80.8815 57.2203 81.2123 57.4371 81.632C57.6539 82.049 57.7623 82.5188 57.7623 83.0414C57.7623 83.5668 57.6525 84.0393 57.4329 84.4591C57.2161 84.8761 56.8881 85.2068 56.4489 85.4515C56.0125 85.6933 55.4634 85.8142 54.8019 85.8142H52.7087V84.7218H54.6851C55.1049 84.7218 55.4454 84.6495 55.7067 84.5049C55.968 84.3576 56.1598 84.1575 56.2821 83.9045C56.4044 83.6516 56.4656 83.3638 56.4656 83.0414C56.4656 82.7189 56.4044 82.4326 56.2821 82.1824C56.1598 81.9323 55.9666 81.7363 55.7025 81.5945C55.4412 81.4527 55.0965 81.3819 54.6684 81.3819H53.0506V88.8164H51.7622ZM60.4195 85.0137V88.8164H59.1727V80.2769H60.4028V83.4542H60.482C60.6321 83.1095 60.8615 82.8357 61.17 82.6328C61.4786 82.4298 61.8816 82.3284 62.3792 82.3284C62.8184 82.3284 63.202 82.4187 63.5301 82.5994C63.8609 82.7801 64.1166 83.0497 64.2973 83.4083C64.4807 83.7641 64.5725 84.2089 64.5725 84.7426V88.8164H63.3257V84.8927C63.3257 84.4229 63.2048 84.0588 62.963 83.8003C62.7211 83.539 62.3848 83.4083 61.9539 83.4083C61.6593 83.4083 61.3952 83.4709 61.1617 83.596C60.9309 83.721 60.7489 83.9045 60.6154 84.1464C60.4848 84.3854 60.4195 84.6745 60.4195 85.0137ZM68.934 88.9457C68.3335 88.9457 67.8095 88.8081 67.362 88.5329C66.9145 88.2577 66.567 87.8727 66.3196 87.3779C66.0722 86.8831 65.9485 86.3049 65.9485 85.6433C65.9485 84.9789 66.0722 84.3979 66.3196 83.9003C66.567 83.4028 66.9145 83.0164 67.362 82.7412C67.8095 82.466 68.3335 82.3284 68.934 82.3284C69.5344 82.3284 70.0584 82.466 70.5059 82.7412C70.9535 83.0164 71.301 83.4028 71.5484 83.9003C71.7958 84.3979 71.9195 84.9789 71.9195 85.6433C71.9195 86.3049 71.7958 86.8831 71.5484 87.3779C71.301 87.8727 70.9535 88.2577 70.5059 88.5329C70.0584 88.8081 69.5344 88.9457 68.934 88.9457ZM68.9381 87.8991C69.3273 87.8991 69.6498 87.7962 69.9055 87.5905C70.1612 87.3848 70.3503 87.111 70.4726 86.7691C70.5977 86.4272 70.6602 86.0505 70.6602 85.6391C70.6602 85.2305 70.5977 84.8552 70.4726 84.5133C70.3503 84.1686 70.1612 83.892 69.9055 83.6835C69.6498 83.475 69.3273 83.3708 68.9381 83.3708C68.5462 83.3708 68.221 83.475 67.9624 83.6835C67.7067 83.892 67.5163 84.1686 67.3912 84.5133C67.2689 84.8552 67.2077 85.2305 67.2077 85.6391C67.2077 86.0505 67.2689 86.4272 67.3912 86.7691C67.5163 87.111 67.7067 87.3848 67.9624 87.5905C68.221 87.7962 68.5462 87.8991 68.9381 87.8991ZM76.3008 82.4118V83.4125H72.8024V82.4118H76.3008ZM73.7406 80.8773H74.9873V86.9359C74.9873 87.1777 75.0235 87.3598 75.0957 87.4821C75.168 87.6016 75.2611 87.6836 75.3751 87.7281C75.4918 87.7698 75.6183 87.7907 75.7545 87.7907C75.8546 87.7907 75.9422 87.7837 76.0172 87.7698C76.0923 87.7559 76.1507 87.7448 76.1924 87.7365L76.4175 88.7664C76.3452 88.7942 76.2424 88.822 76.109 88.8498C75.9755 88.8803 75.8087 88.897 75.6086 88.8998C75.2806 88.9054 74.9748 88.847 74.6913 88.7247C74.4077 88.6024 74.1784 88.4133 74.0033 88.1576C73.8281 87.9019 73.7406 87.5808 73.7406 87.1944V80.8773ZM80.3089 88.9457C79.7084 88.9457 79.1845 88.8081 78.7369 88.5329C78.2894 88.2577 77.9419 87.8727 77.6945 87.3779C77.4471 86.8831 77.3234 86.3049 77.3234 85.6433C77.3234 84.9789 77.4471 84.3979 77.6945 83.9003C77.9419 83.4028 78.2894 83.0164 78.7369 82.7412C79.1845 82.466 79.7084 82.3284 80.3089 82.3284C80.9093 82.3284 81.4333 82.466 81.8809 82.7412C82.3284 83.0164 82.6759 83.4028 82.9233 83.9003C83.1707 84.3979 83.2944 84.9789 83.2944 85.6433C83.2944 86.3049 83.1707 86.8831 82.9233 87.3779C82.6759 87.8727 82.3284 88.2577 81.8809 88.5329C81.4333 88.8081 80.9093 88.9457 80.3089 88.9457ZM80.313 87.8991C80.7022 87.8991 81.0247 87.7962 81.2804 87.5905C81.5362 87.3848 81.7252 87.111 81.8475 86.7691C81.9726 86.4272 82.0351 86.0505 82.0351 85.6391C82.0351 85.2305 81.9726 84.8552 81.8475 84.5133C81.7252 84.1686 81.5362 83.892 81.2804 83.6835C81.0247 83.475 80.7022 83.3708 80.313 83.3708C79.9211 83.3708 79.5959 83.475 79.3373 83.6835C79.0816 83.892 78.8912 84.1686 78.7661 84.5133C78.6438 84.8552 78.5826 85.2305 78.5826 85.6391C78.5826 86.0505 78.6438 86.4272 78.7661 86.7691C78.8912 87.111 79.0816 87.3848 79.3373 87.5905C79.5959 87.7962 79.9211 87.8991 80.313 87.8991Z" fill="#424242"/>
</g>
<defs>
<filter id="filter0_d_4438_45455" x="-1.5" y="0.71875" width="137.672" height="127.719" filterUnits="userSpaceOnUse" color-interpolation-filters="sRGB">
<feFlood flood-opacity="0" result="BackgroundImageFix"/>
<feColorMatrix in="SourceAlpha" type="matrix" values="0 0 0 0 0 0 0 0 0 0 0 0 0 0 0 0 0 0 127 0" result="hardAlpha"/>
<feOffset/>
<feGaussianBlur stdDeviation="2.5"/>
<feComposite in2="hardAlpha" operator="out"/>
<feColorMatrix type="matrix" values="0 0 0 0 0 0 0 0 0 0 0 0 0 0 0 0 0 0 0.18 0"/>
<feBlend mode="normal" in2="BackgroundImageFix" result="effect1_dropShadow_4438_45455"/>
<feBlend mode="normal" in="SourceGraphic" in2="effect1_dropShadow_4438_45455" result="shape"/>
</filter>
</defs>
</svg>
