<svg width="137" height="128" viewBox="0 0 137 128" fill="none" xmlns="http://www.w3.org/2000/svg">
<g filter="url(#filter0_d_4438_45505)">
<rect x="3.5" y="5.59766" width="127.672" height="117.72" rx="6.84941" fill="white" shape-rendering="crispEdges"/>
<rect x="4" y="6.09766" width="126.672" height="116.72" rx="6.34941" stroke="#CBD5E1" stroke-opacity="0.5" shape-rendering="crispEdges"/>
<g clip-path="url(#clip0_4438_45505)">
<path d="M56.655 49.5547L57.169 50.4516C57.6229 51.2445 58.3667 51.8297 59.2472 52.0813L62.4136 52.9836C63.3542 53.2516 63.9995 54.1102 63.9995 55.0891V57.2711C63.9995 57.8727 64.3386 58.4195 64.8745 58.6875C65.4104 58.9555 65.7495 59.5023 65.7495 60.1039V62.2367C65.7495 63.0898 66.5644 63.7078 67.3847 63.4727C68.2651 63.2211 68.9487 62.5156 69.1729 61.6242L69.3261 61.0117C69.5558 60.0875 70.1573 59.2945 70.9831 58.8242L71.4261 58.5727C72.2464 58.1078 72.7495 57.2328 72.7495 56.2922V55.8383C72.7495 55.1437 72.4706 54.4766 71.9784 53.9844L71.7651 53.7711C71.2729 53.2789 70.6058 53 69.9112 53H67.5542C66.9472 53 66.3456 52.8414 65.8151 52.5406L63.9284 51.4633C63.6933 51.3266 63.5128 51.1078 63.4253 50.8508C63.2503 50.3258 63.4854 49.757 63.9831 49.5109L64.3058 49.3469C64.6667 49.1664 65.0878 49.1336 65.4706 49.2648L66.7394 49.6859C67.1878 49.8336 67.68 49.6641 67.937 49.2758C68.194 48.893 68.1667 48.3844 67.8714 48.0289L67.1276 47.1375C66.5808 46.4813 66.5862 45.5242 67.144 44.8789L68.0026 43.8781C68.4839 43.3148 68.5604 42.5109 68.194 41.8711L68.0628 41.6414C67.8714 41.6305 67.6854 41.625 67.494 41.625C62.419 41.625 58.1151 44.9555 56.655 49.5547ZM78.8745 53C78.8745 50.9875 78.3495 49.0953 77.4308 47.4492L76.0308 48.0125C75.1722 48.357 74.7292 49.3141 75.019 50.1891L75.9433 52.9617C76.1347 53.5305 76.5995 53.9625 77.1792 54.1047L78.7706 54.5039C78.8362 54.0117 78.869 53.5086 78.869 53H78.8745ZM53.4995 53C53.4995 49.287 54.9745 45.726 57.6 43.1005C60.2255 40.475 63.7865 39 67.4995 39C71.2125 39 74.7735 40.475 77.399 43.1005C80.0245 45.726 81.4995 49.287 81.4995 53C81.4995 56.713 80.0245 60.274 77.399 62.8995C74.7735 65.525 71.2125 67 67.4995 67C63.7865 67 60.2255 65.525 57.6 62.8995C54.9745 60.274 53.4995 56.713 53.4995 53Z" fill="#424242"/>
</g>
<path d="M31.6267 89.0039V80.4644H34.6706C35.335 80.4644 35.8854 80.5853 36.3218 80.8271C36.7582 81.069 37.0849 81.3998 37.3017 81.8195C37.5185 82.2365 37.6269 82.7063 37.6269 83.2289C37.6269 83.7543 37.5171 84.2268 37.2975 84.6466C37.0807 85.0636 36.7527 85.3943 36.3135 85.639C35.877 85.8808 35.328 86.0017 34.6664 86.0017H32.5733V84.9093H34.5497C34.9694 84.9093 35.31 84.837 35.5713 84.6924C35.8326 84.5451 36.0244 84.345 36.1467 84.092C36.269 83.8391 36.3301 83.5513 36.3301 83.2289C36.3301 82.9064 36.269 82.6201 36.1467 82.3699C36.0244 82.1198 35.8312 81.9238 35.5671 81.782C35.3058 81.6402 34.9611 81.5694 34.533 81.5694H32.9152V89.0039H31.6267ZM40.284 80.4644V89.0039H39.0373V80.4644H40.284ZM43.8252 89.1457C43.4193 89.1457 43.0524 89.0706 42.7244 88.9205C42.3963 88.7676 42.1364 88.5466 41.9446 88.2575C41.7556 87.9684 41.6611 87.614 41.6611 87.1943C41.6611 86.8329 41.7306 86.5355 41.8696 86.3019C42.0086 86.0684 42.1962 85.8836 42.4325 85.7474C42.6688 85.6112 42.9328 85.5083 43.2247 85.4388C43.5166 85.3693 43.814 85.3165 44.117 85.2804C44.5006 85.2359 44.812 85.1998 45.051 85.172C45.2901 85.1414 45.4638 85.0927 45.5723 85.026C45.6807 84.9593 45.7349 84.8509 45.7349 84.7008V84.6716C45.7349 84.3074 45.632 84.0253 45.4263 83.8252C45.2234 83.625 44.9204 83.5249 44.5173 83.5249C44.0976 83.5249 43.7668 83.6181 43.5249 83.8043C43.2859 83.9878 43.1205 84.1921 43.0287 84.4172L41.8571 84.1504C41.9961 83.7612 42.199 83.4471 42.4658 83.208C42.7355 82.9662 43.0454 82.7911 43.3957 82.6827C43.7459 82.5715 44.1143 82.5159 44.5006 82.5159C44.7564 82.5159 45.0274 82.5465 45.3137 82.6076C45.6028 82.666 45.8725 82.7744 46.1227 82.9328C46.3756 83.0913 46.5827 83.3178 46.7439 83.6125C46.9052 83.9044 46.9858 84.2838 46.9858 84.7508V89.0039H45.7682V88.1283H45.7182C45.6376 88.2895 45.5167 88.4479 45.3554 88.6036C45.1942 88.7593 44.9871 88.8885 44.7341 88.9914C44.4812 89.0942 44.1782 89.1457 43.8252 89.1457ZM44.0962 88.145C44.4409 88.145 44.7355 88.0768 44.9802 87.9406C45.2276 87.8044 45.4152 87.6265 45.5431 87.4069C45.6737 87.1845 45.739 86.9469 45.739 86.6939V85.8683C45.6946 85.9128 45.6084 85.9545 45.4805 85.9934C45.3554 86.0295 45.2123 86.0615 45.051 86.0893C44.8898 86.1143 44.7328 86.1379 44.5799 86.1602C44.427 86.1796 44.2991 86.1963 44.1963 86.2102C43.9544 86.2408 43.7334 86.2922 43.5333 86.3645C43.3359 86.4368 43.1775 86.541 43.0579 86.6772C42.9412 86.8107 42.8828 86.9886 42.8828 87.2109C42.8828 87.5195 42.9968 87.753 43.2247 87.9114C43.4527 88.0671 43.7431 88.145 44.0962 88.145ZM51.3441 89.1332C50.7243 89.1332 50.1905 88.9928 49.743 88.712C49.2982 88.4285 48.9563 88.0379 48.7172 87.5403C48.4782 87.0428 48.3586 86.4729 48.3586 85.8308C48.3586 85.1803 48.481 84.6063 48.7256 84.1087C48.9702 83.6083 49.3149 83.2178 49.7597 82.937C50.2044 82.6563 50.7284 82.5159 51.3316 82.5159C51.8181 82.5159 52.2517 82.6062 52.6326 82.7869C53.0134 82.9648 53.3206 83.215 53.5541 83.5374C53.7904 83.8599 53.9307 84.2366 53.9752 84.6674H52.7618C52.6951 84.3672 52.5422 84.1087 52.3032 83.8919C52.0669 83.675 51.75 83.5666 51.3525 83.5666C51.005 83.5666 50.7006 83.6584 50.4393 83.8418C50.1808 84.0225 49.9793 84.281 49.8347 84.6174C49.6902 84.951 49.6179 85.3457 49.6179 85.8016C49.6179 86.2686 49.6888 86.6717 49.8305 87.0108C49.9723 87.3499 50.1725 87.6126 50.431 87.7989C50.6923 87.9851 50.9994 88.0782 51.3525 88.0782C51.5888 88.0782 51.8028 88.0351 51.9946 87.949C52.1892 87.86 52.3518 87.7335 52.4825 87.5695C52.6159 87.4055 52.709 87.2082 52.7618 86.9774H53.9752C53.9307 87.3916 53.7959 87.7613 53.5708 88.0866C53.3456 88.4118 53.044 88.6676 52.6659 88.8538C52.2907 89.04 51.8501 89.1332 51.3441 89.1332ZM58.0688 89.1332C57.4378 89.1332 56.8943 88.9983 56.4385 88.7287C55.9854 88.4563 55.6351 88.0741 55.3877 87.582C55.1431 87.0872 55.0208 86.5077 55.0208 85.8433C55.0208 85.1873 55.1431 84.6091 55.3877 84.1087C55.6351 83.6083 55.9798 83.2178 56.4218 82.937C56.8665 82.6563 57.3864 82.5159 57.9812 82.5159C58.3426 82.5159 58.6929 82.5756 59.032 82.6952C59.3711 82.8147 59.6755 83.0023 59.9452 83.2581C60.2148 83.5138 60.4275 83.846 60.5831 84.2546C60.7388 84.6605 60.8166 85.1539 60.8166 85.7349V86.1769H55.7254V85.2428H59.5949C59.5949 84.9148 59.5282 84.6243 59.3948 84.3714C59.2613 84.1156 59.0737 83.9141 58.8319 83.7668C58.5928 83.6194 58.312 83.5458 57.9896 83.5458C57.6393 83.5458 57.3336 83.632 57.0723 83.8043C56.8137 83.9739 56.6136 84.1963 56.4718 84.4715C56.3328 84.7439 56.2633 85.0399 56.2633 85.3596V86.0893C56.2633 86.5174 56.3384 86.8815 56.4885 87.1818C56.6414 87.482 56.854 87.7113 57.1265 87.8698C57.3989 88.0254 57.7172 88.1033 58.0813 88.1033C58.3176 88.1033 58.533 88.0699 58.7276 88.0032C58.9222 87.9337 59.0904 87.8308 59.2321 87.6946C59.3739 87.5584 59.4823 87.3902 59.5574 87.1901L60.7374 87.4027C60.6429 87.7502 60.4733 88.0546 60.2287 88.3159C59.9869 88.5744 59.6825 88.776 59.3155 88.9205C58.9514 89.0623 58.5358 89.1332 58.0688 89.1332ZM68.297 82.5993V83.6H64.7987V82.5993H68.297ZM65.7369 81.0648H66.9836V87.1234C66.9836 87.3652 67.0197 87.5473 67.092 87.6696C67.1643 87.7891 67.2574 87.8711 67.3714 87.9156C67.4881 87.9573 67.6146 87.9782 67.7508 87.9782C67.8509 87.9782 67.9385 87.9712 68.0135 87.9573C68.0886 87.9434 68.1469 87.9323 68.1886 87.924L68.4138 88.9539C68.3415 88.9817 68.2387 89.0095 68.1052 89.0373C67.9718 89.0678 67.805 89.0845 67.6049 89.0873C67.2769 89.0929 66.9711 89.0345 66.6876 88.9122C66.404 88.7899 66.1747 88.6008 65.9996 88.3451C65.8244 88.0894 65.7369 87.7683 65.7369 87.3819V81.0648ZM72.3052 89.1332C71.7047 89.1332 71.1807 88.9956 70.7332 88.7204C70.2856 88.4452 69.9382 88.0602 69.6908 87.5654C69.4434 87.0706 69.3197 86.4924 69.3197 85.8308C69.3197 85.1664 69.4434 84.5854 69.6908 84.0878C69.9382 83.5903 70.2856 83.2039 70.7332 82.9287C71.1807 82.6535 71.7047 82.5159 72.3052 82.5159C72.9056 82.5159 73.4296 82.6535 73.8771 82.9287C74.3247 83.2039 74.6722 83.5903 74.9196 84.0878C75.167 84.5854 75.2907 85.1664 75.2907 85.8308C75.2907 86.4924 75.167 87.0706 74.9196 87.5654C74.6722 88.0602 74.3247 88.4452 73.8771 88.7204C73.4296 88.9956 72.9056 89.1332 72.3052 89.1332ZM72.3093 88.0866C72.6985 88.0866 73.021 87.9837 73.2767 87.778C73.5324 87.5723 73.7215 87.2985 73.8438 86.9566C73.9689 86.6147 74.0314 86.238 74.0314 85.8266C74.0314 85.418 73.9689 85.0427 73.8438 84.7008C73.7215 84.3561 73.5324 84.0795 73.2767 83.871C73.021 83.6625 72.6985 83.5583 72.3093 83.5583C71.9174 83.5583 71.5921 83.6625 71.3336 83.871C71.0779 84.0795 70.8875 84.3561 70.7624 84.7008C70.6401 85.0427 70.5789 85.418 70.5789 85.8266C70.5789 86.238 70.6401 86.6147 70.7624 86.9566C70.8875 87.2985 71.0779 87.5723 71.3336 87.778C71.5921 87.9837 71.9174 88.0866 72.3093 88.0866ZM84.5474 82.7077C84.5029 82.3129 84.3194 82.0072 83.997 81.7903C83.6745 81.5707 83.2687 81.4609 82.7794 81.4609C82.4292 81.4609 82.1262 81.5165 81.8704 81.6277C81.6147 81.7361 81.4159 81.8862 81.2742 82.0781C81.1352 82.2671 81.0657 82.4825 81.0657 82.7244C81.0657 82.9273 81.1129 83.1024 81.2074 83.2497C81.3047 83.3971 81.4312 83.5208 81.5869 83.6208C81.7453 83.7181 81.9149 83.8001 82.0956 83.8669C82.2763 83.9308 82.45 83.9836 82.6168 84.0253L83.4507 84.2421C83.7232 84.3088 84.0025 84.3992 84.2888 84.5132C84.5752 84.6271 84.8406 84.7772 85.0853 84.9635C85.3299 85.1497 85.5272 85.3804 85.6774 85.6556C85.8302 85.9308 85.9067 86.2603 85.9067 86.6439C85.9067 87.1275 85.7816 87.557 85.5314 87.9323C85.284 88.3076 84.924 88.6036 84.4515 88.8204C83.9817 89.0373 83.4132 89.1457 82.7461 89.1457C82.1067 89.1457 81.5535 89.0442 81.0865 88.8413C80.6195 88.6384 80.254 88.3507 79.9899 87.9782C79.7258 87.6029 79.5799 87.1581 79.5521 86.6439H80.8447C80.8697 86.9524 80.9698 87.2096 81.1449 87.4153C81.3228 87.6182 81.5494 87.7697 81.8246 87.8698C82.1025 87.967 82.4069 88.0157 82.7377 88.0157C83.1019 88.0157 83.4257 87.9587 83.7093 87.8447C83.9956 87.728 84.2207 87.5668 84.3847 87.361C84.5488 87.1526 84.6308 86.9093 84.6308 86.6314C84.6308 86.3784 84.5585 86.1713 84.4139 86.0101C84.2722 85.8488 84.079 85.7154 83.8343 85.6098C83.5925 85.5041 83.3187 85.411 83.0129 85.3304L82.0039 85.0552C81.32 84.869 80.778 84.5952 80.3777 84.2338C79.9802 83.8724 79.7814 83.3943 79.7814 82.7994C79.7814 82.3074 79.9148 81.8779 80.1817 81.511C80.4486 81.144 80.8099 80.8591 81.2658 80.6562C81.7217 80.4505 82.236 80.3476 82.8086 80.3476C83.3868 80.3476 83.8969 80.4491 84.3389 80.652C84.7836 80.8549 85.1339 81.1343 85.3896 81.4901C85.6454 81.8432 85.7788 82.249 85.7899 82.7077H84.5474ZM90.3359 82.5993V83.6H86.8376V82.5993H90.3359ZM87.7757 81.0648H89.0225V87.1234C89.0225 87.3652 89.0586 87.5473 89.1309 87.6696C89.2032 87.7891 89.2963 87.8711 89.4103 87.9156C89.527 87.9573 89.6535 87.9782 89.7897 87.9782C89.8898 87.9782 89.9773 87.9712 90.0524 87.9573C90.1274 87.9434 90.1858 87.9323 90.2275 87.924L90.4527 88.9539C90.3804 88.9817 90.2776 89.0095 90.1441 89.0373C90.0107 89.0678 89.8439 89.0845 89.6438 89.0873C89.3157 89.0929 89.01 89.0345 88.7264 88.9122C88.4429 88.7899 88.2136 88.6008 88.0384 88.3451C87.8633 88.0894 87.7757 87.7683 87.7757 87.3819V81.0648ZM93.5789 89.1457C93.1731 89.1457 92.8061 89.0706 92.4781 88.9205C92.1501 88.7676 91.8902 88.5466 91.6984 88.2575C91.5094 87.9684 91.4148 87.614 91.4148 87.1943C91.4148 86.8329 91.4843 86.5355 91.6233 86.3019C91.7623 86.0684 91.9499 85.8836 92.1862 85.7474C92.4225 85.6112 92.6866 85.5083 92.9785 85.4388C93.2704 85.3693 93.5678 85.3165 93.8708 85.2804C94.2544 85.2359 94.5657 85.1998 94.8048 85.172C95.0439 85.1414 95.2176 85.0927 95.326 85.026C95.4344 84.9593 95.4886 84.8509 95.4886 84.7008V84.6716C95.4886 84.3074 95.3858 84.0253 95.1801 83.8252C94.9771 83.625 94.6741 83.5249 94.2711 83.5249C93.8513 83.5249 93.5205 83.6181 93.2787 83.8043C93.0396 83.9878 92.8742 84.1921 92.7825 84.4172L91.6108 84.1504C91.7498 83.7612 91.9527 83.4471 92.2196 83.208C92.4892 82.9662 92.7992 82.7911 93.1494 82.6827C93.4997 82.5715 93.868 82.5159 94.2544 82.5159C94.5101 82.5159 94.7812 82.5465 95.0675 82.6076C95.3566 82.666 95.6262 82.7744 95.8764 82.9328C96.1294 83.0913 96.3365 83.3178 96.4977 83.6125C96.6589 83.9044 96.7395 84.2838 96.7395 84.7508V89.0039H95.522V88.1283H95.4719C95.3913 88.2895 95.2704 88.4479 95.1092 88.6036C94.948 88.7593 94.7409 88.8885 94.4879 88.9914C94.2349 89.0942 93.9319 89.1457 93.5789 89.1457ZM93.8499 88.145C94.1946 88.145 94.4893 88.0768 94.7339 87.9406C94.9813 87.8044 95.1689 87.6265 95.2968 87.4069C95.4275 87.1845 95.4928 86.9469 95.4928 86.6939V85.8683C95.4483 85.9128 95.3621 85.9545 95.2343 85.9934C95.1092 86.0295 94.966 86.0615 94.8048 86.0893C94.6436 86.1143 94.4865 86.1379 94.3336 86.1602C94.1807 86.1796 94.0529 86.1963 93.95 86.2102C93.7082 86.2408 93.4872 86.2922 93.287 86.3645C93.0897 86.4368 92.9312 86.541 92.8117 86.6772C92.6949 86.8107 92.6366 86.9886 92.6366 87.2109C92.6366 87.5195 92.7505 87.753 92.9785 87.9114C93.2064 88.0671 93.4969 88.145 93.8499 88.145ZM98.9589 91.4056C98.7726 91.4056 98.603 91.3904 98.4501 91.3598C98.2973 91.332 98.1833 91.3014 98.1082 91.268L98.4085 90.2465C98.6364 90.3076 98.8393 90.334 99.0172 90.3257C99.1951 90.3174 99.3522 90.2506 99.4884 90.1256C99.6274 90.0005 99.7497 89.7961 99.8553 89.5126L100.01 89.0873L97.6662 82.5993H99.0005L100.623 87.5695H100.689L102.311 82.5993H103.65L101.01 89.8587C100.888 90.1923 100.732 90.4744 100.543 90.7051C100.354 90.9386 100.129 91.1138 99.8678 91.2305C99.6065 91.3473 99.3035 91.4056 98.9589 91.4056Z" fill="#424242"/>
</g>
<defs>
<filter id="filter0_d_4438_45505" x="-1.5" y="0.597656" width="137.672" height="127.719" filterUnits="userSpaceOnUse" color-interpolation-filters="sRGB">
<feFlood flood-opacity="0" result="BackgroundImageFix"/>
<feColorMatrix in="SourceAlpha" type="matrix" values="0 0 0 0 0 0 0 0 0 0 0 0 0 0 0 0 0 0 127 0" result="hardAlpha"/>
<feOffset/>
<feGaussianBlur stdDeviation="2.5"/>
<feComposite in2="hardAlpha" operator="out"/>
<feColorMatrix type="matrix" values="0 0 0 0 0 0 0 0 0 0 0 0 0 0 0 0 0 0 0.18 0"/>
<feBlend mode="normal" in2="BackgroundImageFix" result="effect1_dropShadow_4438_45505"/>
<feBlend mode="normal" in="SourceGraphic" in2="effect1_dropShadow_4438_45505" result="shape"/>
</filter>
<clipPath id="clip0_4438_45505">
<rect width="28" height="28" fill="white" transform="translate(53.4995 39)"/>
</clipPath>
</defs>
</svg>
