<svg width="139" height="129" viewBox="0 0 139 129" fill="none" xmlns="http://www.w3.org/2000/svg">
<g filter="url(#filter0_d_0_1)">
<rect x="5.82812" y="5.59766" width="127.672" height="117.72" rx="6.84941" fill="white" shape-rendering="crispEdges"/>
<rect x="6.32812" y="6.09766" width="126.672" height="116.72" rx="6.34941" stroke="#CBD5E1" stroke-opacity="0.5" shape-rendering="crispEdges"/>
<g clip-path="url(#clip0_0_1)">
<path d="M68.0996 44.7491C68.0996 45.3377 67.9115 45.8792 67.5921 46.326L68.8696 49.0116C69.2983 48.9213 69.7446 48.8741 70.1996 48.8741C71.779 48.8741 73.2183 49.4456 74.3252 50.3866L77.9171 47.7999C77.9084 47.701 77.8996 47.6022 77.8996 47.4991C77.8996 45.9823 79.1552 44.7491 80.6996 44.7491C82.244 44.7491 83.4996 45.9823 83.4996 47.4991C83.4996 49.0159 82.244 50.2491 80.6996 50.2491C80.2971 50.2491 79.9165 50.1674 79.5708 50.017L75.9833 52.6038C76.3158 53.3557 76.4996 54.1893 76.4996 55.0616C76.4996 55.7319 76.3902 56.3807 76.189 56.9866L79.339 58.8428C79.7415 58.6237 80.2052 58.4991 80.6996 58.4991C82.244 58.4991 83.4996 59.7323 83.4996 61.2491C83.4996 62.7659 82.244 63.9991 80.6996 63.9991C79.1552 63.9991 77.8996 62.7659 77.8996 61.2491V61.2018L74.7452 59.3413C73.599 60.5186 71.9846 61.2491 70.1996 61.2491C67.2027 61.2491 64.6915 59.1909 64.0571 56.4366H60.7233C60.2377 57.2573 59.3365 57.8116 58.2996 57.8116C56.7552 57.8116 55.4996 56.5784 55.4996 55.0616C55.4996 53.5448 56.7552 52.3116 58.2996 52.3116C59.3365 52.3116 60.2421 52.8659 60.7233 53.6866H64.0527C64.3808 52.2686 65.2033 51.0397 66.3321 50.176L65.0546 47.4905C63.624 47.3659 62.4996 46.1885 62.4996 44.7491C62.4996 43.2323 63.7552 41.9991 65.2996 41.9991C66.844 41.9991 68.0996 43.2323 68.0996 44.7491ZM70.1996 57.1241C70.7566 57.1241 71.2907 56.9068 71.6845 56.52C72.0784 56.1332 72.2996 55.6086 72.2996 55.0616C72.2996 54.5146 72.0784 53.99 71.6845 53.6032C71.2907 53.2164 70.7566 52.9991 70.1996 52.9991C69.6426 52.9991 69.1085 53.2164 68.7147 53.6032C68.3208 53.99 68.0996 54.5146 68.0996 55.0616C68.0996 55.6086 68.3208 56.1332 68.7147 56.52C69.1085 56.9068 69.6426 57.1241 70.1996 57.1241Z" fill="#424242"/>
</g>
<path d="M55.199 82.7094C55.1545 82.3147 54.9711 82.0089 54.6486 81.7921C54.3262 81.5725 53.9203 81.4627 53.4311 81.4627C53.0808 81.4627 52.7778 81.5183 52.5221 81.6295C52.2663 81.7379 52.0676 81.888 51.9258 82.0798C51.7868 82.2688 51.7173 82.4843 51.7173 82.7261C51.7173 82.929 51.7646 83.1042 51.8591 83.2515C51.9564 83.3988 52.0829 83.5225 52.2385 83.6226C52.397 83.7199 52.5665 83.8019 52.7472 83.8686C52.9279 83.9325 53.1017 83.9854 53.2684 84.0271L54.1024 84.2439C54.3748 84.3106 54.6542 84.4009 54.9405 84.5149C55.2268 84.6289 55.4923 84.779 55.7369 84.9652C55.9815 85.1515 56.1789 85.3822 56.329 85.6574C56.4819 85.9326 56.5583 86.262 56.5583 86.6456C56.5583 87.1293 56.4332 87.5588 56.1831 87.9341C55.9357 88.3093 55.5757 88.6054 55.1031 88.8222C54.6333 89.039 54.0649 89.1474 53.3977 89.1474C52.7584 89.1474 52.2052 89.046 51.7382 88.8431C51.2712 88.6401 50.9056 88.3524 50.6415 87.9799C50.3775 87.6047 50.2315 87.1599 50.2037 86.6456H51.4963C51.5213 86.9542 51.6214 87.2113 51.7965 87.417C51.9745 87.6199 52.201 87.7714 52.4762 87.8715C52.7542 87.9688 53.0586 88.0175 53.3894 88.0175C53.7535 88.0175 54.0774 87.9605 54.3609 87.8465C54.6472 87.7297 54.8724 87.5685 55.0364 87.3628C55.2004 87.1543 55.2824 86.9111 55.2824 86.6331C55.2824 86.3802 55.2101 86.1731 55.0656 86.0118C54.9238 85.8506 54.7306 85.7172 54.486 85.6115C54.2442 85.5059 53.9703 85.4128 53.6646 85.3322L52.6555 85.057C51.9717 84.8707 51.4296 84.5969 51.0293 84.2355C50.6318 83.8742 50.4331 83.396 50.4331 82.8012C50.4331 82.3091 50.5665 81.8797 50.8333 81.5127C51.1002 81.1458 51.4616 80.8609 51.9175 80.658C52.3734 80.4522 52.8876 80.3494 53.4602 80.3494C54.0384 80.3494 54.5485 80.4509 54.9905 80.6538C55.4353 80.8567 55.7855 81.1361 56.0413 81.4919C56.297 81.8449 56.4305 82.2508 56.4416 82.7094H55.199ZM60.6957 89.1349C60.0953 89.1349 59.5713 88.9973 59.1237 88.7221C58.6762 88.4469 58.3287 88.0619 58.0813 87.5671C57.8339 87.0723 57.7102 86.4941 57.7102 85.8325C57.7102 85.1682 57.8339 84.5872 58.0813 84.0896C58.3287 83.592 58.6762 83.2056 59.1237 82.9304C59.5713 82.6552 60.0953 82.5176 60.6957 82.5176C61.2961 82.5176 61.8201 82.6552 62.2677 82.9304C62.7152 83.2056 63.0627 83.592 63.3101 84.0896C63.5575 84.5872 63.6812 85.1682 63.6812 85.8325C63.6812 86.4941 63.5575 87.0723 63.3101 87.5671C63.0627 88.0619 62.7152 88.4469 62.2677 88.7221C61.8201 88.9973 61.2961 89.1349 60.6957 89.1349ZM60.6999 88.0883C61.089 88.0883 61.4115 87.9855 61.6672 87.7798C61.923 87.5741 62.112 87.3003 62.2343 86.9584C62.3594 86.6164 62.422 86.2398 62.422 85.8284C62.422 85.4197 62.3594 85.0445 62.2343 84.7026C62.112 84.3579 61.923 84.0813 61.6672 83.8728C61.4115 83.6643 61.089 83.5601 60.6999 83.5601C60.3079 83.5601 59.9827 83.6643 59.7242 83.8728C59.4684 84.0813 59.278 84.3579 59.1529 84.7026C59.0306 85.0445 58.9694 85.4197 58.9694 85.8284C58.9694 86.2398 59.0306 86.6164 59.1529 86.9584C59.278 87.3003 59.4684 87.5741 59.7242 87.7798C59.9827 87.9855 60.3079 88.0883 60.6999 88.0883ZM67.7706 89.1349C67.1507 89.1349 66.617 88.9945 66.1695 88.7138C65.7247 88.4303 65.3828 88.0397 65.1437 87.5421C64.9047 87.0445 64.7851 86.4747 64.7851 85.8325C64.7851 85.1821 64.9074 84.608 65.1521 84.1105C65.3967 83.6101 65.7414 83.2195 66.1861 82.9388C66.6309 82.658 67.1549 82.5176 67.7581 82.5176C68.2446 82.5176 68.6782 82.608 69.0591 82.7887C69.4399 82.9666 69.747 83.2168 69.9806 83.5392C70.2168 83.8617 70.3572 84.2383 70.4017 84.6692H69.1883C69.1216 84.369 68.9687 84.1105 68.7296 83.8936C68.4934 83.6768 68.1765 83.5684 67.779 83.5684C67.4315 83.5684 67.1271 83.6601 66.8658 83.8436C66.6073 84.0243 66.4057 84.2828 66.2612 84.6192C66.1166 84.9527 66.0444 85.3475 66.0444 85.8033C66.0444 86.2704 66.1153 86.6734 66.257 87.0126C66.3988 87.3517 66.5989 87.6144 66.8575 87.8006C67.1188 87.9869 67.4259 88.08 67.779 88.08C68.0152 88.08 68.2293 88.0369 68.4211 87.9507C68.6157 87.8618 68.7783 87.7353 68.9089 87.5713C69.0424 87.4073 69.1355 87.2099 69.1883 86.9792H70.4017C70.3572 87.3934 70.2224 87.7631 69.9972 88.0883C69.7721 88.4136 69.4705 88.6693 69.0924 88.8556C68.7171 89.0418 68.2765 89.1349 67.7706 89.1349ZM71.7349 89.0057V82.601H72.9817V89.0057H71.7349ZM72.3646 81.6128C72.1477 81.6128 71.9615 81.5405 71.8058 81.396C71.6529 81.2487 71.5765 81.0735 71.5765 80.8706C71.5765 80.6649 71.6529 80.4898 71.8058 80.3452C71.9615 80.1979 72.1477 80.1242 72.3646 80.1242C72.5814 80.1242 72.7663 80.1979 72.9191 80.3452C73.0748 80.4898 73.1526 80.6649 73.1526 80.8706C73.1526 81.0735 73.0748 81.2487 72.9191 81.396C72.7663 81.5405 72.5814 81.6128 72.3646 81.6128ZM76.5228 89.1474C76.1169 89.1474 75.75 89.0724 75.422 88.9223C75.094 88.7694 74.8341 88.5484 74.6423 88.2593C74.4532 87.9702 74.3587 87.6158 74.3587 87.196C74.3587 86.8347 74.4282 86.5372 74.5672 86.3037C74.7062 86.0702 74.8938 85.8854 75.1301 85.7491C75.3664 85.6129 75.6305 85.5101 75.9224 85.4406C76.2142 85.3711 76.5117 85.3183 76.8147 85.2821C77.1983 85.2377 77.5096 85.2015 77.7487 85.1737C77.9877 85.1431 78.1615 85.0945 78.2699 85.0278C78.3783 84.9611 78.4325 84.8527 78.4325 84.7026V84.6734C78.4325 84.3092 78.3297 84.0271 78.124 83.8269C77.921 83.6268 77.618 83.5267 77.215 83.5267C76.7952 83.5267 76.4644 83.6198 76.2226 83.8061C75.9835 83.9895 75.8181 84.1938 75.7264 84.419L74.5547 84.1522C74.6937 83.763 74.8966 83.4489 75.1635 83.2098C75.4331 82.968 75.7431 82.7928 76.0933 82.6844C76.4436 82.5732 76.8119 82.5176 77.1983 82.5176C77.454 82.5176 77.7251 82.5482 78.0114 82.6094C78.3005 82.6677 78.5701 82.7762 78.8203 82.9346C79.0732 83.0931 79.2803 83.3196 79.4416 83.6143C79.6028 83.9061 79.6834 84.2856 79.6834 84.7526V89.0057H78.4659V88.13H78.4158C78.3352 88.2913 78.2143 88.4497 78.0531 88.6054C77.8918 88.761 77.6847 88.8903 77.4318 88.9932C77.1788 89.096 76.8758 89.1474 76.5228 89.1474ZM76.7938 88.1467C77.1385 88.1467 77.4332 88.0786 77.6778 87.9424C77.9252 87.8062 78.1128 87.6283 78.2407 87.4087C78.3714 87.1863 78.4367 86.9486 78.4367 86.6957V85.8701C78.3922 85.9145 78.306 85.9562 78.1782 85.9952C78.0531 86.0313 77.9099 86.0633 77.7487 86.0911C77.5875 86.1161 77.4304 86.1397 77.2775 86.1619C77.1246 86.1814 76.9967 86.1981 76.8939 86.212C76.6521 86.2426 76.4311 86.294 76.2309 86.3663C76.0335 86.4385 75.8751 86.5428 75.7556 86.679C75.6388 86.8124 75.5804 86.9903 75.5804 87.2127C75.5804 87.5213 75.6944 87.7548 75.9224 87.9132C76.1503 88.0689 76.4408 88.1467 76.7938 88.1467ZM82.5907 80.4661V89.0057H81.344V80.4661H82.5907ZM89.0673 84.1647L87.9373 84.3648C87.8901 84.2203 87.815 84.0827 87.7121 83.952C87.6121 83.8214 87.4759 83.7143 87.3035 83.6309C87.1312 83.5475 86.9157 83.5059 86.6572 83.5059C86.3042 83.5059 86.0095 83.5851 85.7732 83.7435C85.537 83.8992 85.4188 84.1007 85.4188 84.3481C85.4188 84.5622 85.498 84.7345 85.6565 84.8652C85.8149 84.9958 86.0707 85.1028 86.4237 85.1862L87.4411 85.4197C88.0304 85.5559 88.4696 85.7658 88.7587 86.0494C89.0478 86.3329 89.1924 86.7012 89.1924 87.1543C89.1924 87.5379 89.0812 87.8799 88.8588 88.1801C88.6392 88.4775 88.332 88.711 87.9373 88.8806C87.5454 89.0501 87.0909 89.1349 86.5738 89.1349C85.8566 89.1349 85.2715 88.982 84.8184 88.6763C84.3653 88.3677 84.0873 87.9299 83.9844 87.3628L85.1895 87.1793C85.2645 87.4935 85.4188 87.7311 85.6523 87.8924C85.8858 88.0508 86.1902 88.13 86.5655 88.13C86.9741 88.13 87.3007 88.0453 87.5454 87.8757C87.79 87.7033 87.9123 87.4935 87.9123 87.2461C87.9123 87.0459 87.8372 86.8777 87.6871 86.7415C87.5398 86.6053 87.3132 86.5025 87.0075 86.433L85.9234 86.1953C85.3257 86.0591 84.8837 85.8423 84.5974 85.5448C84.3139 85.2474 84.1721 84.8707 84.1721 84.4148C84.1721 84.0368 84.2777 83.706 84.489 83.4225C84.7002 83.1389 84.9921 82.9179 85.3646 82.7595C85.7371 82.5982 86.1638 82.5176 86.6447 82.5176C87.3369 82.5176 87.8817 82.6677 88.2792 82.968C88.6767 83.2654 88.9394 83.6643 89.0673 84.1647Z" fill="#424242"/>
</g>
<defs>
<filter id="filter0_d_0_1" x="0.828125" y="0.597656" width="137.672" height="127.72" filterUnits="userSpaceOnUse" color-interpolation-filters="sRGB">
<feFlood flood-opacity="0" result="BackgroundImageFix"/>
<feColorMatrix in="SourceAlpha" type="matrix" values="0 0 0 0 0 0 0 0 0 0 0 0 0 0 0 0 0 0 127 0" result="hardAlpha"/>
<feOffset/>
<feGaussianBlur stdDeviation="2.5"/>
<feComposite in2="hardAlpha" operator="out"/>
<feColorMatrix type="matrix" values="0 0 0 0 0 0 0 0 0 0 0 0 0 0 0 0 0 0 0.18 0"/>
<feBlend mode="normal" in2="BackgroundImageFix" result="effect1_dropShadow_0_1"/>
<feBlend mode="normal" in="SourceGraphic" in2="effect1_dropShadow_0_1" result="shape"/>
</filter>
<clipPath id="clip0_0_1">
<rect width="28" height="22" fill="white" transform="translate(55.4996 41.9991)"/>
</clipPath>
</defs>
</svg>
