<svg width="137" height="129" viewBox="0 0 137 129" fill="none" xmlns="http://www.w3.org/2000/svg">
<g filter="url(#filter0_d_4438_45473)">
<rect x="5.82812" y="5.4375" width="127.672" height="117.72" rx="6.84941" fill="white" shape-rendering="crispEdges"/>
<rect x="6.32812" y="5.9375" width="126.672" height="116.72" rx="6.34941" stroke="#CBD5E1" stroke-opacity="0.5" shape-rendering="crispEdges"/>
<g clip-path="url(#clip0_4438_45473)">
<path d="M68.7995 42.3746V58.5308L59.6995 56.8121V42.4906C59.6995 41.6398 60.4783 40.991 61.3314 41.1328L68.7995 42.3746ZM59.4239 58.4062L69.4995 60.3871L79.5751 58.4062C80.2314 58.2773 80.6995 57.7144 80.6995 57.057V42.2371L81.8239 42.018C82.6901 41.8461 83.4995 42.4949 83.4995 43.3629V59.1238C83.4995 59.7812 83.027 60.3441 82.3751 60.473L69.4995 62.9996L56.6239 60.4687C55.972 60.3441 55.4995 59.7769 55.4995 59.1238V43.3629C55.4995 42.4949 56.3089 41.8461 57.1751 42.018L58.2995 42.2371V57.0613C58.2995 57.7187 58.772 58.2816 59.4239 58.4105V58.4062ZM70.1995 58.5308V42.3746L77.6676 41.1328C78.5208 40.991 79.2995 41.6398 79.2995 42.4906V56.8121L70.1995 58.5308Z" fill="#424242"/>
</g>
<path d="M60.1181 82.5475C60.0736 82.1528 59.8901 81.847 59.5677 81.6302C59.2452 81.4106 58.8394 81.3008 58.3501 81.3008C57.9999 81.3008 57.6969 81.3564 57.4411 81.4676C57.1854 81.576 56.9866 81.7261 56.8449 81.9179C56.7059 82.1069 56.6364 82.3224 56.6364 82.5642C56.6364 82.7671 56.6837 82.9423 56.7782 83.0896C56.8755 83.2369 57.0019 83.3606 57.1576 83.4607C57.3161 83.558 57.4856 83.64 57.6663 83.7067C57.847 83.7706 58.0207 83.8234 58.1875 83.8651L59.0215 84.082C59.2939 84.1487 59.5732 84.239 59.8596 84.353C60.1459 84.467 60.4114 84.6171 60.656 84.8033C60.9006 84.9896 61.098 85.2203 61.2481 85.4955C61.401 85.7707 61.4774 86.1001 61.4774 86.4837C61.4774 86.9674 61.3523 87.3969 61.1021 87.7721C60.8547 88.1474 60.4947 88.4435 60.0222 88.6603C59.5524 88.8771 58.9839 88.9855 58.3168 88.9855C57.6774 88.9855 57.1242 88.8841 56.6572 88.6811C56.1902 88.4782 55.8247 88.1905 55.5606 87.818C55.2965 87.4427 55.1506 86.998 55.1228 86.4837H56.4154C56.4404 86.7923 56.5405 87.0494 56.7156 87.2551C56.8935 87.458 57.1201 87.6095 57.3953 87.7096C57.6733 87.8069 57.9776 87.8555 58.3084 87.8555C58.6726 87.8555 58.9964 87.7985 59.28 87.6846C59.5663 87.5678 59.7915 87.4066 59.9555 87.2009C60.1195 86.9924 60.2015 86.7492 60.2015 86.4712C60.2015 86.2182 60.1292 86.0111 59.9847 85.8499C59.8429 85.6887 59.6497 85.5553 59.4051 85.4496C59.1632 85.344 58.8894 85.2509 58.5836 85.1703L57.5746 84.8951C56.8907 84.7088 56.3487 84.435 55.9484 84.0736C55.5509 83.7123 55.3521 83.2341 55.3521 82.6393C55.3521 82.1472 55.4856 81.7178 55.7524 81.3508C56.0193 80.9839 56.3807 80.699 56.8365 80.496C57.2924 80.2903 57.8067 80.1875 58.3793 80.1875C58.9575 80.1875 59.4676 80.2889 59.9096 80.4919C60.3544 80.6948 60.7046 80.9742 60.9604 81.33C61.2161 81.683 61.3495 82.0889 61.3607 82.5475H60.1181ZM65.9067 82.4391V83.4398H62.4083V82.4391H65.9067ZM63.3465 80.9047H64.5932V86.9632C64.5932 87.2051 64.6293 87.3871 64.7016 87.5094C64.7739 87.629 64.867 87.711 64.981 87.7555C65.0977 87.7972 65.2242 87.818 65.3604 87.818C65.4605 87.818 65.5481 87.8111 65.6231 87.7972C65.6982 87.7833 65.7565 87.7721 65.7982 87.7638L66.0234 88.7937C65.9511 88.8215 65.8483 88.8493 65.7148 88.8771C65.5814 88.9077 65.4146 88.9244 65.2145 88.9271C64.8865 88.9327 64.5807 88.8743 64.2972 88.752C64.0136 88.6297 63.7843 88.4407 63.6092 88.1849C63.434 87.9292 63.3465 87.6081 63.3465 87.2217V80.9047ZM69.9148 88.973C69.3143 88.973 68.7903 88.8354 68.3428 88.5602C67.8952 88.285 67.5478 87.9 67.3004 87.4052C67.053 86.9104 66.9293 86.3322 66.9293 85.6706C66.9293 85.0062 67.053 84.4253 67.3004 83.9277C67.5478 83.4301 67.8952 83.0437 68.3428 82.7685C68.7903 82.4933 69.3143 82.3557 69.9148 82.3557C70.5152 82.3557 71.0392 82.4933 71.4867 82.7685C71.9343 83.0437 72.2818 83.4301 72.5292 83.9277C72.7766 84.4253 72.9003 85.0062 72.9003 85.6706C72.9003 86.3322 72.7766 86.9104 72.5292 87.4052C72.2818 87.9 71.9343 88.285 71.4867 88.5602C71.0392 88.8354 70.5152 88.973 69.9148 88.973ZM69.9189 87.9264C70.3081 87.9264 70.6306 87.8236 70.8863 87.6179C71.142 87.4122 71.3311 87.1383 71.4534 86.7964C71.5785 86.4545 71.641 86.0779 71.641 85.6664C71.641 85.2578 71.5785 84.8825 71.4534 84.5406C71.3311 84.1959 71.142 83.9193 70.8863 83.7109C70.6306 83.5024 70.3081 83.3981 69.9189 83.3981C69.527 83.3981 69.2017 83.5024 68.9432 83.7109C68.6875 83.9193 68.4971 84.1959 68.372 84.5406C68.2497 84.8825 68.1885 85.2578 68.1885 85.6664C68.1885 86.0779 68.2497 86.4545 68.372 86.7964C68.4971 87.1383 68.6875 87.4122 68.9432 87.6179C69.2017 87.8236 69.527 87.9264 69.9189 87.9264ZM74.2919 88.8438V82.4391H75.4969V83.4565H75.5636C75.6804 83.1118 75.8861 82.8408 76.1808 82.6434C76.4782 82.4433 76.8146 82.3432 77.1898 82.3432C77.2677 82.3432 77.3594 82.346 77.465 82.3515C77.5734 82.3571 77.6582 82.3641 77.7194 82.3724V83.5649C77.6693 83.551 77.5804 83.5357 77.4525 83.5191C77.3246 83.4996 77.1968 83.4899 77.0689 83.4899C76.7742 83.4899 76.5116 83.5524 76.2808 83.6775C76.0529 83.7998 75.8722 83.9708 75.7388 84.1904C75.6053 84.4072 75.5386 84.6546 75.5386 84.9326V88.8438H74.2919ZM79.7813 91.2455C79.595 91.2455 79.4255 91.2302 79.2726 91.1996C79.1197 91.1718 79.0057 91.1412 78.9307 91.1079L79.2309 90.0863C79.4588 90.1475 79.6618 90.1739 79.8397 90.1655C80.0176 90.1572 80.1746 90.0905 80.3108 89.9654C80.4498 89.8403 80.5721 89.636 80.6778 89.3525L80.8321 88.9271L78.4887 82.4391H79.823L81.445 87.4094H81.5117L83.1337 82.4391H84.4722L81.8328 89.6985C81.7105 90.0321 81.5548 90.3143 81.3658 90.545C81.1767 90.7785 80.9516 90.9536 80.6903 91.0704C80.429 91.1871 80.126 91.2455 79.7813 91.2455Z" fill="#424242"/>
</g>
<defs>
<filter id="filter0_d_4438_45473" x="0.828125" y="0.4375" width="137.672" height="127.719" filterUnits="userSpaceOnUse" color-interpolation-filters="sRGB">
<feFlood flood-opacity="0" result="BackgroundImageFix"/>
<feColorMatrix in="SourceAlpha" type="matrix" values="0 0 0 0 0 0 0 0 0 0 0 0 0 0 0 0 0 0 127 0" result="hardAlpha"/>
<feOffset/>
<feGaussianBlur stdDeviation="2.5"/>
<feComposite in2="hardAlpha" operator="out"/>
<feColorMatrix type="matrix" values="0 0 0 0 0 0 0 0 0 0 0 0 0 0 0 0 0 0 0.18 0"/>
<feBlend mode="normal" in2="BackgroundImageFix" result="effect1_dropShadow_4438_45473"/>
<feBlend mode="normal" in="SourceGraphic" in2="effect1_dropShadow_4438_45473" result="shape"/>
</filter>
<clipPath id="clip0_4438_45473">
<rect width="28" height="22" fill="white" transform="translate(55.4995 41)"/>
</clipPath>
</defs>
</svg>
