<svg width="42" height="42" viewBox="0 0 42 42" fill="none" xmlns="http://www.w3.org/2000/svg">
<g filter="url(#filter0_d_2600_28223)">
<rect x="5.0166" y="0.769531" width="32" height="32" rx="4.5" stroke="black" shape-rendering="crispEdges"/>
<path d="M25.6035 22.5048V24.2695H15.6035V22.5048H25.6035ZM23.4607 16.5181C23.4371 17.1004 23.2972 17.6665 23.0533 18.1657C22.8095 18.6649 22.4693 19.0817 22.0632 19.3789C21.6571 19.676 21.1977 19.8442 20.7261 19.8685C20.2545 19.8928 19.7854 19.7724 19.3607 19.5181C18.8711 19.2564 18.4559 18.8202 18.1683 18.2653C17.8808 17.7104 17.7338 17.0621 17.7464 16.4034V9.27394H16.3178V16.5181C16.342 17.3487 16.5241 18.1607 16.8495 18.8882C17.1749 19.6157 17.6344 20.2384 18.1909 20.7058C18.7473 21.1732 19.3849 21.4721 20.0523 21.5785C20.7196 21.6849 21.3979 21.5957 22.0321 21.3181C22.8757 20.9707 23.6077 20.3 24.1215 19.4034C24.6354 18.5068 24.9043 17.4311 24.8892 16.3328V9.27394H23.4607V16.5181ZM23.4607 9.26953H24.8892H23.4607ZM17.7464 9.26953H16.3178H17.7464Z" fill="black"/>
</g>
<defs>
<filter id="filter0_d_2600_28223" x="0.516602" y="0.269531" width="41" height="41" filterUnits="userSpaceOnUse" color-interpolation-filters="sRGB">
<feFlood flood-opacity="0" result="BackgroundImageFix"/>
<feColorMatrix in="SourceAlpha" type="matrix" values="0 0 0 0 0 0 0 0 0 0 0 0 0 0 0 0 0 0 127 0" result="hardAlpha"/>
<feOffset dy="4"/>
<feGaussianBlur stdDeviation="2"/>
<feComposite in2="hardAlpha" operator="out"/>
<feColorMatrix type="matrix" values="0 0 0 0 0 0 0 0 0 0 0 0 0 0 0 0 0 0 0.25 0"/>
<feBlend mode="normal" in2="BackgroundImageFix" result="effect1_dropShadow_2600_28223"/>
<feBlend mode="normal" in="SourceGraphic" in2="effect1_dropShadow_2600_28223" result="shape"/>
</filter>
</defs>
</svg>
