<svg width="230" height="136" viewBox="0 0 230 136" fill="none" xmlns="http://www.w3.org/2000/svg">
<g clip-path="url(#clip0_2864_35670)">
<g clip-path="url(#clip1_2864_35670)">
<g clip-path="url(#clip2_2864_35670)">
<path opacity="0.4" d="M93.5239 44.0234C89.4074 44.0234 86.0605 46.7236 86.0605 50.0447V74.1297C86.0605 77.4508 89.4074 80.1509 93.5239 80.1509H123.377C127.494 80.1509 130.841 77.4508 130.841 74.1297V50.0447C130.841 46.7236 127.494 44.0234 123.377 44.0234H93.5239ZM111.249 55.3133V59.8292H116.847C118.398 59.8292 119.646 60.8359 119.646 62.0872C119.646 63.3385 118.398 64.3452 116.847 64.3452H111.249V68.8611C111.249 70.1124 110.002 71.1191 108.451 71.1191C106.9 71.1191 105.652 70.1124 105.652 68.8611V64.3452H100.054C98.5033 64.3452 97.2555 63.3385 97.2555 62.0872C97.2555 60.8359 98.5033 59.8292 100.054 59.8292H105.652V55.3133C105.652 54.062 106.9 53.0553 108.451 53.0553C110.002 53.0553 111.249 54.062 111.249 55.3133Z" fill="#DCE5F1"/>
<path d="M151.26 47.3906C152.473 47.9175 153.231 48.9336 153.231 50.0438V74.1288C153.231 75.2389 152.473 76.255 151.26 76.7819C150.047 77.3087 148.578 77.2523 147.423 76.6313L130.841 67.7124V56.4601L147.423 47.5412C148.566 46.9296 150.036 46.8638 151.26 47.3906ZM111.25 55.3123V59.8283H116.847C118.398 59.8283 119.646 60.835 119.646 62.0863C119.646 63.3375 118.398 64.3442 116.847 64.3442H111.25V68.8602C111.25 70.1115 110.002 71.1181 108.451 71.1181C106.9 71.1181 105.652 70.1115 105.652 68.8602V64.3442H100.055C98.5036 64.3442 97.2559 63.3375 97.2559 62.0863C97.2559 60.835 98.5036 59.8283 100.055 59.8283H105.652V55.3123C105.652 54.0611 106.9 53.0544 108.451 53.0544C110.002 53.0544 111.25 54.0611 111.25 55.3123Z" fill="#DCE5F1"/>
<path d="M94.5506 82.5767C90.0703 82.5767 86.0848 79.708 84.6376 75.4372L84.5398 75.1155C84.1985 73.9845 84.0555 73.0334 84.0555 72.0818V53L77.266 75.6638C76.3928 78.9973 78.3827 82.4533 81.7213 83.3742L124.997 94.9638C125.538 95.1037 126.078 95.1708 126.61 95.1708C129.397 95.1708 131.944 93.3209 132.658 90.5947L135.179 82.5767H94.5506Z" fill="#DCE5F1"/>
</g>
</g>
</g>
<rect x="0.560547" y="0.5" width="228" height="135" stroke="#DCE5F1"/>
<defs>
<clipPath id="clip0_2864_35670">
<rect x="0.0605469" width="229" height="136" fill="white"/>
</clipPath>
<clipPath id="clip1_2864_35670">
<rect x="0.0605469" width="229" height="136" rx="5" fill="white"/>
</clipPath>
<clipPath id="clip2_2864_35670">
<rect width="76" height="61" fill="white" transform="translate(77.0605 38)"/>
</clipPath>
</defs>
</svg>
