<svg width="137" height="129" viewBox="0 0 137 129" fill="none" xmlns="http://www.w3.org/2000/svg">
<g filter="url(#filter0_d_4438_45460)">
<rect x="5.82812" y="5.71875" width="127.672" height="117.72" rx="6.84941" fill="white" shape-rendering="crispEdges"/>
<rect x="6.32812" y="6.21875" width="126.672" height="116.72" rx="6.34941" stroke="#CBD5E1" stroke-opacity="0.5" shape-rendering="crispEdges"/>
<g clip-path="url(#clip0_4438_45460)">
<path d="M58.6106 44.75C56.8947 44.75 55.4995 45.9832 55.4995 47.5V58.5C55.4995 60.0168 56.8947 61.25 58.6106 61.25H71.0551C72.771 61.25 74.1662 60.0168 74.1662 58.5V47.5C74.1662 45.9832 72.771 44.75 71.0551 44.75H58.6106ZM83.4995 47.5C83.4995 46.993 83.1835 46.5289 82.678 46.2883C82.1724 46.0477 81.5599 46.0734 81.0787 46.357L76.412 49.107L75.7217 49.5152V50.25V55.75V56.4848L76.412 56.893L81.0787 59.643C81.5551 59.9223 82.1676 59.9523 82.678 59.7117C83.1884 59.4711 83.4995 59.007 83.4995 58.5V47.5ZM65.9995 49.9062V51.9688H68.3328C68.9794 51.9688 69.4995 52.4285 69.4995 53C69.4995 53.5715 68.9794 54.0312 68.3328 54.0312H65.9995V56.0938C65.9995 56.6652 65.4794 57.125 64.8328 57.125C64.1863 57.125 63.6662 56.6652 63.6662 56.0938V54.0312H61.3328C60.6863 54.0312 60.1662 53.5715 60.1662 53C60.1662 52.4285 60.6863 51.9688 61.3328 51.9688H63.6662V49.9062C63.6662 49.3348 64.1863 48.875 64.8328 48.875C65.4794 48.875 65.9995 49.3348 65.9995 49.9062Z" fill="#424242"/>
</g>
<path d="M55.1176 80.5855L57.4943 87.5405H57.5902L59.9669 80.5855H61.3596L58.2865 89.125H56.798L53.7249 80.5855H55.1176ZM62.4927 89.125V82.7204H63.7395V89.125H62.4927ZM63.1223 81.7321C62.9055 81.7321 62.7193 81.6599 62.5636 81.5153C62.4107 81.368 62.3343 81.1929 62.3343 80.9899C62.3343 80.7842 62.4107 80.6091 62.5636 80.4646C62.7193 80.3172 62.9055 80.2436 63.1223 80.2436C63.3392 80.2436 63.524 80.3172 63.6769 80.4646C63.8326 80.6091 63.9104 80.7842 63.9104 80.9899C63.9104 81.1929 63.8326 81.368 63.6769 81.5153C63.524 81.6599 63.3392 81.7321 63.1223 81.7321ZM67.8143 89.2501C67.2972 89.2501 66.8358 89.1181 66.4299 88.854C66.0269 88.5871 65.71 88.2077 65.4793 87.7156C65.2513 87.2208 65.1373 86.6274 65.1373 85.9352C65.1373 85.243 65.2527 84.6509 65.4834 84.1589C65.7169 83.6669 66.0366 83.2902 66.4425 83.0289C66.8483 82.7676 67.3084 82.637 67.8226 82.637C68.2201 82.637 68.5398 82.7037 68.7817 82.8371C69.0263 82.9678 69.2153 83.1206 69.3487 83.2958C69.4849 83.4709 69.5906 83.6252 69.6656 83.7586H69.7407V80.5855H70.9874V89.125H69.7699V88.1284H69.6656C69.5906 88.2647 69.4822 88.4203 69.3404 88.5954C69.2014 88.7706 69.0096 88.9235 68.765 89.0541C68.5204 89.1848 68.2035 89.2501 67.8143 89.2501ZM68.0895 88.1868C68.4481 88.1868 68.7511 88.0923 68.9985 87.9033C69.2487 87.7115 69.4377 87.446 69.5656 87.1069C69.6962 86.7677 69.7615 86.373 69.7615 85.9227C69.7615 85.4779 69.6976 85.0887 69.5697 84.7552C69.4419 84.4216 69.2542 84.1617 69.0068 83.9754C68.7594 83.7892 68.4536 83.6961 68.0895 83.6961C67.7142 83.6961 67.4015 83.7934 67.1513 83.9879C66.9011 84.1825 66.7121 84.448 66.5842 84.7844C66.4591 85.1207 66.3966 85.5002 66.3966 85.9227C66.3966 86.3508 66.4605 86.7358 66.5884 87.0777C66.7163 87.4196 66.9053 87.6906 67.1555 87.8908C67.4084 88.0881 67.7198 88.1868 68.0895 88.1868ZM75.5272 89.2543C74.8962 89.2543 74.3527 89.1194 73.8968 88.8498C73.4437 88.5774 73.0935 88.1952 72.8461 87.7031C72.6014 87.2083 72.4791 86.6287 72.4791 85.9644C72.4791 85.3083 72.6014 84.7301 72.8461 84.2298C73.0935 83.7294 73.4382 83.3389 73.8801 83.0581C74.3249 82.7773 74.8447 82.637 75.4396 82.637C75.801 82.637 76.1512 82.6967 76.4904 82.8163C76.8295 82.9358 77.1339 83.1234 77.4035 83.3792C77.6732 83.6349 77.8858 83.9671 78.0415 84.3757C78.1972 84.7816 78.275 85.275 78.275 85.856V86.298H73.1838V85.3639H77.0533C77.0533 85.0359 76.9866 84.7454 76.8531 84.4925C76.7197 84.2367 76.5321 84.0352 76.2902 83.8879C76.0512 83.7405 75.7704 83.6669 75.4479 83.6669C75.0977 83.6669 74.7919 83.7531 74.5306 83.9254C74.2721 84.095 74.0719 84.3174 73.9302 84.5925C73.7912 84.865 73.7217 85.161 73.7217 85.4807V86.2104C73.7217 86.6385 73.7967 87.0026 73.9469 87.3028C74.0997 87.6031 74.3124 87.8324 74.5848 87.9908C74.8572 88.1465 75.1755 88.2243 75.5397 88.2243C75.776 88.2243 75.9914 88.191 76.186 88.1243C76.3806 88.0548 76.5487 87.9519 76.6905 87.8157C76.8323 87.6795 76.9407 87.5113 77.0157 87.3112L78.1958 87.5238C78.1013 87.8713 77.9317 88.1757 77.6871 88.437C77.4452 88.6955 77.1408 88.8971 76.7739 89.0416C76.4097 89.1834 75.9942 89.2543 75.5272 89.2543ZM82.3561 89.2543C81.7556 89.2543 81.2316 89.1167 80.7841 88.8415C80.3366 88.5663 79.9891 88.1813 79.7417 87.6865C79.4943 87.1917 79.3706 86.6135 79.3706 85.9519C79.3706 85.2875 79.4943 84.7065 79.7417 84.2089C79.9891 83.7114 80.3366 83.325 80.7841 83.0498C81.2316 82.7746 81.7556 82.637 82.3561 82.637C82.9565 82.637 83.4805 82.7746 83.928 83.0498C84.3756 83.325 84.7231 83.7114 84.9705 84.2089C85.2179 84.7065 85.3416 85.2875 85.3416 85.9519C85.3416 86.6135 85.2179 87.1917 84.9705 87.6865C84.7231 88.1813 84.3756 88.5663 83.928 88.8415C83.4805 89.1167 82.9565 89.2543 82.3561 89.2543ZM82.3602 88.2077C82.7494 88.2077 83.0719 88.1048 83.3276 87.8991C83.5833 87.6934 83.7724 87.4196 83.8947 87.0777C84.0198 86.7358 84.0823 86.3591 84.0823 85.9477C84.0823 85.5391 84.0198 85.1638 83.8947 84.8219C83.7724 84.4772 83.5833 84.2006 83.3276 83.9921C83.0719 83.7836 82.7494 83.6794 82.3602 83.6794C81.9683 83.6794 81.6431 83.7836 81.3845 83.9921C81.1288 84.2006 80.9384 84.4772 80.8133 84.8219C80.691 85.1638 80.6298 85.5391 80.6298 85.9477C80.6298 86.3591 80.691 86.7358 80.8133 87.0777C80.9384 87.4196 81.1288 87.6934 81.3845 87.8991C81.6431 88.1048 81.9683 88.2077 82.3602 88.2077Z" fill="#424242"/>
</g>
<defs>
<filter id="filter0_d_4438_45460" x="0.828125" y="0.71875" width="137.672" height="127.719" filterUnits="userSpaceOnUse" color-interpolation-filters="sRGB">
<feFlood flood-opacity="0" result="BackgroundImageFix"/>
<feColorMatrix in="SourceAlpha" type="matrix" values="0 0 0 0 0 0 0 0 0 0 0 0 0 0 0 0 0 0 127 0" result="hardAlpha"/>
<feOffset/>
<feGaussianBlur stdDeviation="2.5"/>
<feComposite in2="hardAlpha" operator="out"/>
<feColorMatrix type="matrix" values="0 0 0 0 0 0 0 0 0 0 0 0 0 0 0 0 0 0 0.18 0"/>
<feBlend mode="normal" in2="BackgroundImageFix" result="effect1_dropShadow_4438_45460"/>
<feBlend mode="normal" in="SourceGraphic" in2="effect1_dropShadow_4438_45460" result="shape"/>
</filter>
<clipPath id="clip0_4438_45460">
<rect width="31.3116" height="31.3116" fill="white" transform="translate(54.0083 37.0312)"/>
</clipPath>
</defs>
</svg>
