<svg width="16" height="16" viewBox="0 0 16 16" fill="none" xmlns="http://www.w3.org/2000/svg">
<path d="M9.93437 13.2094C9.2625 14.55 8.52188 15 8 15C7.75313 15 7.45937 14.9 7.14687 14.6562L6.93125 15.2375C6.84063 15.4812 6.69062 15.6969 6.49687 15.8594C6.98438 15.9531 7.48438 16 8 16C12.4187 16 16 12.4187 16 8C16 3.58125 12.4187 0 8 0C3.58125 0 0 3.58125 0 8C0 8.5125 0.046875 9.01562 0.140625 9.50313C0.30625 9.30937 0.51875 9.15938 0.7625 9.06875L1.0625 8.95938C1.01875 8.64688 0.996875 8.32812 0.996875 8.00313C0.996875 7.30938 1.09688 6.6375 1.2875 6.00313H4.125C4.04688 6.60313 4.00313 7.23125 4 7.87813L5.00625 7.50625C5.02187 6.98438 5.06563 6.48125 5.13438 6.00313H10.8656C10.9531 6.63438 11 7.30625 11 8.00313C11 8.7 10.9531 9.37187 10.8656 10.0031H8.8625L8.49375 11.0031H10.6875C10.5031 11.8469 10.2437 12.5938 9.93437 13.2125V13.2094ZM6.06563 2.79063C6.7375 1.45 7.47813 1 8 1C8.52188 1 9.2625 1.45 9.93437 2.79063C10.2437 3.40938 10.5031 4.15625 10.6875 5H5.3125C5.49687 4.15625 5.75625 3.40938 6.06563 2.79063ZM12 8C12 7.30937 11.9563 6.64062 11.875 6H14.7125C14.9 6.63438 15.0031 7.30625 15.0031 8C15.0031 8.69375 14.9031 9.36563 14.7125 10H11.875C11.9563 9.35938 12 8.69063 12 8ZM11.7094 5C11.4094 3.5125 10.8906 2.25 10.2344 1.36563C12.0406 1.975 13.5156 3.29688 14.325 5H11.7094ZM1.675 5C2.48438 3.29688 3.95937 1.97187 5.76562 1.36563C5.10938 2.25 4.59375 3.51562 4.29063 5H1.675ZM11.7094 11H14.3281C13.5188 12.7031 12.0437 14.0281 10.2375 14.6344C10.8938 13.75 11.4125 12.4844 11.7125 11H11.7094ZM8.46875 8.17188C8.5375 7.9875 8.49062 7.78437 8.35312 7.64687C8.21562 7.50938 8.00937 7.4625 7.82812 7.53125L1.10938 10.0063C0.915625 10.0781 0.7875 10.2594 0.78125 10.4656C0.775 10.6719 0.9 10.8594 1.09063 10.9375L3.40313 11.8906L0.146875 15.1469C-0.046875 15.3406 -0.046875 15.6594 0.146875 15.8531C0.340625 16.0469 0.659375 16.0469 0.853125 15.8531L4.10938 12.5969L5.0625 14.9094C5.14062 15.1 5.32812 15.2219 5.53438 15.2188C5.74063 15.2156 5.92188 15.0844 5.99375 14.8906L8.46875 8.17188ZM4.47813 11.25L2.65937 10.5L7.15625 8.84375L5.5 13.3406L4.75 11.5219C4.7 11.4 4.6 11.3 4.47813 11.25Z" fill="white"/>
</svg>
