<svg width="139" height="129" viewBox="0 0 139 129" fill="none" xmlns="http://www.w3.org/2000/svg">
<g filter="url(#filter0_d_0_1)">
<rect x="5.5" y="5.4375" width="127.672" height="117.72" rx="6.84941" fill="white" shape-rendering="crispEdges"/>
<rect x="6" y="5.9375" width="126.672" height="116.72" rx="6.34941" stroke="#CBD5E1" stroke-opacity="0.5" shape-rendering="crispEdges"/>
<g clip-path="url(#clip0_0_1)">
<path d="M61.0996 44.0928C61.3781 44.0928 61.6451 44.2015 61.8421 44.3949C62.039 44.5883 62.1496 44.8506 62.1496 45.1241C62.1496 45.3976 62.039 45.6599 61.8421 45.8533C61.6451 46.0467 61.3781 46.1553 61.0996 46.1553C60.8211 46.1553 60.5541 46.0467 60.3571 45.8533C60.1602 45.6599 60.0496 45.3976 60.0496 45.1241C60.0496 44.8506 60.1602 44.5883 60.3571 44.3949C60.5541 44.2015 60.8211 44.0928 61.0996 44.0928ZM62.4996 48.2737C63.7377 47.7452 64.5996 46.5334 64.5996 45.1241C64.5996 43.2249 63.0333 41.6866 61.0996 41.6866C59.1658 41.6866 57.5996 43.2249 57.5996 45.1241C57.5996 46.5334 58.4615 47.7452 59.6996 48.2737V50.6241H56.8996C56.1252 50.6241 55.4996 51.2385 55.4996 51.9991C55.4996 52.7596 56.1252 53.3741 56.8996 53.3741H68.0996V55.7245C66.8615 56.253 65.9996 57.4647 65.9996 58.8741C65.9996 60.7733 67.5658 62.3116 69.4996 62.3116C71.4333 62.3116 72.9996 60.7733 72.9996 58.8741C72.9996 57.4647 72.1377 56.253 70.8996 55.7245V53.3741H82.0996C82.874 53.3741 83.4996 52.7596 83.4996 51.9991C83.4996 51.2385 82.874 50.6241 82.0996 50.6241H79.2996V48.2737C80.5377 47.7452 81.3996 46.5334 81.3996 45.1241C81.3996 43.2249 79.8333 41.6866 77.8996 41.6866C75.9658 41.6866 74.3996 43.2249 74.3996 45.1241C74.3996 46.5334 75.2615 47.7452 76.4996 48.2737V50.6241H62.4996V48.2737ZM76.8496 45.1241C76.8496 44.8506 76.9602 44.5883 77.1571 44.3949C77.3541 44.2015 77.6211 44.0928 77.8996 44.0928C78.1781 44.0928 78.4451 44.2015 78.6421 44.3949C78.839 44.5883 78.9496 44.8506 78.9496 45.1241C78.9496 45.3976 78.839 45.6599 78.6421 45.8533C78.4451 46.0467 78.1781 46.1553 77.8996 46.1553C77.6211 46.1553 77.3541 46.0467 77.1571 45.8533C76.9602 45.6599 76.8496 45.3976 76.8496 45.1241ZM69.4996 57.8428C69.7781 57.8428 70.0451 57.9515 70.2421 58.1449C70.439 58.3383 70.5496 58.6006 70.5496 58.8741C70.5496 59.1476 70.439 59.4099 70.2421 59.6033C70.0451 59.7967 69.7781 59.9053 69.4996 59.9053C69.2211 59.9053 68.9541 59.7967 68.7571 59.6033C68.5602 59.4099 68.4496 59.1476 68.4496 58.8741C68.4496 58.6006 68.5602 58.3383 68.7571 58.1449C68.9541 57.9515 69.2211 57.8428 69.4996 57.8428Z" fill="#424242"/>
</g>
<path d="M21.7797 88.8455L19.4113 80.306H20.7665L22.4302 86.9191H22.5094L24.2398 80.306H25.5825L27.3129 86.9233H27.3921L29.0517 80.306H30.411L28.0384 88.8455H26.7417L24.9445 82.4492H24.8778L23.0807 88.8455H21.7797ZM33.6154 88.9748C32.9844 88.9748 32.4409 88.84 31.985 88.5703C31.5319 88.2979 31.1817 87.9157 30.9343 87.4236C30.6897 86.9288 30.5673 86.3493 30.5673 85.6849C30.5673 85.0289 30.6897 84.4507 30.9343 83.9503C31.1817 83.4499 31.5264 83.0594 31.9684 82.7786C32.4131 82.4979 32.9329 82.3575 33.5278 82.3575C33.8892 82.3575 34.2394 82.4172 34.5786 82.5368C34.9177 82.6563 35.2221 82.8439 35.4917 83.0997C35.7614 83.3554 35.974 83.6876 36.1297 84.0962C36.2854 84.5021 36.3632 84.9955 36.3632 85.5765V86.0185H31.272V85.0845H35.1415C35.1415 84.7564 35.0748 84.466 34.9413 84.213C34.8079 83.9572 34.6203 83.7557 34.3784 83.6084C34.1394 83.4611 33.8586 83.3874 33.5362 83.3874C33.1859 83.3874 32.8801 83.4736 32.6188 83.6459C32.3603 83.8155 32.1602 84.0379 32.0184 84.3131C31.8794 84.5855 31.8099 84.8815 31.8099 85.2012V85.9309C31.8099 86.359 31.885 86.7231 32.0351 87.0234C32.188 87.3236 32.4006 87.5529 32.673 87.7114C32.9455 87.867 33.2637 87.9449 33.6279 87.9449C33.8642 87.9449 34.0796 87.9115 34.2742 87.8448C34.4688 87.7753 34.637 87.6724 34.7787 87.5362C34.9205 87.4 35.0289 87.2318 35.104 87.0317L36.284 87.2444C36.1895 87.5918 36.0199 87.8962 35.7753 88.1575C35.5334 88.416 35.2291 88.6176 34.8621 88.7621C34.498 88.9039 34.0824 88.9748 33.6154 88.9748ZM40.1441 88.9706C39.627 88.9706 39.1656 88.8386 38.7597 88.5745C38.3567 88.3076 38.0398 87.9282 37.809 87.4362C37.5811 86.9414 37.4671 86.3479 37.4671 85.6557C37.4671 84.9635 37.5825 84.3714 37.8132 83.8794C38.0467 83.3874 38.3664 83.0107 38.7722 82.7494C39.1781 82.4881 39.6381 82.3575 40.1524 82.3575C40.5499 82.3575 40.8696 82.4242 41.1114 82.5576C41.3561 82.6883 41.5451 82.8412 41.6785 83.0163C41.8147 83.1914 41.9204 83.3457 41.9954 83.4791H42.0705V80.306H43.3172V88.8455H42.0997V87.849H41.9954C41.9204 87.9852 41.8119 88.1408 41.6702 88.316C41.5312 88.4911 41.3394 88.644 41.0948 88.7746C40.8501 88.9053 40.5332 88.9706 40.1441 88.9706ZM40.4193 87.9073C40.7779 87.9073 41.0809 87.8128 41.3283 87.6238C41.5784 87.432 41.7675 87.1665 41.8953 86.8274C42.026 86.4882 42.0913 86.0935 42.0913 85.6432C42.0913 85.1984 42.0274 84.8093 41.8995 84.4757C41.7716 84.1421 41.584 83.8822 41.3366 83.6959C41.0892 83.5097 40.7834 83.4166 40.4193 83.4166C40.044 83.4166 39.7313 83.5139 39.4811 83.7085C39.2309 83.903 39.0419 84.1685 38.914 84.5049C38.7889 84.8412 38.7264 85.2207 38.7264 85.6432C38.7264 86.0713 38.7903 86.4563 38.9182 86.7982C39.0461 87.1401 39.2351 87.4111 39.4853 87.6113C39.7382 87.8087 40.0496 87.9073 40.4193 87.9073ZM47.4942 88.9706C46.9771 88.9706 46.5157 88.8386 46.1098 88.5745C45.7068 88.3076 45.3899 87.9282 45.1592 87.4362C44.9312 86.9414 44.8172 86.3479 44.8172 85.6557C44.8172 84.9635 44.9326 84.3714 45.1633 83.8794C45.3968 83.3874 45.7165 83.0107 46.1224 82.7494C46.5282 82.4881 46.9883 82.3575 47.5025 82.3575C47.9 82.3575 48.2197 82.4242 48.4616 82.5576C48.7062 82.6883 48.8952 82.8412 49.0286 83.0163C49.1648 83.1914 49.2705 83.3457 49.3455 83.4791H49.4206V80.306H50.6673V88.8455H49.4498V87.849H49.3455C49.2705 87.9852 49.1621 88.1408 49.0203 88.316C48.8813 88.4911 48.6895 88.644 48.4449 88.7746C48.2003 88.9053 47.8834 88.9706 47.4942 88.9706ZM47.7694 87.9073C48.128 87.9073 48.431 87.8128 48.6784 87.6238C48.9286 87.432 49.1176 87.1665 49.2455 86.8274C49.3761 86.4882 49.4414 86.0935 49.4414 85.6432C49.4414 85.1984 49.3775 84.8093 49.2496 84.4757C49.1218 84.1421 48.9341 83.8822 48.6867 83.6959C48.4393 83.5097 48.1335 83.4166 47.7694 83.4166C47.3941 83.4166 47.0814 83.5139 46.8312 83.7085C46.581 83.903 46.392 84.1685 46.2641 84.5049C46.139 84.8412 46.0765 85.2207 46.0765 85.6432C46.0765 86.0713 46.1404 86.4563 46.2683 86.7982C46.3962 87.1401 46.5852 87.4111 46.8354 87.6113C47.0883 87.8087 47.3997 87.9073 47.7694 87.9073ZM52.4467 88.8455V82.4409H53.6935V88.8455H52.4467ZM53.0764 81.4527C52.8595 81.4527 52.6733 81.3804 52.5176 81.2358C52.3647 81.0885 52.2883 80.9134 52.2883 80.7105C52.2883 80.5047 52.3647 80.3296 52.5176 80.1851C52.6733 80.0377 52.8595 79.9641 53.0764 79.9641C53.2932 79.9641 53.478 80.0377 53.6309 80.1851C53.7866 80.3296 53.8644 80.5047 53.8644 80.7105C53.8644 80.9134 53.7866 81.0885 53.6309 81.2358C53.478 81.3804 53.2932 81.4527 53.0764 81.4527ZM56.6175 85.0428V88.8455H55.3707V82.4409H56.5674V83.4833H56.6467C56.794 83.1442 57.0247 82.8717 57.3388 82.666C57.6557 82.4603 58.0546 82.3575 58.5355 82.3575C58.9719 82.3575 59.3542 82.4492 59.6822 82.6327C60.0102 82.8134 60.2646 83.083 60.4452 83.4416C60.6259 83.8002 60.7163 84.2436 60.7163 84.7717V88.8455H59.4695V84.9218C59.4695 84.4576 59.3486 84.0948 59.1068 83.8335C58.8649 83.5695 58.5327 83.4374 58.1102 83.4374C57.8211 83.4374 57.564 83.5 57.3388 83.6251C57.1164 83.7502 56.9399 83.9336 56.8093 84.1755C56.6814 84.4145 56.6175 84.7036 56.6175 85.0428ZM65.0736 91.3807C64.5649 91.3807 64.1271 91.314 63.7601 91.1805C63.396 91.0471 63.0985 90.8706 62.8678 90.651C62.6371 90.4314 62.4648 90.1909 62.3508 89.9296L63.4224 89.4876C63.4974 89.61 63.5975 89.7392 63.7226 89.8754C63.8505 90.0144 64.0228 90.1326 64.2397 90.2298C64.4593 90.3271 64.7414 90.3758 65.0861 90.3758C65.5587 90.3758 65.9492 90.2604 66.2578 90.0297C66.5663 89.8018 66.7206 89.4376 66.7206 88.9372V87.678H66.6414C66.5663 87.8142 66.4579 87.9657 66.3162 88.1325C66.1772 88.2993 65.9854 88.4438 65.7407 88.5661C65.4961 88.6885 65.1778 88.7496 64.7859 88.7496C64.28 88.7496 63.8241 88.6315 63.4182 88.3952C63.0152 88.1561 62.6955 87.8045 62.4592 87.3403C62.2257 86.8733 62.1089 86.2992 62.1089 85.6182C62.1089 84.9371 62.2243 84.3534 62.455 83.8669C62.6885 83.3804 63.0082 83.0079 63.4141 82.7494C63.8199 82.4881 64.28 82.3575 64.7942 82.3575C65.1917 82.3575 65.5128 82.4242 65.7574 82.5576C66.002 82.6883 66.1925 82.8412 66.3287 83.0163C66.4677 83.1914 66.5747 83.3457 66.6497 83.4791H66.7415V82.4409H67.9632V88.9873C67.9632 89.5377 67.8353 89.9894 67.5796 90.3424C67.3238 90.6955 66.9777 90.9568 66.5413 91.1263C66.1077 91.2959 65.6184 91.3807 65.0736 91.3807ZM65.0611 87.7155C65.4197 87.7155 65.7227 87.6321 65.9701 87.4653C66.2203 87.2958 66.4093 87.0539 66.5372 86.7398C66.6678 86.4229 66.7331 86.0435 66.7331 85.6015C66.7331 85.1706 66.6692 84.7912 66.5413 84.4632C66.4135 84.1352 66.2258 83.8794 65.9784 83.6959C65.731 83.5097 65.4252 83.4166 65.0611 83.4166C64.6858 83.4166 64.3731 83.5139 64.1229 83.7085C63.8727 83.9003 63.6837 84.1616 63.5558 84.4924C63.4307 84.8232 63.3682 85.1929 63.3682 85.6015C63.3682 86.0212 63.4321 86.3896 63.56 86.7065C63.6879 87.0234 63.8769 87.2708 64.1271 87.4487C64.38 87.6266 64.6914 87.7155 65.0611 87.7155ZM72.4216 81.4151V80.306H79.0306V81.4151H76.3661V88.8455H75.0819V81.4151H72.4216ZM80.3909 88.8455V82.4409H81.6377V88.8455H80.3909ZM81.0206 81.4527C80.8037 81.4527 80.6175 81.3804 80.4618 81.2358C80.3089 81.0885 80.2325 80.9134 80.2325 80.7105C80.2325 80.5047 80.3089 80.3296 80.4618 80.1851C80.6175 80.0377 80.8037 79.9641 81.0206 79.9641C81.2374 79.9641 81.4222 80.0377 81.5751 80.1851C81.7308 80.3296 81.8086 80.5047 81.8086 80.7105C81.8086 80.9134 81.7308 81.0885 81.5751 81.2358C81.4222 81.3804 81.2374 81.4527 81.0206 81.4527ZM83.3149 88.8455V82.4409H84.5116V83.4833H84.5909C84.7243 83.1303 84.9425 82.8551 85.2455 82.6577C85.5485 82.4576 85.9113 82.3575 86.3338 82.3575C86.7619 82.3575 87.1205 82.4576 87.4096 82.6577C87.7014 82.8578 87.9169 83.133 88.0559 83.4833H88.1226C88.2755 83.1414 88.5187 82.869 88.8523 82.666C89.1858 82.4603 89.5834 82.3575 90.0448 82.3575C90.6258 82.3575 91.0997 82.5396 91.4667 82.9037C91.8364 83.2679 92.0212 83.8169 92.0212 84.5507V88.8455H90.7745V84.6675C90.7745 84.2338 90.6564 83.9197 90.4201 83.7251C90.1838 83.5306 89.9016 83.4333 89.5736 83.4333C89.1678 83.4333 88.8523 83.5583 88.6271 83.8085C88.4019 84.0559 88.2894 84.3742 88.2894 84.7634V88.8455H87.0468V84.5883C87.0468 84.2408 86.9384 83.9614 86.7216 83.7502C86.5047 83.5389 86.2226 83.4333 85.8751 83.4333C85.6388 83.4333 85.4206 83.4958 85.2205 83.6209C85.0231 83.7432 84.8633 83.9142 84.741 84.1338C84.6214 84.3534 84.5617 84.6077 84.5617 84.8968V88.8455H83.3149ZM96.4526 88.9748C95.8216 88.9748 95.2781 88.84 94.8222 88.5703C94.3691 88.2979 94.0189 87.9157 93.7715 87.4236C93.5268 86.9288 93.4045 86.3493 93.4045 85.6849C93.4045 85.0289 93.5268 84.4507 93.7715 83.9503C94.0189 83.4499 94.3636 83.0594 94.8055 82.7786C95.2503 82.4979 95.7701 82.3575 96.365 82.3575C96.7264 82.3575 97.0766 82.4172 97.4158 82.5368C97.7549 82.6563 98.0593 82.8439 98.3289 83.0997C98.5986 83.3554 98.8112 83.6876 98.9669 84.0962C99.1226 84.5021 99.2004 84.9955 99.2004 85.5765V86.0185H94.1092V85.0845H97.9787C97.9787 84.7564 97.912 84.466 97.7785 84.213C97.6451 83.9572 97.4575 83.7557 97.2156 83.6084C96.9766 83.4611 96.6958 83.3874 96.3733 83.3874C96.0231 83.3874 95.7173 83.4736 95.456 83.6459C95.1975 83.8155 94.9974 84.0379 94.8556 84.3131C94.7166 84.5855 94.6471 84.8815 94.6471 85.2012V85.9309C94.6471 86.359 94.7222 86.7231 94.8723 87.0234C95.0252 87.3236 95.2378 87.5529 95.5102 87.7114C95.7826 87.867 96.1009 87.9449 96.4651 87.9449C96.7014 87.9449 96.9168 87.9115 97.1114 87.8448C97.306 87.7753 97.4741 87.6724 97.6159 87.5362C97.7577 87.4 97.8661 87.2318 97.9412 87.0317L99.1212 87.2444C99.0267 87.5918 98.8571 87.8962 98.6125 88.1575C98.3706 88.416 98.0662 88.6176 97.6993 88.7621C97.3352 88.9039 96.9196 88.9748 96.4526 88.9748ZM101.83 80.306V88.8455H100.584V80.306H101.83ZM103.508 88.8455V82.4409H104.754V88.8455H103.508ZM104.137 81.4527C103.92 81.4527 103.734 81.3804 103.579 81.2358C103.426 81.0885 103.349 80.9134 103.349 80.7105C103.349 80.5047 103.426 80.3296 103.579 80.1851C103.734 80.0377 103.92 79.9641 104.137 79.9641C104.354 79.9641 104.539 80.0377 104.692 80.1851C104.848 80.3296 104.925 80.5047 104.925 80.7105C104.925 80.9134 104.848 81.0885 104.692 81.2358C104.539 81.3804 104.354 81.4527 104.137 81.4527ZM107.678 85.0428V88.8455H106.432V82.4409H107.628V83.4833H107.708C107.855 83.1442 108.086 82.8717 108.4 82.666C108.717 82.4603 109.116 82.3575 109.596 82.3575C110.033 82.3575 110.415 82.4492 110.743 82.6327C111.071 82.8134 111.326 83.083 111.506 83.4416C111.687 83.8002 111.777 84.2436 111.777 84.7717V88.8455H110.53V84.9218C110.53 84.4576 110.41 84.0948 110.168 83.8335C109.926 83.5695 109.594 83.4374 109.171 83.4374C108.882 83.4374 108.625 83.5 108.4 83.6251C108.177 83.7502 108.001 83.9336 107.87 84.1755C107.742 84.4145 107.678 84.7036 107.678 85.0428ZM116.21 88.9748C115.579 88.9748 115.035 88.84 114.579 88.5703C114.126 88.2979 113.776 87.9157 113.528 87.4236C113.284 86.9288 113.162 86.3493 113.162 85.6849C113.162 85.0289 113.284 84.4507 113.528 83.9503C113.776 83.4499 114.121 83.0594 114.563 82.7786C115.007 82.4979 115.527 82.3575 116.122 82.3575C116.483 82.3575 116.834 82.4172 117.173 82.5368C117.512 82.6563 117.816 82.8439 118.086 83.0997C118.356 83.3554 118.568 83.6876 118.724 84.0962C118.88 84.5021 118.957 84.9955 118.957 85.5765V86.0185H113.866V85.0845H117.736C117.736 84.7564 117.669 84.466 117.536 84.213C117.402 83.9572 117.214 83.7557 116.973 83.6084C116.734 83.4611 116.453 83.3874 116.13 83.3874C115.78 83.3874 115.474 83.4736 115.213 83.6459C114.955 83.8155 114.754 84.0379 114.613 84.3131C114.474 84.5855 114.404 84.8815 114.404 85.2012V85.9309C114.404 86.359 114.479 86.7231 114.629 87.0234C114.782 87.3236 114.995 87.5529 115.267 87.7114C115.54 87.867 115.858 87.9449 116.222 87.9449C116.458 87.9449 116.674 87.9115 116.868 87.8448C117.063 87.7753 117.231 87.6724 117.373 87.5362C117.515 87.4 117.623 87.2318 117.698 87.0317L118.878 87.2444C118.784 87.5918 118.614 87.8962 118.369 88.1575C118.128 88.416 117.823 88.6176 117.456 88.7621C117.092 88.9039 116.677 88.9748 116.21 88.9748Z" fill="#424242"/>
</g>
<defs>
<filter id="filter0_d_0_1" x="0.5" y="0.4375" width="137.672" height="127.72" filterUnits="userSpaceOnUse" color-interpolation-filters="sRGB">
<feFlood flood-opacity="0" result="BackgroundImageFix"/>
<feColorMatrix in="SourceAlpha" type="matrix" values="0 0 0 0 0 0 0 0 0 0 0 0 0 0 0 0 0 0 127 0" result="hardAlpha"/>
<feOffset/>
<feGaussianBlur stdDeviation="2.5"/>
<feComposite in2="hardAlpha" operator="out"/>
<feColorMatrix type="matrix" values="0 0 0 0 0 0 0 0 0 0 0 0 0 0 0 0 0 0 0.18 0"/>
<feBlend mode="normal" in2="BackgroundImageFix" result="effect1_dropShadow_0_1"/>
<feBlend mode="normal" in="SourceGraphic" in2="effect1_dropShadow_0_1" result="shape"/>
</filter>
<clipPath id="clip0_0_1">
<rect width="28" height="22" fill="white" transform="translate(55.4996 40.9991)"/>
</clipPath>
</defs>
</svg>
