<svg width="14" height="15" viewBox="0 0 14 15" fill="none" xmlns="http://www.w3.org/2000/svg">
<g clip-path="url(#clip0_3261_40356)">
<path d="M5.55312 1.375H8.44375C8.61563 1.375 8.775 1.45156 8.86875 1.58008L9.34688 2.25H4.65312L5.13125 1.58008C5.22187 1.45156 5.38438 1.375 5.55625 1.375H5.55312ZM10.5281 2.25L9.71875 1.11797C9.44375 0.732422 8.9625 0.5 8.44687 0.5H5.55312C5.0375 0.5 4.55625 0.732422 4.28125 1.11797L3.47187 2.25H2.00312H1H0.5C0.225 2.25 0 2.44687 0 2.6875C0 2.92812 0.225 3.125 0.5 3.125H1.07187L1.86875 12.8758C1.94062 13.7918 2.8125 14.5 3.8625 14.5H10.1375C11.1875 14.5 12.0563 13.7918 12.1313 12.8758L12.9281 3.125H13.5C13.775 3.125 14 2.92812 14 2.6875C14 2.44687 13.775 2.25 13.5 2.25H13H11.9969H10.5281ZM11.9281 3.125L11.1344 12.8129C11.0969 13.2695 10.6625 13.625 10.1375 13.625H3.8625C3.3375 13.625 2.90312 13.2695 2.86562 12.8129L2.075 3.125H11.925H11.9281Z" fill="black"/>
</g>
<defs>
<clipPath id="clip0_3261_40356">
<rect width="14" height="14" fill="white" transform="translate(0 0.5)"/>
</clipPath>
</defs>
</svg>
