<svg width="16" height="17" viewBox="0 0 16 17" fill="none" xmlns="http://www.w3.org/2000/svg">
<path d="M14.2063 1.91641L14.5844 2.29453C14.975 2.68516 14.975 3.31953 14.5844 3.71016L13.75 4.54453L11.9563 2.75078L12.7906 1.91641C13.1812 1.52578 13.8156 1.52578 14.2063 1.91641ZM5.90625 8.80078L11.25 3.45703L13.0437 5.25078L7.7 10.5945C7.56875 10.7258 7.4 10.8195 7.21875 10.8633L5.16875 11.3352L5.64062 9.28203C5.68125 9.10078 5.775 8.93203 5.90938 8.80078H5.90625ZM12.0844 1.20703L5.2 8.09453C4.93437 8.36016 4.75 8.69453 4.66563 9.06016L4.0125 11.8914C3.975 12.0602 4.025 12.2352 4.14687 12.357C4.26875 12.4789 4.44375 12.5289 4.6125 12.4914L7.44375 11.8383C7.80937 11.7539 8.14375 11.5695 8.40938 11.3039L15.2937 4.41641C16.075 3.63516 16.075 2.36953 15.2937 1.58828L14.9156 1.20703C14.1344 0.425781 12.8687 0.425781 12.0875 1.20703H12.0844ZM2.5 2.50078C1.11875 2.50078 0 3.61953 0 5.00078V14.0008C0 15.382 1.11875 16.5008 2.5 16.5008H11.5C12.8813 16.5008 14 15.382 14 14.0008V10.0008C14 9.72578 13.775 9.50078 13.5 9.50078C13.225 9.50078 13 9.72578 13 10.0008V14.0008C13 14.8289 12.3281 15.5008 11.5 15.5008H2.5C1.67188 15.5008 1 14.8289 1 14.0008V5.00078C1 4.17266 1.67188 3.50078 2.5 3.50078H6.5C6.775 3.50078 7 3.27578 7 3.00078C7 2.72578 6.775 2.50078 6.5 2.50078H2.5Z" fill="black"/>
</svg>
