<svg width="14" height="24" viewBox="0 0 14 24" fill="none" xmlns="http://www.w3.org/2000/svg">
<path d="M1.5 15.5714H3.3C4.12875 15.5714 4.8 16.3306 4.8 17.2679V19.3036C4.8 20.2408 4.12875 21 3.3 21H1.5C0.67125 21 0 20.2408 0 19.3036V17.2679C0 16.3306 0.67125 15.5714 1.5 15.5714ZM8.7 15.5714H10.5C11.3288 15.5714 12 16.3306 12 17.2679V19.3036C12 20.2408 11.3288 21 10.5 21H8.7C7.87125 21 7.2 20.2408 7.2 19.3036V17.2679C7.2 16.3306 7.87125 15.5714 8.7 15.5714ZM1.5 14.2143C0.67125 14.2143 0 13.4551 0 12.5179V10.4821C0 9.54487 0.67125 8.78571 1.5 8.78571H3.3C4.12875 8.78571 4.8 9.54487 4.8 10.4821V12.5179C4.8 13.4551 4.12875 14.2143 3.3 14.2143H1.5ZM8.7 8.78571H10.5C11.3288 8.78571 12 9.54487 12 10.4821V12.5179C12 13.4551 11.3288 14.2143 10.5 14.2143H8.7C7.87125 14.2143 7.2 13.4551 7.2 12.5179V10.4821C7.2 9.54487 7.87125 8.78571 8.7 8.78571ZM1.5 7.42857C0.67125 7.42857 0 6.66942 0 5.73214V3.69643C0 2.75915 0.67125 2 1.5 2H3.3C4.12875 2 4.8 2.75915 4.8 3.69643V5.73214C4.8 6.66942 4.12875 7.42857 3.3 7.42857H1.5ZM8.7 2H10.5C11.3288 2 12 2.75915 12 3.69643V5.73214C12 6.66942 11.3288 7.42857 10.5 7.42857H8.7C7.87125 7.42857 7.2 6.66942 7.2 5.73214V3.69643C7.2 2.75915 7.87125 2 8.7 2Z" fill="#8A8A8A"/>
</svg>
