<svg width="14" height="16" viewBox="0 0 14 16" fill="none" xmlns="http://www.w3.org/2000/svg">
<g clip-path="url(#clip0_2664_31496)">
<path d="M7.00352 4.40781C5.01602 4.40781 3.41289 6.01094 3.41289 7.99844C3.41289 9.98594 5.01602 11.5891 7.00352 11.5891C8.99102 11.5891 10.5941 9.98594 10.5941 7.99844C10.5941 6.01094 8.99102 4.40781 7.00352 4.40781ZM7.00352 10.3328C5.71914 10.3328 4.66914 9.28594 4.66914 7.99844C4.66914 6.71094 5.71602 5.66406 7.00352 5.66406C8.29102 5.66406 9.33789 6.71094 9.33789 7.99844C9.33789 9.28594 8.28789 10.3328 7.00352 10.3328ZM11.5785 4.26094C11.5785 4.72656 11.2035 5.09844 10.741 5.09844C10.2754 5.09844 9.90352 4.72344 9.90352 4.26094C9.90352 3.79844 10.2785 3.42344 10.741 3.42344C11.2035 3.42344 11.5785 3.79844 11.5785 4.26094ZM13.9566 5.11094C13.9035 3.98906 13.6473 2.99531 12.8254 2.17656C12.0066 1.35781 11.0129 1.10156 9.89102 1.04531C8.73477 0.979688 5.26914 0.979688 4.11289 1.04531C2.99414 1.09844 2.00039 1.35469 1.17852 2.17344C0.356641 2.99219 0.103516 3.98594 0.0472656 5.10781C-0.0183594 6.26406 -0.0183594 9.72969 0.0472656 10.8859C0.100391 12.0078 0.356641 13.0016 1.17852 13.8203C2.00039 14.6391 2.99102 14.8953 4.11289 14.9516C5.26914 15.0172 8.73477 15.0172 9.89102 14.9516C11.0129 14.8984 12.0066 14.6422 12.8254 13.8203C13.6441 13.0016 13.9004 12.0078 13.9566 10.8859C14.0223 9.72969 14.0223 6.26719 13.9566 5.11094ZM12.4629 12.1266C12.2191 12.7391 11.7473 13.2109 11.1316 13.4578C10.2098 13.8234 8.02227 13.7391 7.00352 13.7391C5.98477 13.7391 3.79414 13.8203 2.87539 13.4578C2.26289 13.2141 1.79102 12.7422 1.54414 12.1266C1.17852 11.2047 1.26289 9.01719 1.26289 7.99844C1.26289 6.97969 1.18164 4.78906 1.54414 3.87031C1.78789 3.25781 2.25977 2.78594 2.87539 2.53906C3.79727 2.17344 5.98477 2.25781 7.00352 2.25781C8.02227 2.25781 10.2129 2.17656 11.1316 2.53906C11.7441 2.78281 12.216 3.25469 12.4629 3.87031C12.8285 4.79219 12.7441 6.97969 12.7441 7.99844C12.7441 9.01719 12.8285 11.2078 12.4629 12.1266Z" fill="url(#paint0_linear_2664_31496)"/>
</g>
<defs>
<linearGradient id="paint0_linear_2664_31496" x1="7.00195" y1="0.996094" x2="7.00195" y2="15.0008" gradientUnits="userSpaceOnUse">
<stop stop-color="#8A3AB9"/>
<stop offset="1" stop-color="#ED4966"/>
</linearGradient>
<clipPath id="clip0_2664_31496">
<rect width="14" height="16" fill="white"/>
</clipPath>
</defs>
</svg>
