<svg width="16" height="16" viewBox="0 0 16 16" fill="none" xmlns="http://www.w3.org/2000/svg">
<g clip-path="url(#clip0_2664_31503)">
<path d="M14.3562 4.74062C14.3656 4.88125 14.3656 5.025 14.3656 5.16563C14.3656 9.5 11.0656 14.4969 5.03438 14.4969C3.175 14.4969 1.45 13.9594 0 13.025C0.2625 13.0562 0.51875 13.0656 0.790625 13.0656C2.325 13.0656 3.73438 12.5469 4.8625 11.6656C3.42188 11.6344 2.2125 10.6906 1.79688 9.39062C2 9.42188 2.20312 9.44063 2.41563 9.44063C2.70938 9.44063 3.00312 9.4 3.27813 9.32812C1.775 9.025 0.65 7.70312 0.65 6.10938V6.06875C1.0875 6.3125 1.59375 6.46562 2.13125 6.48438C1.24687 5.89687 0.66875 4.89062 0.66875 3.75312C0.66875 3.14375 0.83125 2.58437 1.11563 2.09687C2.73125 4.0875 5.15625 5.3875 7.87813 5.52812C7.82812 5.28437 7.79688 5.03125 7.79688 4.77812C7.79688 2.97187 9.25937 1.5 11.075 1.5C12.0188 1.5 12.8719 1.89687 13.4719 2.53437C14.2125 2.39375 14.925 2.11875 15.5531 1.74375C15.3094 2.50625 14.7906 3.14375 14.1125 3.55C14.7719 3.47812 15.4125 3.29688 16 3.04375C15.5531 3.69375 14.9937 4.27187 14.3562 4.74062Z" fill="#1DA1F2"/>
</g>
<defs>
<clipPath id="clip0_2664_31503">
<rect width="16" height="16" fill="white"/>
</clipPath>
</defs>
</svg>
