<svg width="19" height="19" viewBox="0 0 19 19" fill="none" xmlns="http://www.w3.org/2000/svg">
<path d="M2.7832 2.7832L1.52148 1.52148C0.961133 0.961133 0 1.3582 0 2.14863V6.23438C0 6.72793 0.39707 7.125 0.890625 7.125H4.97637C5.77051 7.125 6.16758 6.16387 5.60723 5.60352L4.46426 4.46055C5.75195 3.17285 7.5332 2.375 9.5 2.375C13.4336 2.375 16.625 5.56641 16.625 9.5C16.625 13.4336 13.4336 16.625 9.5 16.625C7.98594 16.625 6.5832 16.1537 5.4291 15.3484C4.89102 14.9736 4.15254 15.1035 3.77402 15.6416C3.39551 16.1797 3.5291 16.9182 4.06719 17.2967C5.61094 18.3691 7.48496 19 9.5 19C14.7473 19 19 14.7473 19 9.5C19 4.25273 14.7473 0 9.5 0C6.87637 0 4.50137 1.06504 2.7832 2.7832ZM9.5 4.75C9.00644 4.75 8.60938 5.14707 8.60938 5.64062V9.5C8.60938 9.7375 8.70215 9.96387 8.86914 10.1309L11.541 12.8027C11.8898 13.1516 12.4539 13.1516 12.799 12.8027C13.1441 12.4539 13.1479 11.8898 12.799 11.5447L10.3869 9.13262V5.64062C10.3869 5.14707 9.98984 4.75 9.49629 4.75H9.5Z" fill="#E3E3E3"/>
<path d="M2.7832 2.7832L1.52148 1.52148C0.961133 0.961133 0 1.3582 0 2.14863V6.23438C0 6.72793 0.39707 7.125 0.890625 7.125H4.97637C5.77051 7.125 6.16758 6.16387 5.60723 5.60352L4.46426 4.46055C5.75195 3.17285 7.5332 2.375 9.5 2.375C13.4336 2.375 16.625 5.56641 16.625 9.5C16.625 13.4336 13.4336 16.625 9.5 16.625C7.98594 16.625 6.5832 16.1537 5.4291 15.3484C4.89102 14.9736 4.15254 15.1035 3.77402 15.6416C3.39551 16.1797 3.5291 16.9182 4.06719 17.2967C5.61094 18.3691 7.48496 19 9.5 19C14.7473 19 19 14.7473 19 9.5C19 4.25273 14.7473 0 9.5 0C6.87637 0 4.50137 1.06504 2.7832 2.7832ZM9.5 4.75C9.00644 4.75 8.60938 5.14707 8.60938 5.64062V9.5C8.60938 9.7375 8.70215 9.96387 8.86914 10.1309L11.541 12.8027C11.8898 13.1516 12.4539 13.1516 12.799 12.8027C13.1441 12.4539 13.1479 11.8898 12.799 11.5447L10.3869 9.13262V5.64062C10.3869 5.14707 9.98984 4.75 9.49629 4.75H9.5Z" fill="black" fill-opacity="0.05"/>
</svg>
