<svg width="18" height="21" viewBox="0 0 18 21" fill="none" xmlns="http://www.w3.org/2000/svg">
<path d="M15.304 4.29297C13.6205 2.65234 11.3786 1.75 8.99598 1.75C4.07812 1.75 0.0763393 5.64062 0.0763393 10.4219C0.0763393 11.9492 0.486161 13.4414 1.26562 14.7578L0 19.25L4.72902 18.043C6.0308 18.7344 7.49732 19.0977 8.99196 19.0977H8.99598C13.9098 19.0977 18 15.207 18 10.4258C18 8.10938 16.9875 5.93359 15.304 4.29297ZM8.99598 17.6367C7.66205 17.6367 6.35625 17.2891 5.2192 16.6328L4.95 16.4766L2.14554 17.1914L2.89286 14.5312L2.71607 14.2578C1.97277 13.1094 1.58304 11.7852 1.58304 10.4219C1.58304 6.44922 4.90982 3.21484 9 3.21484C10.9808 3.21484 12.8411 3.96484 14.2393 5.32812C15.6375 6.69141 16.4973 8.5 16.4933 10.4258C16.4933 14.4023 13.0821 17.6367 8.99598 17.6367ZM13.0621 12.2383C12.8411 12.1289 11.7442 11.6055 11.5393 11.5352C11.3344 11.4609 11.1857 11.4258 11.0371 11.6445C10.8884 11.8633 10.4625 12.3477 10.3299 12.4961C10.2013 12.6406 10.0688 12.6602 9.84777 12.5508C8.53795 11.9141 7.67813 11.4141 6.81429 9.97266C6.58527 9.58984 7.0433 9.61719 7.4692 8.78906C7.54152 8.64453 7.50536 8.51953 7.44911 8.41016C7.39286 8.30078 6.94688 7.23438 6.76205 6.80078C6.58125 6.37891 6.39643 6.4375 6.25982 6.42969C6.13125 6.42188 5.98259 6.42188 5.83393 6.42188C5.68527 6.42188 5.4442 6.47656 5.23929 6.69141C5.03437 6.91016 4.45982 7.43359 4.45982 8.5C4.45982 9.56641 5.25938 10.5977 5.36786 10.7422C5.48036 10.8867 6.93884 13.0742 9.17679 14.0156C10.5911 14.6094 11.1455 14.6602 11.8527 14.5586C12.2826 14.4961 13.1705 14.0352 13.3554 13.5273C13.5402 13.0195 13.5402 12.5859 13.4839 12.4961C13.4317 12.3984 13.283 12.3438 13.0621 12.2383Z" fill="#25D366"/>
</svg>
