<svg width="137" height="128" viewBox="0 0 137 128" fill="none" xmlns="http://www.w3.org/2000/svg">
<g filter="url(#filter0_d_4438_45511)">
<rect x="5.82812" y="5.59766" width="127.672" height="117.72" rx="6.84941" fill="white" shape-rendering="crispEdges"/>
<rect x="6.32812" y="6.09766" width="126.672" height="116.72" rx="6.34941" stroke="#CBD5E1" stroke-opacity="0.5" shape-rendering="crispEdges"/>
<g clip-path="url(#clip0_4438_45511)">
<path d="M68.0995 44.75C68.0995 45.3387 67.9114 45.8801 67.592 46.327L68.8695 49.0125C69.2983 48.9223 69.7445 48.875 70.1995 48.875C71.7789 48.875 73.2183 49.4465 74.3251 50.3875L77.917 47.8008C77.9083 47.702 77.8995 47.6031 77.8995 47.5C77.8995 45.9832 79.1551 44.75 80.6995 44.75C82.2439 44.75 83.4995 45.9832 83.4995 47.5C83.4995 49.0168 82.2439 50.25 80.6995 50.25C80.297 50.25 79.9164 50.1684 79.5708 50.018L75.9833 52.6047C76.3158 53.3566 76.4995 54.1902 76.4995 55.0625C76.4995 55.7328 76.3901 56.3816 76.1889 56.9875L79.3389 58.8438C79.7414 58.6246 80.2051 58.5 80.6995 58.5C82.2439 58.5 83.4995 59.7332 83.4995 61.25C83.4995 62.7668 82.2439 64 80.6995 64C79.1551 64 77.8995 62.7668 77.8995 61.25V61.2027L74.7451 59.3422C73.5989 60.5195 71.9845 61.25 70.1995 61.25C67.2026 61.25 64.6914 59.1918 64.057 56.4375H60.7233C60.2376 57.2582 59.3364 57.8125 58.2995 57.8125C56.7551 57.8125 55.4995 56.5793 55.4995 55.0625C55.4995 53.5457 56.7551 52.3125 58.2995 52.3125C59.3364 52.3125 60.242 52.8668 60.7233 53.6875H64.0526C64.3808 52.2695 65.2033 51.0406 66.332 50.177L65.0545 47.4914C63.6239 47.3668 62.4995 46.1895 62.4995 44.75C62.4995 43.2332 63.7551 42 65.2995 42C66.8439 42 68.0995 43.2332 68.0995 44.75ZM70.1995 57.125C70.7565 57.125 71.2906 56.9077 71.6844 56.5209C72.0783 56.1341 72.2995 55.6095 72.2995 55.0625C72.2995 54.5155 72.0783 53.9909 71.6844 53.6041C71.2906 53.2173 70.7565 53 70.1995 53C69.6426 53 69.1084 53.2173 68.7146 53.6041C68.3208 53.9909 68.0995 54.5155 68.0995 55.0625C68.0995 55.6095 68.3208 56.1341 68.7146 56.5209C69.1084 56.9077 69.6426 57.125 70.1995 57.125Z" fill="#424242"/>
</g>
<path d="M49.9899 89.0039H48.6223L51.6953 80.4644H53.1839L56.257 89.0039H54.8893L52.475 82.0155H52.4083L49.9899 89.0039ZM50.2192 85.6598H54.6558V86.7439H50.2192V85.6598ZM59.9847 89.1332C59.3648 89.1332 58.831 88.9928 58.3835 88.712C57.9387 88.4285 57.5968 88.0379 57.3578 87.5403C57.1187 87.0428 56.9992 86.4729 56.9992 85.8308C56.9992 85.1803 57.1215 84.6063 57.3661 84.1087C57.6107 83.6083 57.9554 83.2178 58.4002 82.937C58.8449 82.6563 59.3689 82.5159 59.9721 82.5159C60.4586 82.5159 60.8923 82.6062 61.2731 82.7869C61.6539 82.9648 61.9611 83.215 62.1946 83.5374C62.4309 83.8599 62.5713 84.2366 62.6157 84.6674H61.4023C61.3356 84.3672 61.1827 84.1087 60.9437 83.8919C60.7074 83.675 60.3905 83.5666 59.993 83.5666C59.6455 83.5666 59.3411 83.6584 59.0798 83.8418C58.8213 84.0225 58.6198 84.281 58.4752 84.6174C58.3307 84.951 58.2584 85.3457 58.2584 85.8016C58.2584 86.2686 58.3293 86.6717 58.4711 87.0108C58.6128 87.3499 58.813 87.6126 59.0715 87.7989C59.3328 87.9851 59.64 88.0782 59.993 88.0782C60.2293 88.0782 60.4433 88.0351 60.6351 87.949C60.8297 87.86 60.9923 87.7335 61.123 87.5695C61.2564 87.4055 61.3495 87.2082 61.4023 86.9774H62.6157C62.5713 87.3916 62.4364 87.7613 62.2113 88.0866C61.9861 88.4118 61.6845 88.6676 61.3064 88.8538C60.9312 89.04 60.4906 89.1332 59.9847 89.1332ZM66.9387 82.5993V83.6H63.4403V82.5993H66.9387ZM64.3785 81.0648H65.6252V87.1234C65.6252 87.3652 65.6613 87.5473 65.7336 87.6696C65.8059 87.7891 65.899 87.8711 66.013 87.9156C66.1297 87.9573 66.2562 87.9782 66.3924 87.9782C66.4925 87.9782 66.5801 87.9712 66.6551 87.9573C66.7302 87.9434 66.7885 87.9323 66.8302 87.924L67.0554 88.9539C66.9831 88.9817 66.8803 89.0095 66.7468 89.0373C66.6134 89.0678 66.4466 89.0845 66.2465 89.0873C65.9185 89.0929 65.6127 89.0345 65.3292 88.9122C65.0456 88.7899 64.8163 88.6008 64.6412 88.3451C64.466 88.0894 64.3785 87.7683 64.3785 87.3819V81.0648ZM68.3178 89.0039V82.5993H69.5645V89.0039H68.3178ZM68.9474 81.611C68.7306 81.611 68.5443 81.5388 68.3887 81.3942C68.2358 81.2469 68.1593 81.0718 68.1593 80.8688C68.1593 80.6631 68.2358 80.488 68.3887 80.3435C68.5443 80.1961 68.7306 80.1225 68.9474 80.1225C69.1642 80.1225 69.3491 80.1961 69.502 80.3435C69.6576 80.488 69.7355 80.6631 69.7355 80.8688C69.7355 81.0718 69.6576 81.2469 69.502 81.3942C69.3491 81.5388 69.1642 81.611 68.9474 81.611ZM76.7207 82.5993L74.3982 89.0039H73.0639L70.7372 82.5993H72.0757L73.6977 87.5278H73.7644L75.3823 82.5993H76.7207ZM77.8924 89.0039V82.5993H79.1392V89.0039H77.8924ZM78.522 81.611C78.3052 81.611 78.119 81.5388 77.9633 81.3942C77.8104 81.2469 77.734 81.0718 77.734 80.8688C77.734 80.6631 77.8104 80.488 77.9633 80.3435C78.119 80.1961 78.3052 80.1225 78.522 80.1225C78.7389 80.1225 78.9237 80.1961 79.0766 80.3435C79.2323 80.488 79.3101 80.6631 79.3101 80.8688C79.3101 81.0718 79.2323 81.2469 79.0766 81.3942C78.9237 81.5388 78.7389 81.611 78.522 81.611ZM83.8061 82.5993V83.6H80.3077V82.5993H83.8061ZM81.2459 81.0648H82.4926V87.1234C82.4926 87.3652 82.5288 87.5473 82.601 87.6696C82.6733 87.7891 82.7664 87.8711 82.8804 87.9156C82.9972 87.9573 83.1236 87.9782 83.2599 87.9782C83.3599 87.9782 83.4475 87.9712 83.5225 87.9573C83.5976 87.9434 83.656 87.9323 83.6977 87.924L83.9228 88.9539C83.8506 88.9817 83.7477 89.0095 83.6143 89.0373C83.4808 89.0678 83.3141 89.0845 83.1139 89.0873C82.7859 89.0929 82.4801 89.0345 82.1966 88.9122C81.913 88.7899 81.6837 88.6008 81.5086 88.3451C81.3335 88.0894 81.2459 87.7683 81.2459 87.3819V81.0648ZM85.9733 91.4056C85.787 91.4056 85.6175 91.3904 85.4646 91.3598C85.3117 91.332 85.1977 91.3014 85.1227 91.268L85.4229 90.2465C85.6508 90.3076 85.8537 90.334 86.0317 90.3257C86.2096 90.3174 86.3666 90.2506 86.5028 90.1256C86.6418 90.0005 86.7641 89.7961 86.8698 89.5126L87.024 89.0873L84.6807 82.5993H86.015L87.637 87.5695H87.7037L89.3257 82.5993H90.6642L88.0248 89.8587C87.9025 90.1923 87.7468 90.4744 87.5578 90.7051C87.3687 90.9386 87.1436 91.1138 86.8823 91.2305C86.621 91.3473 86.318 91.4056 85.9733 91.4056Z" fill="#424242"/>
</g>
<defs>
<filter id="filter0_d_4438_45511" x="0.828125" y="0.597656" width="137.672" height="127.719" filterUnits="userSpaceOnUse" color-interpolation-filters="sRGB">
<feFlood flood-opacity="0" result="BackgroundImageFix"/>
<feColorMatrix in="SourceAlpha" type="matrix" values="0 0 0 0 0 0 0 0 0 0 0 0 0 0 0 0 0 0 127 0" result="hardAlpha"/>
<feOffset/>
<feGaussianBlur stdDeviation="2.5"/>
<feComposite in2="hardAlpha" operator="out"/>
<feColorMatrix type="matrix" values="0 0 0 0 0 0 0 0 0 0 0 0 0 0 0 0 0 0 0.18 0"/>
<feBlend mode="normal" in2="BackgroundImageFix" result="effect1_dropShadow_4438_45511"/>
<feBlend mode="normal" in="SourceGraphic" in2="effect1_dropShadow_4438_45511" result="shape"/>
</filter>
<clipPath id="clip0_4438_45511">
<rect width="28" height="22" fill="white" transform="translate(55.4995 42)"/>
</clipPath>
</defs>
</svg>
