<svg width="14" height="14" viewBox="0 0 14 14" fill="none" xmlns="http://www.w3.org/2000/svg">
<path d="M5.66563 0.013695C6.20937 0.10432 6.57812 0.619945 6.4875 1.16369L6.18125 3.00119H9.15312L9.5125 0.83557C9.60312 0.29182 10.1188 -0.07693 10.6625 0.013695C11.2063 0.10432 11.575 0.619945 11.4844 1.16369L11.1812 3.00119H13C13.5531 3.00119 14 3.44807 14 4.00119C14 4.55432 13.5531 5.00119 13 5.00119H10.8469L10.1812 9.00119H12C12.5531 9.00119 13 9.44807 13 10.0012C13 10.5543 12.5531 11.0012 12 11.0012H9.84688L9.4875 13.1668C9.39688 13.7106 8.88125 14.0793 8.3375 13.9887C7.79375 13.8981 7.425 13.3824 7.51562 12.8387L7.82188 11.0043H4.84688L4.4875 13.1699C4.39688 13.7137 3.88125 14.0824 3.3375 13.9918C2.79375 13.9012 2.425 13.3856 2.51562 12.8418L2.81875 11.0012H1C0.446875 11.0012 0 10.5543 0 10.0012C0 9.44807 0.446875 9.00119 1 9.00119H3.15313L3.81875 5.00119H2C1.44687 5.00119 1 4.55432 1 4.00119C1 3.44807 1.44687 3.00119 2 3.00119H4.15312L4.5125 0.83557C4.60312 0.29182 5.11875 -0.07693 5.6625 0.013695H5.66563ZM5.84688 5.00119L5.18125 9.00119H8.15312L8.81875 5.00119H5.84688Z" fill="white"/>
</svg>
