<svg width="21" height="25" viewBox="0 0 21 25" fill="none" xmlns="http://www.w3.org/2000/svg">
<path d="M3.96334 2.31055C3.04146 2.31055 2.29667 2.98086 2.29667 3.81055V21.8105C2.29667 22.6402 3.04146 23.3105 3.96334 23.3105H17.2967C18.2185 23.3105 18.9633 22.6402 18.9633 21.8105V3.81055C18.9633 2.98086 18.2185 2.31055 17.2967 2.31055H3.96334ZM0.630005 3.81055C0.630005 2.15586 2.1248 0.810547 3.96334 0.810547H17.2967C19.1352 0.810547 20.63 2.15586 20.63 3.81055V21.8105C20.63 23.4652 19.1352 24.8105 17.2967 24.8105H3.96334C2.1248 24.8105 0.630005 23.4652 0.630005 21.8105V3.81055ZM4.79667 6.81055H16.4633C16.9217 6.81055 17.2967 7.14805 17.2967 7.56055C17.2967 7.97305 16.9217 8.31055 16.4633 8.31055H4.79667C4.33834 8.31055 3.96334 7.97305 3.96334 7.56055C3.96334 7.14805 4.33834 6.81055 4.79667 6.81055ZM4.79667 11.3105H16.4633C16.9217 11.3105 17.2967 11.648 17.2967 12.0605C17.2967 12.473 16.9217 12.8105 16.4633 12.8105H4.79667C4.33834 12.8105 3.96334 12.473 3.96334 12.0605C3.96334 11.648 4.33834 11.3105 4.79667 11.3105ZM4.79667 15.8105H11.4633C11.9217 15.8105 12.2967 16.148 12.2967 16.5605C12.2967 16.973 11.9217 17.3105 11.4633 17.3105H4.79667C4.33834 17.3105 3.96334 16.973 3.96334 16.5605C3.96334 16.148 4.33834 15.8105 4.79667 15.8105Z" fill="black"/>
</svg>
