<svg width="20" height="16" viewBox="0 0 20 16" fill="none" xmlns="http://www.w3.org/2000/svg">
<g id="comments-light 1" clip-path="url(#clip0_3370_36930)">
<path id="Vector" d="M1 5.5C1 3.1625 3.30312 1 6.5 1C9.69687 1 12 3.1625 12 5.5C12 7.8375 9.69687 10 6.5 10C6.02187 10 5.54375 9.94063 5.05312 9.84375C4.94375 9.82187 4.83125 9.8375 4.73438 9.8875C4.54375 9.98438 4.35938 10.075 4.17188 10.1594C3.28437 10.5625 2.29063 10.8813 1.3125 10.9719C1.77813 10.3781 2.15 9.73125 2.4875 9.1C2.59063 8.90938 2.55938 8.675 2.40937 8.51875C1.5625 7.63125 1 6.65938 1 5.5ZM6.5 0C2.90937 0 0 2.46563 0 5.5C0 6.88125 0.61875 8.00313 1.4375 8.9375C1.07187 9.59375 0.6875 10.2063 0.203125 10.7344L0.2 10.7375C-0.003125 10.9563 -0.05625 11.2719 0.0625 11.5437C0.18125 11.8219 0.45 12 0.75 12C2.09375 12 3.45312 11.5844 4.58437 11.0719C4.7375 11.0031 4.88438 10.9312 5.03125 10.8594C5.50938 10.9469 5.99687 11.0031 6.5 11.0031C10.0906 11.0031 13 8.5375 13 5.50313C13 2.46875 10.0906 0 6.5 0ZM13.9812 5.01562C16.925 5.21875 19 7.28125 19 9.5C19 10.6594 18.4375 11.6313 17.5906 12.5188C17.4406 12.675 17.4094 12.9094 17.5125 13.1C17.8531 13.7313 18.2219 14.375 18.6875 14.9719C17.7094 14.8781 16.7125 14.5594 15.8281 14.1594C15.6406 14.075 15.4563 13.9844 15.2656 13.8875C15.1656 13.8375 15.0531 13.8219 14.9469 13.8438C14.4594 13.9406 13.9812 14 13.5 14C11.3687 14 9.6375 13.0406 8.71562 11.7094C8.37187 11.8031 8.01875 11.8719 7.65938 11.9219C8.71875 13.7437 10.9344 15 13.5 15C14.0031 15 14.4906 14.9437 14.9688 14.8562C15.1125 14.9281 15.2625 15 15.4156 15.0688C16.5469 15.5844 17.9062 16 19.25 16C19.55 16 19.8188 15.8219 19.9375 15.5469C20.0562 15.275 20 14.9563 19.8 14.7406L19.7969 14.7375C19.3125 14.2063 18.9281 13.5969 18.5625 12.9406C19.3813 12.0063 20 10.8844 20 9.50313C20 6.55313 17.2563 4.14375 13.8062 4.00938C13.8937 4.33437 13.9531 4.67188 13.9812 5.01875V5.01562Z" fill="white"/>
</g>
<defs>
<clipPath id="clip0_3370_36930">
<rect width="20" height="16" fill="white"/>
</clipPath>
</defs>
</svg>
