<svg width="137" height="128" viewBox="0 0 137 128" fill="none" xmlns="http://www.w3.org/2000/svg">
<g filter="url(#filter0_d_4438_45486)">
<rect x="5.82812" y="5.16016" width="127.672" height="117.72" rx="6.84941" fill="white" shape-rendering="crispEdges"/>
<rect x="6.32812" y="5.66016" width="126.672" height="116.72" rx="6.34941" stroke="#CBD5E1" stroke-opacity="0.5" shape-rendering="crispEdges"/>
<path d="M67.2935 43.75C67.2935 43.0207 67.5786 42.3212 68.0861 41.8055C68.5935 41.2897 69.2818 41 69.9995 41C70.7172 41 71.4055 41.2897 71.913 41.8055C72.4204 42.3212 72.7055 43.0207 72.7055 43.75C72.7055 44.4793 72.4204 45.1788 71.913 45.6945C71.4055 46.2103 70.7172 46.5 69.9995 46.5C69.2818 46.5 68.5935 46.2103 68.0861 45.6945C67.5786 45.1788 67.2935 44.4793 67.2935 43.75ZM65.6826 51.0289C65.8263 49.2457 67.2935 47.875 69.0524 47.875H70.9466C72.7055 47.875 74.1727 49.2457 74.3165 51.0289L74.4898 53.1473C74.5955 54.4277 73.826 55.5578 72.7055 55.966V60.9375C72.7055 62.0762 71.7965 63 70.676 63H69.323C68.2025 63 67.2935 62.0762 67.2935 60.9375V55.966C66.173 55.5578 65.4035 54.4277 65.5092 53.1473L65.6826 51.0289Z" fill="#424242"/>
<path d="M50.9943 88.5664V80.0269H54.0382C54.7025 80.0269 55.2529 80.1478 55.6894 80.3896C56.1258 80.6315 56.4524 80.9623 56.6692 81.382C56.8861 81.799 56.9945 82.2688 56.9945 82.7914C56.9945 83.3168 56.8847 83.7893 56.6651 84.2091C56.4482 84.6261 56.1202 84.9568 55.681 85.2015C55.2446 85.4433 54.6956 85.5642 54.034 85.5642H51.9408V84.4718H53.9172C54.337 84.4718 54.6775 84.3995 54.9388 84.2549C55.2001 84.1076 55.3919 83.9075 55.5142 83.6545C55.6365 83.4016 55.6977 83.1138 55.6977 82.7914C55.6977 82.4689 55.6365 82.1826 55.5142 81.9324C55.3919 81.6823 55.1987 81.4863 54.9346 81.3445C54.6733 81.2027 54.3286 81.1319 53.9006 81.1319H52.2827V88.5664H50.9943ZM61.0849 88.6957C60.4539 88.6957 59.9105 88.5608 59.4546 88.2912C59.0015 88.0188 58.6512 87.6366 58.4038 87.1445C58.1592 86.6497 58.0369 86.0702 58.0369 85.4058C58.0369 84.7498 58.1592 84.1716 58.4038 83.6712C58.6512 83.1708 58.9959 82.7803 59.4379 82.4995C59.8827 82.2188 60.4025 82.0784 60.9974 82.0784C61.3587 82.0784 61.709 82.1381 62.0481 82.2577C62.3873 82.3772 62.6916 82.5648 62.9613 82.8206C63.2309 83.0763 63.4436 83.4085 63.5993 83.8171C63.7549 84.223 63.8328 84.7164 63.8328 85.2974V85.7394H58.7416V84.8053H62.611C62.611 84.4773 62.5443 84.1868 62.4109 83.9339C62.2775 83.6781 62.0898 83.4766 61.848 83.3293C61.6089 83.1819 61.3282 83.1083 61.0057 83.1083C60.6555 83.1083 60.3497 83.1945 60.0884 83.3668C59.8299 83.5364 59.6297 83.7588 59.4879 84.034C59.349 84.3064 59.2795 84.6024 59.2795 84.9221V85.6518C59.2795 86.0799 59.3545 86.444 59.5046 86.7443C59.6575 87.0445 59.8702 87.2738 60.1426 87.4323C60.415 87.5879 60.7333 87.6658 61.0974 87.6658C61.3337 87.6658 61.5492 87.6324 61.7437 87.5657C61.9383 87.4962 62.1065 87.3933 62.2483 87.2571C62.39 87.1209 62.4985 86.9527 62.5735 86.7526L63.7535 86.9652C63.659 87.3127 63.4895 87.6171 63.2448 87.8784C63.003 88.1369 62.6986 88.3385 62.3317 88.483C61.9675 88.6248 61.5519 88.6957 61.0849 88.6957ZM65.216 88.5664V82.1618H66.4211V83.1792H66.4878C66.6046 82.8345 66.8103 82.5634 67.1049 82.3661C67.4024 82.1659 67.7387 82.0659 68.114 82.0659C68.1918 82.0659 68.2835 82.0686 68.3892 82.0742C68.4976 82.0798 68.5824 82.0867 68.6435 82.0951V83.2876C68.5935 83.2737 68.5045 83.2584 68.3767 83.2417C68.2488 83.2223 68.1209 83.2125 67.9931 83.2125C67.6984 83.2125 67.4357 83.2751 67.205 83.4002C66.977 83.5225 66.7964 83.6934 66.6629 83.913C66.5295 84.1299 66.4628 84.3773 66.4628 84.6552V88.5664H65.216ZM74.5217 83.7254L73.3918 83.9255C73.3445 83.781 73.2695 83.6434 73.1666 83.5127C73.0665 83.3821 72.9303 83.2751 72.758 83.1917C72.5856 83.1083 72.3702 83.0666 72.1117 83.0666C71.7586 83.0666 71.464 83.1458 71.2277 83.3043C70.9914 83.4599 70.8733 83.6615 70.8733 83.9089C70.8733 84.1229 70.9525 84.2953 71.1109 84.4259C71.2694 84.5566 71.5251 84.6636 71.8782 84.747L72.8956 84.9805C73.4849 85.1167 73.9241 85.3266 74.2132 85.6101C74.5023 85.8936 74.6468 86.262 74.6468 86.7151C74.6468 87.0987 74.5356 87.4406 74.3133 87.7408C74.0937 88.0382 73.7865 88.2717 73.3918 88.4413C72.9998 88.6109 72.5453 88.6957 72.0283 88.6957C71.3111 88.6957 70.7259 88.5428 70.2728 88.237C69.8197 87.9284 69.5418 87.4906 69.4389 86.9235L70.6439 86.7401C70.719 87.0542 70.8733 87.2919 71.1068 87.4531C71.3403 87.6115 71.6447 87.6908 72.0199 87.6908C72.4286 87.6908 72.7552 87.606 72.9998 87.4364C73.2444 87.2641 73.3667 87.0542 73.3667 86.8068C73.3667 86.6067 73.2917 86.4385 73.1416 86.3023C72.9943 86.1661 72.7677 86.0632 72.4619 85.9937L71.3778 85.756C70.7801 85.6198 70.3382 85.403 70.0518 85.1056C69.7683 84.8081 69.6265 84.4315 69.6265 83.9756C69.6265 83.5975 69.7322 83.2667 69.9434 82.9832C70.1547 82.6997 70.4466 82.4787 70.8191 82.3202C71.1916 82.159 71.6183 82.0784 72.0992 82.0784C72.7913 82.0784 73.3362 82.2285 73.7337 82.5287C74.1312 82.8261 74.3939 83.225 74.5217 83.7254ZM78.7154 88.6957C78.115 88.6957 77.591 88.5581 77.1434 88.2829C76.6959 88.0077 76.3484 87.6227 76.101 87.1279C75.8536 86.6331 75.7299 86.0549 75.7299 85.3933C75.7299 84.7289 75.8536 84.1479 76.101 83.6503C76.3484 83.1528 76.6959 82.7664 77.1434 82.4912C77.591 82.216 78.115 82.0784 78.7154 82.0784C79.3158 82.0784 79.8398 82.216 80.2874 82.4912C80.7349 82.7664 81.0824 83.1528 81.3298 83.6503C81.5772 84.1479 81.7009 84.7289 81.7009 85.3933C81.7009 86.0549 81.5772 86.6331 81.3298 87.1279C81.0824 87.6227 80.7349 88.0077 80.2874 88.2829C79.8398 88.5581 79.3158 88.6957 78.7154 88.6957ZM78.7196 87.6491C79.1088 87.6491 79.4312 87.5462 79.687 87.3405C79.9427 87.1348 80.1317 86.861 80.254 86.5191C80.3791 86.1772 80.4417 85.8005 80.4417 85.3891C80.4417 84.9805 80.3791 84.6052 80.254 84.2633C80.1317 83.9186 79.9427 83.642 79.687 83.4335C79.4312 83.225 79.1088 83.1208 78.7196 83.1208C78.3276 83.1208 78.0024 83.225 77.7439 83.4335C77.4881 83.642 77.2977 83.9186 77.1726 84.2633C77.0503 84.6052 76.9892 84.9805 76.9892 85.3891C76.9892 85.8005 77.0503 86.1772 77.1726 86.5191C77.2977 86.861 77.4881 87.1348 77.7439 87.3405C78.0024 87.5462 78.3276 87.6491 78.7196 87.6491ZM84.3393 84.7637V88.5664H83.0925V82.1618H84.2892V83.2042H84.3685C84.5158 82.8651 84.7465 82.5926 85.0606 82.3869C85.3775 82.1812 85.7764 82.0784 86.2573 82.0784C86.6938 82.0784 87.076 82.1701 87.404 82.3536C87.732 82.5343 87.9864 82.8039 88.167 83.1625C88.3477 83.5211 88.4381 83.9645 88.4381 84.4926V88.5664H87.1913V84.6427C87.1913 84.1785 87.0704 83.8157 86.8286 83.5544C86.5867 83.2904 86.2546 83.1583 85.832 83.1583C85.5429 83.1583 85.2858 83.2209 85.0606 83.346C84.8382 83.471 84.6617 83.6545 84.5311 83.8964C84.4032 84.1354 84.3393 84.4245 84.3393 84.7637Z" fill="#424242"/>
</g>
<defs>
<filter id="filter0_d_4438_45486" x="0.828125" y="0.160156" width="137.672" height="127.719" filterUnits="userSpaceOnUse" color-interpolation-filters="sRGB">
<feFlood flood-opacity="0" result="BackgroundImageFix"/>
<feColorMatrix in="SourceAlpha" type="matrix" values="0 0 0 0 0 0 0 0 0 0 0 0 0 0 0 0 0 0 127 0" result="hardAlpha"/>
<feOffset/>
<feGaussianBlur stdDeviation="2.5"/>
<feComposite in2="hardAlpha" operator="out"/>
<feColorMatrix type="matrix" values="0 0 0 0 0 0 0 0 0 0 0 0 0 0 0 0 0 0 0.18 0"/>
<feBlend mode="normal" in2="BackgroundImageFix" result="effect1_dropShadow_4438_45486"/>
<feBlend mode="normal" in="SourceGraphic" in2="effect1_dropShadow_4438_45486" result="shape"/>
</filter>
</defs>
</svg>
