<svg width="137" height="128" viewBox="0 0 137 128" fill="none" xmlns="http://www.w3.org/2000/svg">
<g filter="url(#filter0_d_4438_45480)">
<rect x="3.5" y="5.16016" width="127.672" height="117.72" rx="6.84941" fill="white" shape-rendering="crispEdges"/>
<rect x="4" y="5.66016" width="126.672" height="116.72" rx="6.34941" stroke="#CBD5E1" stroke-opacity="0.5" shape-rendering="crispEdges"/>
<g clip-path="url(#clip0_4438_45480)">
<path d="M65.944 41C64.228 41 62.8328 42.2332 62.8328 43.75V60.25C62.8328 61.7668 64.228 63 65.944 63H78.3884C80.1044 63 81.4995 61.7668 81.4995 60.25V43.75C81.4995 42.2332 80.1044 41 78.3884 41H65.944ZM58.1662 44.0938V59.9062C58.1662 60.4777 58.6863 60.9375 59.3328 60.9375C59.9794 60.9375 60.4995 60.4777 60.4995 59.9062V44.0938C60.4995 43.5223 59.9794 43.0625 59.3328 43.0625C58.6863 43.0625 58.1662 43.5223 58.1662 44.0938ZM53.4995 46.1562V57.8438C53.4995 58.4152 54.0197 58.875 54.6662 58.875C55.3127 58.875 55.8328 58.4152 55.8328 57.8438V46.1562C55.8328 45.5848 55.3127 45.125 54.6662 45.125C54.0197 45.125 53.4995 45.5848 53.4995 46.1562Z" fill="#424242"/>
</g>
<path d="M30.4227 88.5664V80.0269H33.4666C34.131 80.0269 34.6814 80.1478 35.1178 80.3896C35.5542 80.6315 35.8809 80.9623 36.0977 81.382C36.3145 81.799 36.4229 82.2688 36.4229 82.7914C36.4229 83.3168 36.3131 83.7893 36.0935 84.2091C35.8767 84.6261 35.5487 84.9568 35.1095 85.2015C34.673 85.4433 34.124 85.5642 33.4624 85.5642H31.3693V84.4718H33.3457C33.7654 84.4718 34.106 84.3995 34.3673 84.2549C34.6286 84.1076 34.8204 83.9075 34.9427 83.6545C35.065 83.4016 35.1261 83.1138 35.1261 82.7914C35.1261 82.4689 35.065 82.1826 34.9427 81.9324C34.8204 81.6823 34.6272 81.4863 34.3631 81.3445C34.1018 81.2027 33.7571 81.1319 33.329 81.1319H31.7112V88.5664H30.4227ZM39.08 84.7637V88.5664H37.8333V80.0269H39.0634V83.2042H39.1426C39.2927 82.8595 39.522 82.5857 39.8306 82.3828C40.1391 82.1798 40.5422 82.0784 41.0398 82.0784C41.479 82.0784 41.8626 82.1687 42.1906 82.3494C42.5214 82.5301 42.7772 82.7997 42.9579 83.1583C43.1413 83.5141 43.2331 83.9589 43.2331 84.4926V88.5664H41.9863V84.6427C41.9863 84.1729 41.8654 83.8088 41.6236 83.5503C41.3817 83.289 41.0454 83.1583 40.6145 83.1583C40.3198 83.1583 40.0558 83.2209 39.8223 83.346C39.5915 83.471 39.4095 83.6545 39.276 83.8964C39.1454 84.1354 39.08 84.4245 39.08 84.7637ZM47.5946 88.6957C46.9941 88.6957 46.4701 88.5581 46.0226 88.2829C45.575 88.0077 45.2276 87.6227 44.9802 87.1279C44.7328 86.6331 44.6091 86.0549 44.6091 85.3933C44.6091 84.7289 44.7328 84.1479 44.9802 83.6503C45.2276 83.1528 45.575 82.7664 46.0226 82.4912C46.4701 82.216 46.9941 82.0784 47.5946 82.0784C48.195 82.0784 48.719 82.216 49.1665 82.4912C49.6141 82.7664 49.9615 83.1528 50.2089 83.6503C50.4563 84.1479 50.58 84.7289 50.58 85.3933C50.58 86.0549 50.4563 86.6331 50.2089 87.1279C49.9615 87.6227 49.6141 88.0077 49.1665 88.2829C48.719 88.5581 48.195 88.6957 47.5946 88.6957ZM47.5987 87.6491C47.9879 87.6491 48.3103 87.5462 48.5661 87.3405C48.8218 87.1348 49.0109 86.861 49.1332 86.5191C49.2583 86.1772 49.3208 85.8005 49.3208 85.3891C49.3208 84.9805 49.2583 84.6052 49.1332 84.2633C49.0109 83.9186 48.8218 83.642 48.5661 83.4335C48.3103 83.225 47.9879 83.1208 47.5987 83.1208C47.2068 83.1208 46.8815 83.225 46.623 83.4335C46.3673 83.642 46.1769 83.9186 46.0518 84.2633C45.9295 84.6052 45.8683 84.9805 45.8683 85.3891C45.8683 85.8005 45.9295 86.1772 46.0518 86.5191C46.1769 86.861 46.3673 87.1348 46.623 87.3405C46.8815 87.5462 47.2068 87.6491 47.5987 87.6491ZM54.9613 82.1618V83.1625H51.463V82.1618H54.9613ZM52.4012 80.6273H53.6479V86.6859C53.6479 86.9277 53.684 87.1098 53.7563 87.2321C53.8286 87.3516 53.9217 87.4336 54.0357 87.4781C54.1524 87.5198 54.2789 87.5407 54.4151 87.5407C54.5152 87.5407 54.6028 87.5337 54.6778 87.5198C54.7529 87.5059 54.8112 87.4948 54.8529 87.4865L55.0781 88.5164C55.0058 88.5442 54.903 88.572 54.7695 88.5998C54.6361 88.6303 54.4693 88.647 54.2692 88.6498C53.9412 88.6554 53.6354 88.597 53.3518 88.4747C53.0683 88.3524 52.839 88.1633 52.6638 87.9076C52.4887 87.6519 52.4012 87.3308 52.4012 86.9444V80.6273ZM58.9695 88.6957C58.369 88.6957 57.845 88.5581 57.3975 88.2829C56.9499 88.0077 56.6025 87.6227 56.3551 87.1279C56.1077 86.6331 55.984 86.0549 55.984 85.3933C55.984 84.7289 56.1077 84.1479 56.3551 83.6503C56.6025 83.1528 56.9499 82.7664 57.3975 82.4912C57.845 82.216 58.369 82.0784 58.9695 82.0784C59.5699 82.0784 60.0939 82.216 60.5414 82.4912C60.989 82.7664 61.3365 83.1528 61.5839 83.6503C61.8313 84.1479 61.955 84.7289 61.955 85.3933C61.955 86.0549 61.8313 86.6331 61.5839 87.1279C61.3365 87.6227 60.989 88.0077 60.5414 88.2829C60.0939 88.5581 59.5699 88.6957 58.9695 88.6957ZM58.9736 87.6491C59.3628 87.6491 59.6853 87.5462 59.941 87.3405C60.1967 87.1348 60.3858 86.861 60.5081 86.5191C60.6332 86.1772 60.6957 85.8005 60.6957 85.3891C60.6957 84.9805 60.6332 84.6052 60.5081 84.2633C60.3858 83.9186 60.1967 83.642 59.941 83.4335C59.6853 83.225 59.3628 83.1208 58.9736 83.1208C58.5817 83.1208 58.2564 83.225 57.9979 83.4335C57.7422 83.642 57.5518 83.9186 57.4267 84.2633C57.3044 84.6052 57.2432 84.9805 57.2432 85.3891C57.2432 85.8005 57.3044 86.1772 57.4267 86.5191C57.5518 86.861 57.7422 87.1348 57.9979 87.3405C58.2564 87.5462 58.5817 87.6491 58.9736 87.6491ZM72.3333 82.7247C72.2527 82.4717 72.1443 82.2452 72.0081 82.045C71.8746 81.8421 71.7148 81.6697 71.5286 81.528C71.3423 81.3834 71.1297 81.2736 70.8906 81.1986C70.6543 81.1235 70.3944 81.086 70.1109 81.086C69.63 81.086 69.1963 81.2097 68.8099 81.4571C68.4235 81.7045 68.1178 82.0673 67.8926 82.5454C67.6702 83.0207 67.559 83.6031 67.559 84.2925C67.559 84.9846 67.6716 85.5698 67.8968 86.0479C68.1219 86.526 68.4305 86.8888 68.8224 87.1362C69.2144 87.3836 69.6605 87.5073 70.1609 87.5073C70.6251 87.5073 71.0296 87.4128 71.3743 87.2238C71.7218 87.0347 71.99 86.7679 72.179 86.4232C72.3708 86.0757 72.4667 85.6671 72.4667 85.1973L72.8003 85.2598H70.3569V84.1966H73.7135V85.1681C73.7135 85.8853 73.5606 86.508 73.2548 87.0361C72.9518 87.5615 72.5321 87.9674 71.9956 88.2537C71.4618 88.54 70.8503 88.6832 70.1609 88.6832C69.3881 88.6832 68.7098 88.5053 68.1261 88.1494C67.5451 87.7936 67.092 87.2891 66.7668 86.6358C66.4415 85.9798 66.2789 85.2015 66.2789 84.3008C66.2789 83.6198 66.3734 83.0082 66.5625 82.4662C66.7515 81.9241 67.017 81.464 67.3589 81.086C67.7036 80.7052 68.108 80.4147 68.5722 80.2145C69.0393 80.0116 69.5493 79.9101 70.1025 79.9101C70.564 79.9101 70.9934 79.9782 71.391 80.1144C71.7912 80.2507 72.1471 80.4439 72.4584 80.694C72.7725 80.9442 73.0324 81.2417 73.2381 81.5863C73.4438 81.9283 73.5828 82.3077 73.6551 82.7247H72.3333ZM77.1128 88.7082C76.707 88.7082 76.34 88.6331 76.012 88.483C75.684 88.3301 75.4241 88.1091 75.2323 87.82C75.0433 87.5309 74.9487 87.1765 74.9487 86.7568C74.9487 86.3954 75.0182 86.098 75.1572 85.8644C75.2962 85.6309 75.4839 85.4461 75.7201 85.3099C75.9564 85.1737 76.2205 85.0708 76.5124 85.0013C76.8043 84.9318 77.1017 84.879 77.4047 84.8429C77.7883 84.7984 78.0996 84.7623 78.3387 84.7345C78.5778 84.7039 78.7515 84.6552 78.8599 84.5885C78.9683 84.5218 79.0225 84.4134 79.0225 84.2633V84.2341C79.0225 83.8699 78.9197 83.5878 78.714 83.3877C78.511 83.1875 78.2081 83.0874 77.805 83.0874C77.3852 83.0874 77.0544 83.1806 76.8126 83.3668C76.5735 83.5503 76.4081 83.7546 76.3164 83.9797L75.1447 83.7129C75.2837 83.3237 75.4866 83.0096 75.7535 82.7705C76.0231 82.5287 76.3331 82.3536 76.6833 82.2452C77.0336 82.134 77.4019 82.0784 77.7883 82.0784C78.044 82.0784 78.3151 82.109 78.6014 82.1701C78.8905 82.2285 79.1601 82.3369 79.4103 82.4953C79.6633 82.6538 79.8704 82.8803 80.0316 83.175C80.1928 83.4669 80.2734 83.8463 80.2734 84.3133V88.5664H79.0559V87.6908H79.0059C78.9252 87.852 78.8043 88.0104 78.6431 88.1661C78.4819 88.3218 78.2748 88.451 78.0218 88.5539C77.7688 88.6567 77.4658 88.7082 77.1128 88.7082ZM77.3838 87.7075C77.7285 87.7075 78.0232 87.6393 78.2678 87.5031C78.5152 87.3669 78.7029 87.189 78.8307 86.9694C78.9614 86.747 79.0267 86.5094 79.0267 86.2564V85.4308C78.9822 85.4753 78.896 85.517 78.7682 85.5559C78.6431 85.592 78.4999 85.624 78.3387 85.6518C78.1775 85.6768 78.0204 85.7004 77.8675 85.7227C77.7146 85.7421 77.5868 85.7588 77.4839 85.7727C77.2421 85.8033 77.0211 85.8547 76.8209 85.927C76.6236 85.9993 76.4651 86.1035 76.3456 86.2397C76.2288 86.3732 76.1705 86.5511 76.1705 86.7734C76.1705 87.082 76.2844 87.3155 76.5124 87.4739C76.7403 87.6296 77.0308 87.7075 77.3838 87.7075ZM83.1807 80.0269V88.5664H81.934V80.0269H83.1807ZM86.1047 80.0269V88.5664H84.858V80.0269H86.1047ZM90.5423 88.6957C89.9113 88.6957 89.3679 88.5608 88.912 88.2912C88.4589 88.0188 88.1086 87.6366 87.8612 87.1445C87.6166 86.6497 87.4943 86.0702 87.4943 85.4058C87.4943 84.7498 87.6166 84.1716 87.8612 83.6712C88.1086 83.1708 88.4533 82.7803 88.8953 82.4995C89.3401 82.2188 89.8599 82.0784 90.4548 82.0784C90.8161 82.0784 91.1664 82.1381 91.5055 82.2577C91.8447 82.3772 92.149 82.5648 92.4187 82.8206C92.6883 83.0763 92.901 83.4085 93.0567 83.8171C93.2123 84.223 93.2902 84.7164 93.2902 85.2974V85.7394H88.199V84.8053H92.0684C92.0684 84.4773 92.0017 84.1868 91.8683 83.9339C91.7349 83.6781 91.5472 83.4766 91.3054 83.3293C91.0663 83.1819 90.7856 83.1083 90.4631 83.1083C90.1129 83.1083 89.8071 83.1945 89.5458 83.3668C89.2873 83.5364 89.0871 83.7588 88.9453 84.034C88.8064 84.3064 88.7369 84.6024 88.7369 84.9221V85.6518C88.7369 86.0799 88.8119 86.444 88.962 86.7443C89.1149 87.0445 89.3276 87.2738 89.6 87.4323C89.8724 87.5879 90.1907 87.6658 90.5548 87.6658C90.7911 87.6658 91.0066 87.6324 91.2011 87.5657C91.3957 87.4962 91.5639 87.3933 91.7057 87.2571C91.8474 87.1209 91.9559 86.9527 92.0309 86.7526L93.2109 86.9652C93.1164 87.3127 92.9468 87.6171 92.7022 87.8784C92.4604 88.1369 92.156 88.3385 91.7891 88.483C91.4249 88.6248 91.0093 88.6957 90.5423 88.6957ZM94.6734 88.5664V82.1618H95.8785V83.1792H95.9452C96.062 82.8345 96.2677 82.5634 96.5623 82.3661C96.8598 82.1659 97.1961 82.0659 97.5714 82.0659C97.6492 82.0659 97.7409 82.0686 97.8466 82.0742C97.955 82.0798 98.0398 82.0867 98.1009 82.0951V83.2876C98.0509 83.2737 97.9619 83.2584 97.8341 83.2417C97.7062 83.2223 97.5783 83.2125 97.4505 83.2125C97.1558 83.2125 96.8931 83.2751 96.6624 83.4002C96.4344 83.5225 96.2538 83.6934 96.1203 83.913C95.9869 84.1299 95.9202 84.3773 95.9202 84.6552V88.5664H94.6734ZM100.163 90.9681C99.9766 90.9681 99.807 90.9529 99.6541 90.9223C99.5013 90.8945 99.3873 90.8639 99.3122 90.8305L99.6124 89.809C99.8404 89.8701 100.043 89.8965 100.221 89.8882C100.399 89.8799 100.556 89.8131 100.692 89.6881C100.831 89.563 100.954 89.3586 101.059 89.0751L101.214 88.6498L98.8702 82.1618H100.205L101.827 87.132H101.893L103.515 82.1618H104.854L102.214 89.4212C102.092 89.7548 101.936 90.0369 101.747 90.2676C101.558 90.5011 101.333 90.6763 101.072 90.793C100.811 90.9098 100.508 90.9681 100.163 90.9681Z" fill="#424242"/>
</g>
<defs>
<filter id="filter0_d_4438_45480" x="-1.5" y="0.160156" width="137.672" height="127.719" filterUnits="userSpaceOnUse" color-interpolation-filters="sRGB">
<feFlood flood-opacity="0" result="BackgroundImageFix"/>
<feColorMatrix in="SourceAlpha" type="matrix" values="0 0 0 0 0 0 0 0 0 0 0 0 0 0 0 0 0 0 127 0" result="hardAlpha"/>
<feOffset/>
<feGaussianBlur stdDeviation="2.5"/>
<feComposite in2="hardAlpha" operator="out"/>
<feColorMatrix type="matrix" values="0 0 0 0 0 0 0 0 0 0 0 0 0 0 0 0 0 0 0.18 0"/>
<feBlend mode="normal" in2="BackgroundImageFix" result="effect1_dropShadow_4438_45480"/>
<feBlend mode="normal" in="SourceGraphic" in2="effect1_dropShadow_4438_45480" result="shape"/>
</filter>
<clipPath id="clip0_4438_45480">
<rect width="28" height="22" fill="white" transform="translate(53.4995 41)"/>
</clipPath>
</defs>
</svg>
