<svg width="137" height="129" viewBox="0 0 137 129" fill="none" xmlns="http://www.w3.org/2000/svg">
<g filter="url(#filter0_d_4438_45467)">
<rect x="3.5" y="5.4375" width="127.672" height="117.72" rx="6.84941" fill="white" shape-rendering="crispEdges"/>
<rect x="4" y="5.9375" width="126.672" height="116.72" rx="6.34941" stroke="#CBD5E1" stroke-opacity="0.5" shape-rendering="crispEdges"/>
<g clip-path="url(#clip0_4438_45467)">
<path d="M59.0995 44.0938C59.378 44.0938 59.6451 44.2024 59.842 44.3958C60.0389 44.5892 60.1495 44.8515 60.1495 45.125C60.1495 45.3985 60.0389 45.6608 59.842 45.8542C59.6451 46.0476 59.378 46.1562 59.0995 46.1562C58.821 46.1562 58.554 46.0476 58.357 45.8542C58.1601 45.6608 58.0495 45.3985 58.0495 45.125C58.0495 44.8515 58.1601 44.5892 58.357 44.3958C58.554 44.2024 58.821 44.0938 59.0995 44.0938ZM60.4995 48.2746C61.7376 47.7461 62.5995 46.5344 62.5995 45.125C62.5995 43.2258 61.0333 41.6875 59.0995 41.6875C57.1658 41.6875 55.5995 43.2258 55.5995 45.125C55.5995 46.5344 56.4614 47.7461 57.6995 48.2746V50.625H54.8995C54.1251 50.625 53.4995 51.2395 53.4995 52C53.4995 52.7605 54.1251 53.375 54.8995 53.375H66.0995V55.7254C64.8614 56.2539 63.9995 57.4656 63.9995 58.875C63.9995 60.7742 65.5658 62.3125 67.4995 62.3125C69.4333 62.3125 70.9995 60.7742 70.9995 58.875C70.9995 57.4656 70.1376 56.2539 68.8995 55.7254V53.375H80.0995C80.8739 53.375 81.4995 52.7605 81.4995 52C81.4995 51.2395 80.8739 50.625 80.0995 50.625H77.2995V48.2746C78.5376 47.7461 79.3995 46.5344 79.3995 45.125C79.3995 43.2258 77.8333 41.6875 75.8995 41.6875C73.9658 41.6875 72.3995 43.2258 72.3995 45.125C72.3995 46.5344 73.2614 47.7461 74.4995 48.2746V50.625H60.4995V48.2746ZM74.8495 45.125C74.8495 44.8515 74.9601 44.5892 75.157 44.3958C75.354 44.2024 75.621 44.0938 75.8995 44.0938C76.178 44.0938 76.4451 44.2024 76.642 44.3958C76.8389 44.5892 76.9495 44.8515 76.9495 45.125C76.9495 45.3985 76.8389 45.6608 76.642 45.8542C76.4451 46.0476 76.178 46.1562 75.8995 46.1562C75.621 46.1562 75.354 46.0476 75.157 45.8542C74.9601 45.6608 74.8495 45.3985 74.8495 45.125ZM67.4995 57.8438C67.778 57.8438 68.0451 57.9524 68.242 58.1458C68.4389 58.3392 68.5495 58.6015 68.5495 58.875C68.5495 59.1485 68.4389 59.4108 68.242 59.6042C68.0451 59.7976 67.778 59.9062 67.4995 59.9062C67.221 59.9062 66.954 59.7976 66.757 59.6042C66.5601 59.4108 66.4495 59.1485 66.4495 58.875C66.4495 58.6015 66.5601 58.3392 66.757 58.1458C66.954 57.9524 67.221 57.8438 67.4995 57.8438Z" fill="#424242"/>
</g>
<path d="M26.4094 88.8438V80.3042H29.4533C30.1177 80.3042 30.6681 80.4252 31.1045 80.667C31.5409 80.9088 31.8675 81.2396 32.0844 81.6594C32.3012 82.0763 32.4096 82.5461 32.4096 83.0687C32.4096 83.5941 32.2998 84.0667 32.0802 84.4864C31.8634 84.9034 31.5353 85.2342 31.0961 85.4788C30.6597 85.7207 30.1107 85.8416 29.4491 85.8416H27.3559V84.7491H29.3324C29.7521 84.7491 30.0926 84.6768 30.3539 84.5323C30.6152 84.385 30.807 84.1848 30.9294 83.9319C31.0517 83.6789 31.1128 83.3912 31.1128 83.0687C31.1128 82.7463 31.0517 82.46 30.9294 82.2098C30.807 81.9596 30.6138 81.7636 30.3498 81.6219C30.0885 81.4801 29.7438 81.4092 29.3157 81.4092H27.6978V88.8438H26.4094ZM35.0667 85.041V88.8438H33.82V80.3042H35.05V83.4815H35.1293C35.2794 83.1368 35.5087 82.863 35.8173 82.6601C36.1258 82.4572 36.5289 82.3557 37.0265 82.3557C37.4657 82.3557 37.8493 82.4461 38.1773 82.6267C38.5081 82.8074 38.7638 83.0771 38.9445 83.4357C39.128 83.7915 39.2197 84.2362 39.2197 84.77V88.8438H37.973V84.9201C37.973 84.4503 37.8521 84.0861 37.6102 83.8276C37.3684 83.5663 37.032 83.4357 36.6012 83.4357C36.3065 83.4357 36.0424 83.4982 35.8089 83.6233C35.5782 83.7484 35.3961 83.9319 35.2627 84.1737C35.1321 84.4128 35.0667 84.7019 35.0667 85.041ZM43.5812 88.973C42.9808 88.973 42.4568 88.8354 42.0093 88.5602C41.5617 88.285 41.2142 87.9 40.9668 87.4052C40.7194 86.9104 40.5957 86.3322 40.5957 85.6706C40.5957 85.0062 40.7194 84.4253 40.9668 83.9277C41.2142 83.4301 41.5617 83.0437 42.0093 82.7685C42.4568 82.4933 42.9808 82.3557 43.5812 82.3557C44.1817 82.3557 44.7057 82.4933 45.1532 82.7685C45.6007 83.0437 45.9482 83.4301 46.1956 83.9277C46.443 84.4253 46.5667 85.0062 46.5667 85.6706C46.5667 86.3322 46.443 86.9104 46.1956 87.4052C45.9482 87.9 45.6007 88.285 45.1532 88.5602C44.7057 88.8354 44.1817 88.973 43.5812 88.973ZM43.5854 87.9264C43.9746 87.9264 44.297 87.8236 44.5528 87.6179C44.8085 87.4122 44.9975 87.1383 45.1198 86.7964C45.2449 86.4545 45.3075 86.0779 45.3075 85.6664C45.3075 85.2578 45.2449 84.8825 45.1198 84.5406C44.9975 84.1959 44.8085 83.9193 44.5528 83.7109C44.297 83.5024 43.9746 83.3981 43.5854 83.3981C43.1934 83.3981 42.8682 83.5024 42.6097 83.7109C42.354 83.9193 42.1635 84.1959 42.0384 84.5406C41.9161 84.8825 41.855 85.2578 41.855 85.6664C41.855 86.0779 41.9161 86.4545 42.0384 86.7964C42.1635 87.1383 42.354 87.4122 42.6097 87.6179C42.8682 87.8236 43.1934 87.9264 43.5854 87.9264ZM50.948 82.4391V83.4398H47.4497V82.4391H50.948ZM48.3878 80.9047H49.6346V86.9632C49.6346 87.2051 49.6707 87.3871 49.743 87.5094C49.8153 87.629 49.9084 87.711 50.0224 87.7555C50.1391 87.7972 50.2656 87.818 50.4018 87.818C50.5019 87.818 50.5894 87.8111 50.6645 87.7972C50.7395 87.7833 50.7979 87.7721 50.8396 87.7638L51.0648 88.7937C50.9925 88.8215 50.8896 88.8493 50.7562 88.8771C50.6228 88.9077 50.456 88.9244 50.2559 88.9271C49.9278 88.9327 49.6221 88.8743 49.3385 88.752C49.055 88.6297 48.8257 88.4407 48.6505 88.1849C48.4754 87.9292 48.3878 87.6081 48.3878 87.2217V80.9047ZM54.9561 88.973C54.3557 88.973 53.8317 88.8354 53.3842 88.5602C52.9366 88.285 52.5891 87.9 52.3417 87.4052C52.0943 86.9104 51.9706 86.3322 51.9706 85.6706C51.9706 85.0062 52.0943 84.4253 52.3417 83.9277C52.5891 83.4301 52.9366 83.0437 53.3842 82.7685C53.8317 82.4933 54.3557 82.3557 54.9561 82.3557C55.5566 82.3557 56.0806 82.4933 56.5281 82.7685C56.9757 83.0437 57.3231 83.4301 57.5705 83.9277C57.8179 84.4253 57.9416 85.0062 57.9416 85.6706C57.9416 86.3322 57.8179 86.9104 57.5705 87.4052C57.3231 87.9 56.9757 88.285 56.5281 88.5602C56.0806 88.8354 55.5566 88.973 54.9561 88.973ZM54.9603 87.9264C55.3495 87.9264 55.6719 87.8236 55.9277 87.6179C56.1834 87.4122 56.3724 87.1383 56.4948 86.7964C56.6198 86.4545 56.6824 86.0779 56.6824 85.6664C56.6824 85.2578 56.6198 84.8825 56.4948 84.5406C56.3724 84.1959 56.1834 83.9193 55.9277 83.7109C55.6719 83.5024 55.3495 83.3981 54.9603 83.3981C54.5684 83.3981 54.2431 83.5024 53.9846 83.7109C53.7289 83.9193 53.5384 84.1959 53.4134 84.5406C53.291 84.8825 53.2299 85.2578 53.2299 85.6664C53.2299 86.0779 53.291 86.4545 53.4134 86.7964C53.5384 87.1383 53.7289 87.4122 53.9846 87.6179C54.2431 87.8236 54.5684 87.9264 54.9603 87.9264ZM62.1197 81.4134V80.3042H68.7286V81.4134H66.0642V88.8438H64.7799V81.4134H62.1197ZM70.089 88.8438V82.4391H71.3357V88.8438H70.089ZM70.7186 81.4509C70.5018 81.4509 70.3155 81.3786 70.1599 81.2341C70.007 81.0867 69.9305 80.9116 69.9305 80.7087C69.9305 80.503 70.007 80.3279 70.1599 80.1833C70.3155 80.036 70.5018 79.9623 70.7186 79.9623C70.9354 79.9623 71.1203 80.036 71.2732 80.1833C71.4288 80.3279 71.5067 80.503 71.5067 80.7087C71.5067 80.9116 71.4288 81.0867 71.2732 81.2341C71.1203 81.3786 70.9354 81.4509 70.7186 81.4509ZM73.013 88.8438V82.4391H74.2097V83.4815H74.2889C74.4223 83.1285 74.6405 82.8533 74.9435 82.6559C75.2465 82.4558 75.6093 82.3557 76.0318 82.3557C76.4599 82.3557 76.8185 82.4558 77.1076 82.6559C77.3995 82.8561 77.6149 83.1313 77.7539 83.4815H77.8206C77.9735 83.1396 78.2167 82.8672 78.5503 82.6643C78.8839 82.4586 79.2814 82.3557 79.7428 82.3557C80.3238 82.3557 80.7978 82.5378 81.1647 82.9019C81.5344 83.2661 81.7193 83.8151 81.7193 84.549V88.8438H80.4725V84.6657C80.4725 84.2321 80.3544 83.918 80.1181 83.7234C79.8818 83.5288 79.5997 83.4315 79.2717 83.4315C78.8658 83.4315 78.5503 83.5566 78.3252 83.8068C78.1 84.0542 77.9874 84.3725 77.9874 84.7616V88.8438H76.7448V84.5865C76.7448 84.239 76.6364 83.9597 76.4196 83.7484C76.2028 83.5371 75.9206 83.4315 75.5732 83.4315C75.3369 83.4315 75.1187 83.494 74.9185 83.6191C74.7212 83.7414 74.5613 83.9124 74.439 84.132C74.3195 84.3516 74.2597 84.606 74.2597 84.8951V88.8438H73.013ZM86.1506 88.973C85.5196 88.973 84.9761 88.8382 84.5203 88.5686C84.0672 88.2961 83.7169 87.9139 83.4695 87.4219C83.2249 86.9271 83.1026 86.3475 83.1026 85.6831C83.1026 85.0271 83.2249 84.4489 83.4695 83.9485C83.7169 83.4482 84.0616 83.0576 84.5036 82.7769C84.9484 82.4961 85.4682 82.3557 86.063 82.3557C86.4244 82.3557 86.7747 82.4155 87.1138 82.535C87.4529 82.6545 87.7573 82.8422 88.027 83.0979C88.2966 83.3537 88.5093 83.6858 88.6649 84.0945C88.8206 84.5003 88.8984 84.9937 88.8984 85.5747V86.0167H83.8072V85.0827H87.6767C87.6767 84.7547 87.61 84.4642 87.4766 84.2112C87.3431 83.9555 87.1555 83.754 86.9137 83.6066C86.6746 83.4593 86.3938 83.3856 86.0714 83.3856C85.7211 83.3856 85.4154 83.4718 85.1541 83.6441C84.8955 83.8137 84.6954 84.0361 84.5536 84.3113C84.4146 84.5837 84.3451 84.8798 84.3451 85.1994V85.9291C84.3451 86.3572 84.4202 86.7214 84.5703 87.0216C84.7232 87.3218 84.9358 87.5511 85.2083 87.7096C85.4807 87.8653 85.799 87.9431 86.1631 87.9431C86.3994 87.9431 86.6148 87.9097 86.8094 87.843C87.004 87.7735 87.1722 87.6707 87.314 87.5345C87.4557 87.3983 87.5641 87.2301 87.6392 87.0299L88.8192 87.2426C88.7247 87.5901 88.5551 87.8945 88.3105 88.1558C88.0687 88.4143 87.7643 88.6158 87.3973 88.7604C87.0332 88.9021 86.6176 88.973 86.1506 88.973ZM91.5285 80.3042V88.8438H90.2817V80.3042H91.5285ZM93.2057 88.8438V82.4391H94.4525V88.8438H93.2057ZM93.8353 81.4509C93.6185 81.4509 93.4323 81.3786 93.2766 81.2341C93.1237 81.0867 93.0473 80.9116 93.0473 80.7087C93.0473 80.503 93.1237 80.3279 93.2766 80.1833C93.4323 80.036 93.6185 79.9623 93.8353 79.9623C94.0522 79.9623 94.237 80.036 94.3899 80.1833C94.5456 80.3279 94.6234 80.503 94.6234 80.7087C94.6234 80.9116 94.5456 81.0867 94.3899 81.2341C94.237 81.3786 94.0522 81.4509 93.8353 81.4509ZM97.3765 85.041V88.8438H96.1297V82.4391H97.3264V83.4815H97.4056C97.553 83.1424 97.7837 82.87 98.0978 82.6643C98.4147 82.4586 98.8136 82.3557 99.2945 82.3557C99.7309 82.3557 100.113 82.4474 100.441 82.6309C100.769 82.8116 101.024 83.0812 101.204 83.4398C101.385 83.7984 101.475 84.2418 101.475 84.77V88.8438H100.229V84.9201C100.229 84.4558 100.108 84.0931 99.8658 83.8318C99.6239 83.5677 99.2917 83.4357 98.8692 83.4357C98.5801 83.4357 98.323 83.4982 98.0978 83.6233C97.8754 83.7484 97.6989 83.9319 97.5683 84.1737C97.4404 84.4128 97.3765 84.7019 97.3765 85.041ZM105.908 88.973C105.277 88.973 104.733 88.8382 104.277 88.5686C103.824 88.2961 103.474 87.9139 103.227 87.4219C102.982 86.9271 102.86 86.3475 102.86 85.6831C102.86 85.0271 102.982 84.4489 103.227 83.9485C103.474 83.4482 103.819 83.0576 104.261 82.7769C104.705 82.4961 105.225 82.3557 105.82 82.3557C106.181 82.3557 106.532 82.4155 106.871 82.535C107.21 82.6545 107.514 82.8422 107.784 83.0979C108.054 83.3537 108.266 83.6858 108.422 84.0945C108.578 84.5003 108.655 84.9937 108.655 85.5747V86.0167H103.564V85.0827H107.434C107.434 84.7547 107.367 84.4642 107.234 84.2112C107.1 83.9555 106.913 83.754 106.671 83.6066C106.432 83.4593 106.151 83.3856 105.828 83.3856C105.478 83.3856 105.172 83.4718 104.911 83.6441C104.653 83.8137 104.452 84.0361 104.311 84.3113C104.172 84.5837 104.102 84.8798 104.102 85.1994V85.9291C104.102 86.3572 104.177 86.7214 104.327 87.0216C104.48 87.3218 104.693 87.5511 104.965 87.7096C105.238 87.8653 105.556 87.9431 105.92 87.9431C106.156 87.9431 106.372 87.9097 106.566 87.843C106.761 87.7735 106.929 87.6707 107.071 87.5345C107.213 87.3983 107.321 87.2301 107.396 87.0299L108.576 87.2426C108.482 87.5901 108.312 87.8945 108.068 88.1558C107.826 88.4143 107.521 88.6158 107.154 88.7604C106.79 88.9021 106.375 88.973 105.908 88.973Z" fill="#424242"/>
</g>
<defs>
<filter id="filter0_d_4438_45467" x="-1.5" y="0.4375" width="137.672" height="127.719" filterUnits="userSpaceOnUse" color-interpolation-filters="sRGB">
<feFlood flood-opacity="0" result="BackgroundImageFix"/>
<feColorMatrix in="SourceAlpha" type="matrix" values="0 0 0 0 0 0 0 0 0 0 0 0 0 0 0 0 0 0 127 0" result="hardAlpha"/>
<feOffset/>
<feGaussianBlur stdDeviation="2.5"/>
<feComposite in2="hardAlpha" operator="out"/>
<feColorMatrix type="matrix" values="0 0 0 0 0 0 0 0 0 0 0 0 0 0 0 0 0 0 0.18 0"/>
<feBlend mode="normal" in2="BackgroundImageFix" result="effect1_dropShadow_4438_45467"/>
<feBlend mode="normal" in="SourceGraphic" in2="effect1_dropShadow_4438_45467" result="shape"/>
</filter>
<clipPath id="clip0_4438_45467">
<rect width="28" height="22" fill="white" transform="translate(53.4995 41)"/>
</clipPath>
</defs>
</svg>
