<svg width="137" height="129" viewBox="0 0 137 129" fill="none" xmlns="http://www.w3.org/2000/svg">
<g filter="url(#filter0_d_4438_45492)">
<rect x="3.5" y="5.87891" width="127.672" height="117.72" rx="6.84941" fill="white" shape-rendering="crispEdges"/>
<rect x="4" y="6.37891" width="126.672" height="116.72" rx="6.34941" stroke="#CBD5E1" stroke-opacity="0.5" shape-rendering="crispEdges"/>
<g clip-path="url(#clip0_4438_45492)">
<path d="M59.7995 62.625C56.3214 62.625 53.4995 59.8535 53.4995 56.4375C53.4995 53.7391 55.2583 51.4445 57.7083 50.598C57.7039 50.482 57.6995 50.366 57.6995 50.25C57.6995 46.4516 60.832 43.375 64.6995 43.375C67.2939 43.375 69.5558 44.7586 70.7676 46.8211C71.4326 46.3828 72.2376 46.125 73.0995 46.125C75.4183 46.125 77.2995 47.9727 77.2995 50.25C77.2995 50.7742 77.1989 51.2727 77.0195 51.7367C79.5745 52.2438 81.4995 54.4652 81.4995 57.125C81.4995 60.1629 78.9926 62.625 75.8995 62.625H59.7995ZM63.7283 50.4777L63.7108 50.5293C63.5183 51.0664 63.8026 51.6551 64.3495 51.8441C64.8964 52.0332 65.4958 51.7539 65.6883 51.2168L65.7058 51.1652C65.7539 51.0277 65.8895 50.9375 66.0339 50.9375H68.5845C68.952 50.9375 69.2451 51.2297 69.2451 51.5863C69.2451 51.8184 69.1183 52.0332 68.9126 52.1492L66.9745 53.2406C66.6464 53.4254 66.4451 53.7648 66.4451 54.1344V54.7188C66.4451 55.2902 66.9133 55.75 67.4951 55.75C68.0683 55.75 68.5364 55.2988 68.5451 54.7359L69.9583 53.941C70.8158 53.4555 71.3451 52.5574 71.3451 51.5863C71.3451 50.0867 70.107 48.875 68.5845 48.875H66.0383C65.0014 48.875 64.0783 49.5152 63.7283 50.4777ZM68.8995 58.5C68.8995 58.1353 68.752 57.7856 68.4895 57.5277C68.2269 57.2699 67.8708 57.125 67.4995 57.125C67.1282 57.125 66.7721 57.2699 66.5096 57.5277C66.247 57.7856 66.0995 58.1353 66.0995 58.5C66.0995 58.8647 66.247 59.2144 66.5096 59.4723C66.7721 59.7301 67.1282 59.875 67.4995 59.875C67.8708 59.875 68.2269 59.7301 68.4895 59.4723C68.752 59.2144 68.8995 58.8647 68.8995 58.5Z" fill="#424242"/>
</g>
<path d="M59.2822 86.5165H60.5498L61.4421 87.6798L61.8632 88.1969L63.2851 90.0524H61.9675L61.0168 88.814L60.6915 88.3637L59.2822 86.5165ZM63.5603 85.0154C63.5603 85.9272 63.3935 86.7111 63.0599 87.3671C62.7263 88.0204 62.2691 88.5235 61.6881 88.8765C61.1099 89.2268 60.4525 89.4019 59.7158 89.4019C58.9764 89.4019 58.3162 89.2268 57.7352 88.8765C57.157 88.5235 56.7011 88.019 56.3676 87.3629C56.034 86.7069 55.8672 85.9244 55.8672 85.0154C55.8672 84.1036 56.034 83.3211 56.3676 82.6679C56.7011 82.0118 57.157 81.5087 57.7352 81.1584C58.3162 80.8054 58.9764 80.6289 59.7158 80.6289C60.4525 80.6289 61.1099 80.8054 61.6881 81.1584C62.2691 81.5087 62.7263 82.0118 63.0599 82.6679C63.3935 83.3211 63.5603 84.1036 63.5603 85.0154ZM62.2844 85.0154C62.2844 84.3204 62.1718 83.7353 61.9466 83.26C61.7242 82.7818 61.4185 82.4205 61.0293 82.1758C60.6429 81.9284 60.2051 81.8047 59.7158 81.8047C59.2238 81.8047 58.7846 81.9284 58.3982 82.1758C58.0118 82.4205 57.706 82.7818 57.4809 83.26C57.2585 83.7353 57.1473 84.3204 57.1473 85.0154C57.1473 85.7103 57.2585 86.2969 57.4809 86.775C57.706 87.2503 58.0118 87.6117 58.3982 87.8591C58.7846 88.1037 59.2238 88.2261 59.7158 88.2261C60.2051 88.2261 60.6429 88.1037 61.0293 87.8591C61.4185 87.6117 61.7242 87.2503 61.9466 86.775C62.1718 86.2969 62.2844 85.7103 62.2844 85.0154ZM66.3133 85.4824V89.2852H65.0666V82.8805H66.2633V83.9229H66.3425C66.4898 83.5838 66.7206 83.3114 67.0347 83.1057C67.3516 82.9 67.7505 82.7971 68.2314 82.7971C68.6678 82.7971 69.05 82.8889 69.378 83.0723C69.7061 83.253 69.9604 83.5226 70.1411 83.8812C70.3218 84.2398 70.4121 84.6832 70.4121 85.2114V89.2852H69.1654V85.3615C69.1654 84.8973 69.0445 84.5345 68.8026 84.2732C68.5608 84.0091 68.2286 83.8771 67.8061 83.8771C67.517 83.8771 67.2598 83.9396 67.0347 84.0647C66.8123 84.1898 66.6358 84.3733 66.5051 84.6151C66.3773 84.8542 66.3133 85.1433 66.3133 85.4824ZM72.9056 89.2852H71.5379L74.611 80.7456H76.0996L79.1726 89.2852H77.805L75.3907 82.2968H75.324L72.9056 89.2852ZM73.1349 85.9411H77.5715V87.0252H73.1349V85.9411Z" fill="#424242"/>
</g>
<defs>
<filter id="filter0_d_4438_45492" x="-1.5" y="0.878906" width="137.672" height="127.719" filterUnits="userSpaceOnUse" color-interpolation-filters="sRGB">
<feFlood flood-opacity="0" result="BackgroundImageFix"/>
<feColorMatrix in="SourceAlpha" type="matrix" values="0 0 0 0 0 0 0 0 0 0 0 0 0 0 0 0 0 0 127 0" result="hardAlpha"/>
<feOffset/>
<feGaussianBlur stdDeviation="2.5"/>
<feComposite in2="hardAlpha" operator="out"/>
<feColorMatrix type="matrix" values="0 0 0 0 0 0 0 0 0 0 0 0 0 0 0 0 0 0 0.18 0"/>
<feBlend mode="normal" in2="BackgroundImageFix" result="effect1_dropShadow_4438_45492"/>
<feBlend mode="normal" in="SourceGraphic" in2="effect1_dropShadow_4438_45492" result="shape"/>
</filter>
<clipPath id="clip0_4438_45492">
<rect width="28" height="22" fill="white" transform="translate(53.4995 42)"/>
</clipPath>
</defs>
</svg>
