<svg width="25" height="20" viewBox="0 0 25 20" fill="none" xmlns="http://www.w3.org/2000/svg">
<g clip-path="url(#clip0_3922_53056)">
<path d="M21.25 0C20.7305 0 20.3125 0.417969 20.3125 0.9375V2.8125H18.4375C17.918 2.8125 17.5 3.23047 17.5 3.75C17.5 4.26953 17.918 4.6875 18.4375 4.6875H20.3125V6.5625C20.3125 7.08203 20.7305 7.5 21.25 7.5C21.7695 7.5 22.1875 7.08203 22.1875 6.5625V4.6875H24.0625C24.582 4.6875 25 4.26953 25 3.75C25 3.23047 24.582 2.8125 24.0625 2.8125H22.1875V0.9375C22.1875 0.417969 21.7695 0 21.25 0ZM8.75 20C11.0706 20 13.2962 19.0781 14.9372 17.4372C16.5781 15.7962 17.5 13.5706 17.5 11.25C17.5 8.92936 16.5781 6.70376 14.9372 5.06282C13.2962 3.42187 11.0706 2.5 8.75 2.5C6.42936 2.5 4.20376 3.42187 2.56282 5.06282C0.921872 6.70376 0 8.92936 0 11.25C0 13.5706 0.921872 15.7962 2.56282 17.4372C4.20376 19.0781 6.42936 20 8.75 20ZM5.64062 8.125C5.97215 8.125 6.29009 8.2567 6.52451 8.49112C6.75893 8.72554 6.89062 9.04348 6.89062 9.375C6.89062 9.70652 6.75893 10.0245 6.52451 10.2589C6.29009 10.4933 5.97215 10.625 5.64062 10.625C5.3091 10.625 4.99116 10.4933 4.75674 10.2589C4.52232 10.0245 4.39062 9.70652 4.39062 9.375C4.39062 9.04348 4.52232 8.72554 4.75674 8.49112C4.99116 8.2567 5.3091 8.125 5.64062 8.125ZM10.6406 9.375C10.6406 9.04348 10.7723 8.72554 11.0067 8.49112C11.2412 8.2567 11.5591 8.125 11.8906 8.125C12.2221 8.125 12.5401 8.2567 12.7745 8.49112C13.0089 8.72554 13.1406 9.04348 13.1406 9.375C13.1406 9.70652 13.0089 10.0245 12.7745 10.2589C12.5401 10.4933 12.2221 10.625 11.8906 10.625C11.5591 10.625 11.2412 10.4933 11.0067 10.2589C10.7723 10.0245 10.6406 9.70652 10.6406 9.375ZM5.46875 13.5195C6.26953 14.4297 7.44531 15 8.75 15C10.0547 15 11.2305 14.4297 12.0312 13.5195C12.2578 13.2617 12.6562 13.2344 12.9141 13.4648C13.1719 13.6953 13.1992 14.0898 12.9688 14.3477C11.9375 15.5117 10.4297 16.25 8.75 16.25C7.07031 16.25 5.5625 15.5117 4.53125 14.3477C4.30469 14.0898 4.32812 13.6953 4.58594 13.4648C4.84375 13.2344 5.23828 13.2617 5.46875 13.5195Z" fill="white"/>
</g>
<defs>
<clipPath id="clip0_3922_53056">
<rect width="25" height="20" fill="white"/>
</clipPath>
</defs>
</svg>
