<svg width="137" height="128" viewBox="0 0 137 128" fill="none" xmlns="http://www.w3.org/2000/svg">
<g filter="url(#filter0_d_4438_45448)">
<rect x="5.82812" y="5" width="127.672" height="117.72" rx="6.84941" fill="white" shape-rendering="crispEdges"/>
<rect x="6.31737" y="5.48924" width="126.694" height="116.741" rx="6.36016" stroke="#CBD5E1" stroke-opacity="0.5" stroke-width="0.978487" shape-rendering="crispEdges"/>
<g clip-path="url(#clip0_4438_45448)">
<path d="M57.4995 43.75C56.3933 43.75 55.4995 44.3645 55.4995 45.125C55.4995 45.8855 56.3933 46.5 57.4995 46.5H81.4995C82.6058 46.5 83.4995 45.8855 83.4995 45.125C83.4995 44.3645 82.6058 43.75 81.4995 43.75H57.4995ZM65.4995 50.625C64.3933 50.625 63.4995 51.2395 63.4995 52C63.4995 52.7605 64.3933 53.375 65.4995 53.375H81.4995C82.6058 53.375 83.4995 52.7605 83.4995 52C83.4995 51.2395 82.6058 50.625 81.4995 50.625H65.4995ZM63.4995 58.875C63.4995 59.6355 64.3933 60.25 65.4995 60.25H81.4995C82.6058 60.25 83.4995 59.6355 83.4995 58.875C83.4995 58.1145 82.6058 57.5 81.4995 57.5H65.4995C64.3933 57.5 63.4995 58.1145 63.4995 58.875ZM57.4995 50.625C56.3933 50.625 55.4995 51.2395 55.4995 52V58.875C55.4995 59.6355 56.3933 60.25 57.4995 60.25C58.6058 60.25 59.4995 59.6355 59.4995 58.875V52C59.4995 51.2395 58.6058 50.625 57.4995 50.625Z" fill="#424242"/>
</g>
<path d="M41.0386 80.9759V79.8667H47.6476V80.9759H44.9832V88.4062H43.6989V80.9759H41.0386ZM50.8395 88.5355C50.2085 88.5355 49.665 88.4007 49.2091 88.1311C48.756 87.8586 48.4058 87.4764 48.1584 86.9844C47.9138 86.4896 47.7914 85.91 47.7914 85.2456C47.7914 84.5896 47.9138 84.0114 48.1584 83.511C48.4058 83.0107 48.7505 82.6201 49.1925 82.3394C49.6372 82.0586 50.157 81.9182 50.7519 81.9182C51.1133 81.9182 51.4636 81.978 51.8027 82.0975C52.1418 82.217 52.4462 82.4047 52.7158 82.6604C52.9855 82.9162 53.1981 83.2483 53.3538 83.657C53.5095 84.0628 53.5873 84.5562 53.5873 85.1372V85.5792H48.4961V84.6452H52.3656C52.3656 84.3172 52.2989 84.0267 52.1654 83.7737C52.032 83.518 51.8444 83.3165 51.6025 83.1691C51.3635 83.0218 51.0827 82.9481 50.7603 82.9481C50.41 82.9481 50.1042 83.0343 49.8429 83.2066C49.5844 83.3762 49.3843 83.5986 49.2425 83.8738C49.1035 84.1462 49.034 84.4423 49.034 84.7619V85.4916C49.034 85.9197 49.1091 86.2839 49.2592 86.5841C49.4121 86.8843 49.6247 87.1136 49.8971 87.2721C50.1696 87.4278 50.4878 87.5056 50.852 87.5056C51.0883 87.5056 51.3037 87.4722 51.4983 87.4055C51.6929 87.336 51.8611 87.2332 52.0028 87.097C52.1446 86.9608 52.253 86.7926 52.3281 86.5924L53.5081 86.8051C53.4136 87.1526 53.244 87.457 52.9994 87.7183C52.7575 87.9768 52.4532 88.1783 52.0862 88.3229C51.7221 88.4646 51.3065 88.5355 50.8395 88.5355ZM55.8056 82.0016L57.2191 84.4951L58.6451 82.0016H60.0086L58.0113 85.2039L60.0253 88.4062H58.6618L57.2191 86.0128L55.7806 88.4062H54.4129L56.406 85.2039L54.4379 82.0016H55.8056ZM64.2784 82.0016V83.0023H60.78V82.0016H64.2784ZM61.7182 80.4672H62.9649V86.5257C62.9649 86.7676 63.0011 86.9496 63.0734 87.0719C63.1456 87.1915 63.2387 87.2735 63.3527 87.318C63.4695 87.3597 63.596 87.3805 63.7322 87.3805C63.8322 87.3805 63.9198 87.3736 63.9949 87.3597C64.0699 87.3458 64.1283 87.3346 64.17 87.3263L64.3951 88.3562C64.3229 88.384 64.22 88.4118 64.0866 88.4396C63.9532 88.4702 63.7864 88.4869 63.5862 88.4896C63.2582 88.4952 62.9524 88.4368 62.6689 88.3145C62.3854 88.1922 62.156 88.0032 61.9809 87.7474C61.8058 87.4917 61.7182 87.1706 61.7182 86.7842V80.4672ZM68.865 88.4062V79.8667H71.9923C72.5983 79.8667 73.1001 79.9668 73.4976 80.1669C73.8951 80.3643 74.1925 80.6326 74.3899 80.9717C74.5872 81.3081 74.6859 81.6875 74.6859 82.11C74.6859 82.4658 74.6206 82.7661 74.49 83.0107C74.3593 83.2525 74.1842 83.4471 73.9646 83.5944C73.7478 83.739 73.5087 83.8446 73.2474 83.9113V83.9947C73.5309 84.0086 73.8075 84.1004 74.0772 84.2699C74.3496 84.4367 74.5747 84.6744 74.7526 84.9829C74.9306 85.2915 75.0195 85.6668 75.0195 86.1088C75.0195 86.5452 74.9167 86.9371 74.7109 87.2846C74.508 87.6293 74.1939 87.9031 73.7686 88.106C73.3433 88.3062 72.7998 88.4062 72.1383 88.4062H68.865ZM70.1535 87.3013H72.0132C72.6303 87.3013 73.0723 87.1818 73.3391 86.9427C73.606 86.7036 73.7394 86.4048 73.7394 86.0462C73.7394 85.7766 73.6713 85.5292 73.5351 85.304C73.3989 85.0788 73.2043 84.8995 72.9513 84.7661C72.7012 84.6327 72.4037 84.566 72.059 84.566H70.1535V87.3013ZM70.1535 83.5611H71.8797C72.1688 83.5611 72.4287 83.5055 72.6595 83.3943C72.893 83.2831 73.0778 83.1274 73.214 82.9273C73.353 82.7244 73.4225 82.4853 73.4225 82.2101C73.4225 81.8571 73.2988 81.561 73.0514 81.322C72.804 81.0829 72.4246 80.9634 71.9131 80.9634H70.1535V83.5611ZM77.6944 79.8667V88.4062H76.4476V79.8667H77.6944ZM82.0694 88.5355C81.469 88.5355 80.945 88.3979 80.4974 88.1227C80.0499 87.8475 79.7024 87.4625 79.455 86.9677C79.2076 86.4729 79.0839 85.8947 79.0839 85.2331C79.0839 84.5687 79.2076 83.9878 79.455 83.4902C79.7024 82.9926 80.0499 82.6062 80.4974 82.331C80.945 82.0558 81.469 81.9182 82.0694 81.9182C82.6698 81.9182 83.1938 82.0558 83.6414 82.331C84.0889 82.6062 84.4364 82.9926 84.6838 83.4902C84.9312 83.9878 85.0549 84.5687 85.0549 85.2331C85.0549 85.8947 84.9312 86.4729 84.6838 86.9677C84.4364 87.4625 84.0889 87.8475 83.6414 88.1227C83.1938 88.3979 82.6698 88.5355 82.0694 88.5355ZM82.0736 87.4889C82.4627 87.4889 82.7852 87.3861 83.0409 87.1804C83.2967 86.9747 83.4857 86.7008 83.608 86.3589C83.7331 86.017 83.7957 85.6404 83.7957 85.2289C83.7957 84.8203 83.7331 84.445 83.608 84.1031C83.4857 83.7584 83.2967 83.4818 83.0409 83.2734C82.7852 83.0649 82.4627 82.9606 82.0736 82.9606C81.6816 82.9606 81.3564 83.0649 81.0979 83.2734C80.8421 83.4818 80.6517 83.7584 80.5266 84.1031C80.4043 84.445 80.3432 84.8203 80.3432 85.2289C80.3432 85.6404 80.4043 86.017 80.5266 86.3589C80.6517 86.7008 80.8421 86.9747 81.0979 87.1804C81.3564 87.3861 81.6816 87.4889 82.0736 87.4889ZM89.1443 88.5355C88.5244 88.5355 87.9907 88.3951 87.5432 88.1144C87.0984 87.8308 86.7565 87.4403 86.5174 86.9427C86.2784 86.4451 86.1588 85.8752 86.1588 85.2331C86.1588 84.5826 86.2811 84.0086 86.5258 83.511C86.7704 83.0107 87.1151 82.6201 87.5598 82.3394C88.0046 82.0586 88.5286 81.9182 89.1318 81.9182C89.6183 81.9182 90.0519 82.0086 90.4328 82.1892C90.8136 82.3672 91.1208 82.6173 91.3543 82.9398C91.5905 83.2622 91.7309 83.6389 91.7754 84.0698H90.562C90.4953 83.7696 90.3424 83.511 90.1033 83.2942C89.8671 83.0774 89.5502 82.969 89.1527 82.969C88.8052 82.969 88.5008 83.0607 88.2395 83.2442C87.981 83.4249 87.7794 83.6834 87.6349 84.0197C87.4903 84.3533 87.4181 84.748 87.4181 85.2039C87.4181 85.6709 87.489 86.074 87.6307 86.4131C87.7725 86.7523 87.9726 87.015 88.2312 87.2012C88.4925 87.3875 88.7996 87.4806 89.1527 87.4806C89.3889 87.4806 89.603 87.4375 89.7948 87.3513C89.9894 87.2624 90.152 87.1359 90.2826 86.9719C90.4161 86.8079 90.5092 86.6105 90.562 86.3798H91.7754C91.7309 86.794 91.5961 87.1637 91.3709 87.4889C91.1458 87.8142 90.8442 88.0699 90.4661 88.2561C90.0908 88.4424 89.6502 88.5355 89.1443 88.5355ZM94.2553 86.2338L94.247 84.7119H94.4638L97.0157 82.0016H98.5084L95.598 85.0872H95.402L94.2553 86.2338ZM93.1087 88.4062V79.8667H94.3554V88.4062H93.1087ZM97.1533 88.4062L94.8599 85.3624L95.7189 84.4909L98.6835 88.4062H97.1533Z" fill="#424242"/>
</g>
<defs>
<filter id="filter0_d_4438_45448" x="0.828125" y="0" width="137.672" height="127.719" filterUnits="userSpaceOnUse" color-interpolation-filters="sRGB">
<feFlood flood-opacity="0" result="BackgroundImageFix"/>
<feColorMatrix in="SourceAlpha" type="matrix" values="0 0 0 0 0 0 0 0 0 0 0 0 0 0 0 0 0 0 127 0" result="hardAlpha"/>
<feOffset/>
<feGaussianBlur stdDeviation="2.5"/>
<feComposite in2="hardAlpha" operator="out"/>
<feColorMatrix type="matrix" values="0 0 0 0 0 0 0 0 0 0 0 0 0 0 0 0 0 0 0.18 0"/>
<feBlend mode="normal" in2="BackgroundImageFix" result="effect1_dropShadow_4438_45448"/>
<feBlend mode="normal" in="SourceGraphic" in2="effect1_dropShadow_4438_45448" result="shape"/>
</filter>
<clipPath id="clip0_4438_45448">
<rect width="28" height="22" fill="white" transform="translate(55.4995 41)"/>
</clipPath>
</defs>
</svg>
