<svg width="137" height="128" viewBox="0 0 137 128" fill="none" xmlns="http://www.w3.org/2000/svg">
<g filter="url(#filter0_d_4438_45443)">
<rect x="3.5" y="5" width="127.672" height="117.72" rx="6.84941" fill="white" shape-rendering="crispEdges"/>
<rect x="3.98924" y="5.48924" width="126.694" height="116.741" rx="6.36016" stroke="#CBD5E1" stroke-opacity="0.5" stroke-width="0.978487" shape-rendering="crispEdges"/>
<g clip-path="url(#clip0_4438_45443)">
<path d="M56.2995 46.5V45.125H60.4995V58.875H59.0995C58.3251 58.875 57.6995 59.4895 57.6995 60.25C57.6995 61.0105 58.3251 61.625 59.0995 61.625H64.6995C65.4739 61.625 66.0995 61.0105 66.0995 60.25C66.0995 59.4895 65.4739 58.875 64.6995 58.875H63.2995V45.125H67.4995V46.5C67.4995 47.2605 68.1251 47.875 68.8995 47.875C69.6739 47.875 70.2995 47.2605 70.2995 46.5V44.4375C70.2995 43.2988 69.3589 42.375 68.1995 42.375H61.8995H55.5995C54.4401 42.375 53.4995 43.2988 53.4995 44.4375V46.5C53.4995 47.2605 54.1251 47.875 54.8995 47.875C55.6739 47.875 56.2995 47.2605 56.2995 46.5ZM70.2995 54.0625V53.375H73.0995V58.875H72.3995C71.6251 58.875 70.9995 59.4895 70.9995 60.25C70.9995 61.0105 71.6251 61.625 72.3995 61.625H76.5995C77.3739 61.625 77.9995 61.0105 77.9995 60.25C77.9995 59.4895 77.3739 58.875 76.5995 58.875H75.8995V53.375H78.6995V54.0625C78.6995 54.823 79.3251 55.4375 80.0995 55.4375C80.8739 55.4375 81.4995 54.823 81.4995 54.0625V52.6875C81.4995 51.5488 80.5589 50.625 79.3995 50.625H69.5995C68.4401 50.625 67.4995 51.5488 67.4995 52.6875V54.0625C67.4995 54.823 68.1251 55.4375 68.8995 55.4375C69.6739 55.4375 70.2995 54.823 70.2995 54.0625Z" fill="#424242"/>
</g>
<path d="M55.7041 80.9759V79.8667H62.313V80.9759H59.6486V88.4062H58.3643V80.9759H55.7041ZM65.5049 88.5355C64.8739 88.5355 64.3305 88.4007 63.8746 88.1311C63.4215 87.8586 63.0712 87.4764 62.8238 86.9844C62.5792 86.4896 62.4569 85.91 62.4569 85.2456C62.4569 84.5896 62.5792 84.0114 62.8238 83.511C63.0712 83.0107 63.4159 82.6201 63.8579 82.3394C64.3027 82.0586 64.8225 81.9182 65.4174 81.9182C65.7787 81.9182 66.129 81.978 66.4681 82.0975C66.8073 82.217 67.1116 82.4047 67.3813 82.6604C67.6509 82.9162 67.8636 83.2483 68.0192 83.657C68.1749 84.0628 68.2527 84.5562 68.2527 85.1372V85.5792H63.1616V84.6452H67.031C67.031 84.3172 66.9643 84.0267 66.8309 83.7737C66.6975 83.518 66.5098 83.3165 66.268 83.1691C66.0289 83.0218 65.7482 82.9481 65.4257 82.9481C65.0754 82.9481 64.7697 83.0343 64.5084 83.2066C64.2498 83.3762 64.0497 83.5986 63.9079 83.8738C63.7689 84.1462 63.6994 84.4423 63.6994 84.7619V85.4916C63.6994 85.9197 63.7745 86.2839 63.9246 86.5841C64.0775 86.8843 64.2902 87.1136 64.5626 87.2721C64.835 87.4278 65.1533 87.5056 65.5174 87.5056C65.7537 87.5056 65.9691 87.4722 66.1637 87.4055C66.3583 87.336 66.5265 87.2332 66.6683 87.097C66.81 86.9608 66.9184 86.7926 66.9935 86.5924L68.1735 86.8051C68.079 87.1526 67.9094 87.457 67.6648 87.7183C67.423 87.9768 67.1186 88.1783 66.7517 88.3229C66.3875 88.4646 65.9719 88.5355 65.5049 88.5355ZM70.471 82.0016L71.8845 84.4951L73.3106 82.0016H74.6741L72.6768 85.2039L74.6907 88.4062H73.3273L71.8845 86.0128L70.446 88.4062H69.0783L71.0715 85.2039L69.1034 82.0016H70.471ZM78.9438 82.0016V83.0023H75.4455V82.0016H78.9438ZM76.3836 80.4672H77.6304V86.5257C77.6304 86.7676 77.6665 86.9496 77.7388 87.0719C77.8111 87.1915 77.9042 87.2735 78.0182 87.318C78.1349 87.3597 78.2614 87.3805 78.3976 87.3805C78.4977 87.3805 78.5852 87.3736 78.6603 87.3597C78.7353 87.3458 78.7937 87.3346 78.8354 87.3263L79.0606 88.3562C78.9883 88.384 78.8855 88.4118 78.752 88.4396C78.6186 88.4702 78.4518 88.4869 78.2517 88.4896C77.9236 88.4952 77.6179 88.4368 77.3343 88.3145C77.0508 88.1922 76.8215 88.0032 76.6463 87.7474C76.4712 87.4917 76.3836 87.1706 76.3836 86.7842V80.4672Z" fill="#424242"/>
</g>
<defs>
<filter id="filter0_d_4438_45443" x="-1.5" y="0" width="137.672" height="127.719" filterUnits="userSpaceOnUse" color-interpolation-filters="sRGB">
<feFlood flood-opacity="0" result="BackgroundImageFix"/>
<feColorMatrix in="SourceAlpha" type="matrix" values="0 0 0 0 0 0 0 0 0 0 0 0 0 0 0 0 0 0 127 0" result="hardAlpha"/>
<feOffset/>
<feGaussianBlur stdDeviation="2.5"/>
<feComposite in2="hardAlpha" operator="out"/>
<feColorMatrix type="matrix" values="0 0 0 0 0 0 0 0 0 0 0 0 0 0 0 0 0 0 0.18 0"/>
<feBlend mode="normal" in2="BackgroundImageFix" result="effect1_dropShadow_4438_45443"/>
<feBlend mode="normal" in="SourceGraphic" in2="effect1_dropShadow_4438_45443" result="shape"/>
</filter>
<clipPath id="clip0_4438_45443">
<rect width="28" height="22" fill="white" transform="translate(53.4995 41)"/>
</clipPath>
</defs>
</svg>
