<svg width="137" height="129" viewBox="0 0 137 129" fill="none" xmlns="http://www.w3.org/2000/svg">
<g filter="url(#filter0_d_4438_45498)">
<rect x="5.82812" y="5.87891" width="127.672" height="117.72" rx="6.84941" fill="white" shape-rendering="crispEdges"/>
<rect x="6.32812" y="6.37891" width="126.672" height="116.72" rx="6.34941" stroke="#CBD5E1" stroke-opacity="0.5" shape-rendering="crispEdges"/>
<g clip-path="url(#clip0_4438_45498)">
<path d="M57.5995 59.875H56.8995C56.1251 59.875 55.4995 59.2605 55.4995 58.5V45.2012C55.4995 44.5051 55.902 43.8691 56.5364 43.5555C58.6145 42.5328 60.9114 42 63.2389 42H64.5645C66.892 42 69.1845 42.5328 71.267 43.5555C71.897 43.8648 72.2995 44.5008 72.2995 45.2012V46.125C71.3414 46.125 70.532 46.7566 70.2783 47.6203C70.0114 47.6805 69.7489 47.7621 69.4995 47.8609V47.1562C69.4995 46.5848 69.0314 46.125 68.4495 46.125H64.5995V51.625H66.4326L65.7195 53.7262C64.6214 54.4695 63.8995 55.7156 63.8995 57.125V59.875H61.0995V61.25C61.0995 62.0105 60.4739 62.625 59.6995 62.625H58.9995C58.2251 62.625 57.5995 62.0105 57.5995 61.25V59.875ZM58.2995 47.1562V50.5938C58.2995 51.1652 58.7676 51.625 59.3495 51.625H63.1995V46.125H59.3495C58.7676 46.125 58.2995 46.5848 58.2995 47.1562ZM60.7495 55.75C60.7495 55.4765 60.6389 55.2142 60.442 55.0208C60.2451 54.8274 59.978 54.7188 59.6995 54.7188C59.421 54.7188 59.154 54.8274 58.957 55.0208C58.7601 55.2142 58.6495 55.4765 58.6495 55.75C58.6495 56.0235 58.7601 56.2858 58.957 56.4792C59.154 56.6726 59.421 56.7812 59.6995 56.7812C59.978 56.7812 60.2451 56.6726 60.442 56.4792C60.6389 56.2858 60.7495 56.0235 60.7495 55.75ZM71.5995 48.5312C71.5995 47.9598 72.0676 47.5 72.6495 47.5H76.1495C76.7314 47.5 77.1995 47.9598 77.1995 48.5312V48.875H77.4358C78.9408 48.875 80.2795 49.8203 80.7564 51.2254L81.9201 54.65C82.852 55.0926 83.4995 56.0336 83.4995 57.125V61.25V62.625C83.4995 63.3855 82.8739 64 82.0995 64H81.3995C80.6251 64 79.9995 63.3855 79.9995 62.625V61.25H68.7995V62.625C68.7995 63.3855 68.1739 64 67.3995 64H66.6995C65.9251 64 65.2995 63.3855 65.2995 62.625V61.25V57.125C65.2995 56.0336 65.947 55.0926 66.8789 54.65L68.0426 51.2254C68.5195 49.8203 69.8583 48.875 71.3633 48.875H71.5995V48.5312ZM70.6983 52.0934L69.9239 54.375H78.8751L78.1008 52.0934C78.0045 51.8141 77.7376 51.625 77.4358 51.625H71.3633C71.0614 51.625 70.7945 51.8141 70.6983 52.0934ZM69.8495 57.8125C69.8495 57.539 69.7389 57.2767 69.542 57.0833C69.3451 56.8899 69.078 56.7812 68.7995 56.7812C68.521 56.7812 68.254 56.8899 68.057 57.0833C67.8601 57.2767 67.7495 57.539 67.7495 57.8125C67.7495 58.086 67.8601 58.3483 68.057 58.5417C68.254 58.7351 68.521 58.8438 68.7995 58.8438C69.078 58.8438 69.3451 58.7351 69.542 58.5417C69.7389 58.3483 69.8495 58.086 69.8495 57.8125ZM79.9995 58.8438C80.278 58.8438 80.5451 58.7351 80.742 58.5417C80.9389 58.3483 81.0495 58.086 81.0495 57.8125C81.0495 57.539 80.9389 57.2767 80.742 57.0833C80.5451 56.8899 80.278 56.7812 79.9995 56.7812C79.721 56.7812 79.454 56.8899 79.257 57.0833C79.0601 57.2767 78.9495 57.539 78.9495 57.8125C78.9495 58.086 79.0601 58.3483 79.257 58.5417C79.454 58.7351 79.721 58.8438 79.9995 58.8438Z" fill="#424242"/>
</g>
<path d="M28.6432 81.8548V80.7456H35.2522V81.8548H32.5877V89.2852H31.3035V81.8548H28.6432ZM35.9474 89.2852V82.8805H37.1525V83.8979H37.2192C37.336 83.5532 37.5417 83.2822 37.8363 83.0848C38.1338 82.8847 38.4701 82.7846 38.8454 82.7846C38.9232 82.7846 39.0149 82.7874 39.1206 82.793C39.229 82.7985 39.3138 82.8055 39.3749 82.8138V84.0063C39.3249 83.9924 39.2359 83.9771 39.1081 83.9605C38.9802 83.941 38.8523 83.9313 38.7245 83.9313C38.4298 83.9313 38.1671 83.9938 37.9364 84.1189C37.7084 84.2412 37.5278 84.4122 37.3943 84.6318C37.2609 84.8486 37.1942 85.096 37.1942 85.374V89.2852H35.9474ZM42.2604 89.4269C41.8545 89.4269 41.4876 89.3519 41.1596 89.2018C40.8315 89.0489 40.5716 88.8279 40.3798 88.5388C40.1908 88.2497 40.0963 87.8953 40.0963 87.4755C40.0963 87.1141 40.1658 86.8167 40.3048 86.5832C40.4438 86.3497 40.6314 86.1648 40.8677 86.0286C41.104 85.8924 41.368 85.7896 41.6599 85.7201C41.9518 85.6506 42.2492 85.5978 42.5522 85.5616C42.9358 85.5171 43.2472 85.481 43.4862 85.4532C43.7253 85.4226 43.899 85.374 44.0075 85.3073C44.1159 85.2406 44.1701 85.1321 44.1701 84.982V84.9529C44.1701 84.5887 44.0672 84.3065 43.8615 84.1064C43.6586 83.9063 43.3556 83.8062 42.9525 83.8062C42.5328 83.8062 42.202 83.8993 41.9601 84.0856C41.7211 84.269 41.5557 84.4733 41.4639 84.6985L40.2923 84.4316C40.4313 84.0425 40.6342 83.7284 40.901 83.4893C41.1707 83.2474 41.4806 83.0723 41.8309 82.9639C42.1811 82.8527 42.5495 82.7971 42.9358 82.7971C43.1916 82.7971 43.4626 82.8277 43.7489 82.8889C44.038 82.9472 44.3077 83.0556 44.5579 83.2141C44.8108 83.3725 45.0179 83.5991 45.1791 83.8938C45.3404 84.1856 45.421 84.5651 45.421 85.0321V89.2852H44.2034V88.4095H44.1534C44.0728 88.5707 43.9519 88.7292 43.7906 88.8849C43.6294 89.0405 43.4223 89.1698 43.1693 89.2726C42.9164 89.3755 42.6134 89.4269 42.2604 89.4269ZM42.5314 88.4262C42.8761 88.4262 43.1707 88.3581 43.4154 88.2219C43.6628 88.0857 43.8504 87.9078 43.9783 87.6882C44.1089 87.4658 44.1742 87.2281 44.1742 86.9751V86.1496C44.1298 86.194 44.0436 86.2357 43.9157 86.2746C43.7906 86.3108 43.6475 86.3427 43.4862 86.3705C43.325 86.3956 43.168 86.4192 43.0151 86.4414C42.8622 86.4609 42.7343 86.4776 42.6315 86.4915C42.3896 86.522 42.1686 86.5735 41.9685 86.6457C41.7711 86.718 41.6127 86.8223 41.4931 86.9585C41.3764 87.0919 41.318 87.2698 41.318 87.4922C41.318 87.8007 41.432 88.0342 41.6599 88.1927C41.8879 88.3484 42.1784 88.4262 42.5314 88.4262ZM48.3283 85.4824V89.2852H47.0816V82.8805H48.2783V83.9229H48.3575C48.5048 83.5838 48.7355 83.3114 49.0496 83.1057C49.3665 82.9 49.7654 82.7971 50.2463 82.7971C50.6828 82.7971 51.065 82.8889 51.393 83.0723C51.721 83.253 51.9754 83.5226 52.1561 83.8812C52.3368 84.2398 52.4271 84.6832 52.4271 85.2114V89.2852H51.1804V85.3615C51.1804 84.8973 51.0594 84.5345 50.8176 84.2732C50.5758 84.0091 50.2436 83.8771 49.821 83.8771C49.5319 83.8771 49.2748 83.9396 49.0496 84.0647C48.8273 84.1898 48.6507 84.3733 48.5201 84.6151C48.3922 84.8542 48.3283 85.1433 48.3283 85.4824ZM58.8985 84.4441L57.7685 84.6443C57.7212 84.4997 57.6462 84.3621 57.5433 84.2315C57.4432 84.1008 57.307 83.9938 57.1347 83.9104C56.9623 83.827 56.7469 83.7853 56.4884 83.7853C56.1353 83.7853 55.8407 83.8646 55.6044 84.023C55.3681 84.1787 55.25 84.3802 55.25 84.6276C55.25 84.8417 55.3292 85.014 55.4876 85.1447C55.6461 85.2753 55.9018 85.3823 56.2549 85.4657L57.2723 85.6992C57.8616 85.8354 58.3008 86.0453 58.5899 86.3288C58.879 86.6124 59.0235 86.9807 59.0235 87.4338C59.0235 87.8174 58.9123 88.1593 58.69 88.4596C58.4704 88.757 58.1632 88.9905 57.7685 89.1601C57.3765 89.3296 56.922 89.4144 56.405 89.4144C55.6878 89.4144 55.1026 89.2615 54.6495 88.9558C54.1964 88.6472 53.9185 88.2094 53.8156 87.6423L55.0206 87.4588C55.0957 87.7729 55.25 88.0106 55.4835 88.1718C55.717 88.3303 56.0214 88.4095 56.3966 88.4095C56.8053 88.4095 57.1319 88.3247 57.3765 88.1552C57.6211 87.9828 57.7434 87.7729 57.7434 87.5255C57.7434 87.3254 57.6684 87.1572 57.5183 87.021C57.371 86.8848 57.1444 86.782 56.8386 86.7125L55.7545 86.4748C55.1569 86.3386 54.7149 86.1218 54.4285 85.8243C54.145 85.5269 54.0032 85.1502 54.0032 84.6943C54.0032 84.3163 54.1089 83.9855 54.3201 83.7019C54.5314 83.4184 54.8233 83.1974 55.1958 83.039C55.5683 82.8777 55.995 82.7971 56.4759 82.7971C57.168 82.7971 57.7129 82.9472 58.1104 83.2474C58.5079 83.5449 58.7706 83.9438 58.8985 84.4441ZM60.3943 91.6869V82.8805H61.6119V83.9188H61.7161C61.7884 83.7853 61.8926 83.6311 62.0288 83.4559C62.1651 83.2808 62.3541 83.1279 62.5959 82.9973C62.8378 82.8638 63.1574 82.7971 63.5549 82.7971C64.072 82.7971 64.5334 82.9278 64.9393 83.1891C65.3451 83.4504 65.6634 83.827 65.8941 84.3191C66.1276 84.8111 66.2444 85.4032 66.2444 86.0953C66.2444 86.7875 66.129 87.381 65.8983 87.8758C65.6676 88.3678 65.3507 88.7473 64.9476 89.0141C64.5446 89.2782 64.0845 89.4102 63.5675 89.4102C63.1783 89.4102 62.86 89.3449 62.6126 89.2143C62.368 89.0836 62.1762 88.9307 62.0372 88.7556C61.8982 88.5805 61.7912 88.4248 61.7161 88.2886H61.6411V91.6869H60.3943ZM61.616 86.0828C61.616 86.5332 61.6814 86.9279 61.812 87.267C61.9427 87.6062 62.1317 87.8716 62.3791 88.0634C62.6265 88.2525 62.9295 88.347 63.2881 88.347C63.6606 88.347 63.9719 88.2483 64.2221 88.0509C64.4723 87.8508 64.6613 87.5798 64.7892 87.2378C64.9198 86.8959 64.9852 86.5109 64.9852 86.0828C64.9852 85.6603 64.9212 85.2809 64.7933 84.9445C64.6683 84.6082 64.4792 84.3427 64.2263 84.1481C63.9761 83.9535 63.6634 83.8562 63.2881 83.8562C62.9267 83.8562 62.6209 83.9493 62.3708 84.1356C62.1234 84.3218 61.9357 84.5817 61.8079 84.9153C61.68 85.2489 61.616 85.6381 61.616 86.0828ZM70.339 89.4144C69.7386 89.4144 69.2146 89.2768 68.7671 89.0016C68.3195 88.7264 67.972 88.3414 67.7246 87.8466C67.4772 87.3518 67.3535 86.7736 67.3535 86.112C67.3535 85.4477 67.4772 84.8667 67.7246 84.3691C67.972 83.8715 68.3195 83.4851 68.7671 83.2099C69.2146 82.9347 69.7386 82.7971 70.339 82.7971C70.9395 82.7971 71.4635 82.9347 71.911 83.2099C72.3585 83.4851 72.706 83.8715 72.9534 84.3691C73.2008 84.8667 73.3245 85.4477 73.3245 86.112C73.3245 86.7736 73.2008 87.3518 72.9534 87.8466C72.706 88.3414 72.3585 88.7264 71.911 89.0016C71.4635 89.2768 70.9395 89.4144 70.339 89.4144ZM70.3432 88.3678C70.7324 88.3678 71.0548 88.265 71.3106 88.0593C71.5663 87.8536 71.7553 87.5798 71.8776 87.2378C72.0027 86.8959 72.0653 86.5193 72.0653 86.1079C72.0653 85.6992 72.0027 85.324 71.8776 84.982C71.7553 84.6373 71.5663 84.3608 71.3106 84.1523C71.0548 83.9438 70.7324 83.8395 70.3432 83.8395C69.9512 83.8395 69.626 83.9438 69.3675 84.1523C69.1118 84.3608 68.9213 84.6373 68.7962 84.982C68.6739 85.324 68.6128 85.6992 68.6128 86.1079C68.6128 86.5193 68.6739 86.8959 68.7962 87.2378C68.9213 87.5798 69.1118 87.8536 69.3675 88.0593C69.626 88.265 69.9512 88.3678 70.3432 88.3678ZM74.7162 89.2852V82.8805H75.9212V83.8979H75.9879C76.1047 83.5532 76.3104 83.2822 76.605 83.0848C76.9025 82.8847 77.2388 82.7846 77.6141 82.7846C77.6919 82.7846 77.7837 82.7874 77.8893 82.793C77.9977 82.7985 78.0825 82.8055 78.1436 82.8138V84.0063C78.0936 83.9924 78.0047 83.9771 77.8768 83.9605C77.7489 83.941 77.621 83.9313 77.4932 83.9313C77.1985 83.9313 76.9358 83.9938 76.7051 84.1189C76.4772 84.2412 76.2965 84.4122 76.163 84.6318C76.0296 84.8486 75.9629 85.096 75.9629 85.374V89.2852H74.7162ZM82.5906 82.8805V83.8812H79.0922V82.8805H82.5906ZM80.0304 81.3461H81.2772V87.4046C81.2772 87.6465 81.3133 87.8285 81.3856 87.9509C81.4579 88.0704 81.551 88.1524 81.6649 88.1969C81.7817 88.2386 81.9082 88.2594 82.0444 88.2594C82.1445 88.2594 82.232 88.2525 82.3071 88.2386C82.3821 88.2247 82.4405 88.2135 82.4822 88.2052L82.7074 89.2351C82.6351 89.2629 82.5322 89.2907 82.3988 89.3185C82.2654 89.3491 82.0986 89.3658 81.8984 89.3686C81.5704 89.3741 81.2647 89.3157 80.9811 89.1934C80.6976 89.0711 80.4682 88.8821 80.2931 88.6263C80.118 88.3706 80.0304 88.0495 80.0304 87.6631V81.3461ZM85.8336 89.4269C85.4277 89.4269 85.0608 89.3519 84.7328 89.2018C84.4048 89.0489 84.1449 88.8279 83.9531 88.5388C83.764 88.2497 83.6695 87.8953 83.6695 87.4755C83.6695 87.1141 83.739 86.8167 83.878 86.5832C84.017 86.3497 84.2046 86.1648 84.4409 86.0286C84.6772 85.8924 84.9413 85.7896 85.2332 85.7201C85.525 85.6506 85.8225 85.5978 86.1255 85.5616C86.5091 85.5171 86.8204 85.481 87.0595 85.4532C87.2985 85.4226 87.4723 85.374 87.5807 85.3073C87.6891 85.2406 87.7433 85.1321 87.7433 84.982V84.9529C87.7433 84.5887 87.6405 84.3065 87.4348 84.1064C87.2318 83.9063 86.9288 83.8062 86.5258 83.8062C86.106 83.8062 85.7752 83.8993 85.5334 84.0856C85.2943 84.269 85.1289 84.4733 85.0372 84.6985L83.8655 84.4316C84.0045 84.0425 84.2074 83.7284 84.4743 83.4893C84.7439 83.2474 85.0539 83.0723 85.4041 82.9639C85.7544 82.8527 86.1227 82.7971 86.5091 82.7971C86.7648 82.7971 87.0359 82.8277 87.3222 82.8889C87.6113 82.9472 87.8809 83.0556 88.1311 83.2141C88.3841 83.3725 88.5911 83.5991 88.7524 83.8938C88.9136 84.1856 88.9942 84.5651 88.9942 85.0321V89.2852H87.7767V88.4095H87.7266C87.646 88.5707 87.5251 88.7292 87.3639 88.8849C87.2026 89.0405 86.9955 89.1698 86.7426 89.2726C86.4896 89.3755 86.1866 89.4269 85.8336 89.4269ZM86.1046 88.4262C86.4493 88.4262 86.744 88.3581 86.9886 88.2219C87.236 88.0857 87.4236 87.9078 87.5515 87.6882C87.6822 87.4658 87.7475 87.2281 87.7475 86.9751V86.1496C87.703 86.194 87.6168 86.2357 87.489 86.2746C87.3639 86.3108 87.2207 86.3427 87.0595 86.3705C86.8983 86.3956 86.7412 86.4192 86.5883 86.4414C86.4354 86.4609 86.3075 86.4776 86.2047 86.4915C85.9629 86.522 85.7419 86.5735 85.5417 86.6457C85.3443 86.718 85.1859 86.8223 85.0664 86.9585C84.9496 87.0919 84.8912 87.2698 84.8912 87.4922C84.8912 87.8007 85.0052 88.0342 85.2332 88.1927C85.4611 88.3484 85.7516 88.4262 86.1046 88.4262ZM93.6445 82.8805V83.8812H90.1461V82.8805H93.6445ZM91.0843 81.3461H92.331V87.4046C92.331 87.6465 92.3671 87.8285 92.4394 87.9509C92.5117 88.0704 92.6048 88.1524 92.7188 88.1969C92.8355 88.2386 92.962 88.2594 93.0982 88.2594C93.1983 88.2594 93.2859 88.2525 93.3609 88.2386C93.436 88.2247 93.4943 88.2135 93.536 88.2052L93.7612 89.2351C93.6889 89.2629 93.5861 89.2907 93.4527 89.3185C93.3192 89.3491 93.1524 89.3658 92.9523 89.3686C92.6243 89.3741 92.3185 89.3157 92.035 89.1934C91.7514 89.0711 91.5221 88.8821 91.347 88.6263C91.1718 88.3706 91.0843 88.0495 91.0843 87.6631V81.3461ZM95.0236 89.2852V82.8805H96.2703V89.2852H95.0236ZM95.6532 81.8923C95.4364 81.8923 95.2501 81.82 95.0945 81.6755C94.9416 81.5281 94.8651 81.353 94.8651 81.1501C94.8651 80.9444 94.9416 80.7693 95.0945 80.6247C95.2501 80.4774 95.4364 80.4037 95.6532 80.4037C95.87 80.4037 96.0549 80.4774 96.2078 80.6247C96.3634 80.7693 96.4413 80.9444 96.4413 81.1501C96.4413 81.353 96.3634 81.5281 96.2078 81.6755C96.0549 81.82 95.87 81.8923 95.6532 81.8923ZM100.645 89.4144C100.045 89.4144 99.5209 89.2768 99.0734 89.0016C98.6258 88.7264 98.2784 88.3414 98.031 87.8466C97.7836 87.3518 97.6599 86.7736 97.6599 86.112C97.6599 85.4477 97.7836 84.8667 98.031 84.3691C98.2784 83.8715 98.6258 83.4851 99.0734 83.2099C99.5209 82.9347 100.045 82.7971 100.645 82.7971C101.246 82.7971 101.77 82.9347 102.217 83.2099C102.665 83.4851 103.012 83.8715 103.26 84.3691C103.507 84.8667 103.631 85.4477 103.631 86.112C103.631 86.7736 103.507 87.3518 103.26 87.8466C103.012 88.3414 102.665 88.7264 102.217 89.0016C101.77 89.2768 101.246 89.4144 100.645 89.4144ZM100.65 88.3678C101.039 88.3678 101.361 88.265 101.617 88.0593C101.873 87.8536 102.062 87.5798 102.184 87.2378C102.309 86.8959 102.372 86.5193 102.372 86.1079C102.372 85.6992 102.309 85.324 102.184 84.982C102.062 84.6373 101.873 84.3608 101.617 84.1523C101.361 83.9438 101.039 83.8395 100.65 83.8395C100.258 83.8395 99.9323 83.9438 99.6738 84.1523C99.4181 84.3608 99.2277 84.6373 99.1026 84.982C98.9803 85.324 98.9191 85.6992 98.9191 86.1079C98.9191 86.5193 98.9803 86.8959 99.1026 87.2378C99.2277 87.5798 99.4181 87.8536 99.6738 88.0593C99.9323 88.265 100.258 88.3678 100.65 88.3678ZM106.269 85.4824V89.2852H105.022V82.8805H106.219V83.9229H106.298C106.446 83.5838 106.676 83.3114 106.991 83.1057C107.307 82.9 107.706 82.7971 108.187 82.7971C108.624 82.7971 109.006 82.8889 109.334 83.0723C109.662 83.253 109.916 83.5226 110.097 83.8812C110.278 84.2398 110.368 84.6832 110.368 85.2114V89.2852H109.121V85.3615C109.121 84.8973 109 84.5345 108.759 84.2732C108.517 84.0091 108.185 83.8771 107.762 83.8771C107.473 83.8771 107.216 83.9396 106.991 84.0647C106.768 84.1898 106.592 84.3733 106.461 84.6151C106.333 84.8542 106.269 85.1433 106.269 85.4824Z" fill="#424242"/>
</g>
<defs>
<filter id="filter0_d_4438_45498" x="0.828125" y="0.878906" width="137.672" height="127.719" filterUnits="userSpaceOnUse" color-interpolation-filters="sRGB">
<feFlood flood-opacity="0" result="BackgroundImageFix"/>
<feColorMatrix in="SourceAlpha" type="matrix" values="0 0 0 0 0 0 0 0 0 0 0 0 0 0 0 0 0 0 127 0" result="hardAlpha"/>
<feOffset/>
<feGaussianBlur stdDeviation="2.5"/>
<feComposite in2="hardAlpha" operator="out"/>
<feColorMatrix type="matrix" values="0 0 0 0 0 0 0 0 0 0 0 0 0 0 0 0 0 0 0.18 0"/>
<feBlend mode="normal" in2="BackgroundImageFix" result="effect1_dropShadow_4438_45498"/>
<feBlend mode="normal" in="SourceGraphic" in2="effect1_dropShadow_4438_45498" result="shape"/>
</filter>
<clipPath id="clip0_4438_45498">
<rect width="28" height="22" fill="white" transform="translate(55.4995 42)"/>
</clipPath>
</defs>
</svg>
