<svg width="18" height="1727" viewBox="0 0 18 1727" fill="none" xmlns="http://www.w3.org/2000/svg">
<path d="M7 1.99997C7 0.895398 7.89543 0 9 0C10.1046 0 11 0.895431 11 2V1725C11 1726.1 10.1046 1727 9 1727C7.89543 1727 7 1726.1 7 1725V1.99997Z" fill="#999999"/>
<path d="M2 1213C0.89543 1213 0 1212.1 0 1211C0 1209.9 0.895431 1209 2 1209H16C17.1046 1209 18 1209.9 18 1211C18 1212.1 17.1046 1213 16 1213H2Z" fill="#999999"/>
<path d="M2 71C0.89543 71 0 70.1046 0 69C0 67.8954 0.895431 67 2 67H16C17.1046 67 18 67.8954 18 69C18 70.1046 17.1046 71 16 71H2Z" fill="#999999"/>
<path d="M2 642C0.89543 642 0 641.105 0 640C0 638.895 0.895431 638 2 638H16C17.1046 638 18 638.895 18 640C18 641.105 17.1046 642 16 642H2Z" fill="#999999"/>
</svg>
